<?xml version="1.0" encoding="UTF-8" standalone="no"?>
<svg
   xmlns:dc="http://purl.org/dc/elements/1.1/"
   xmlns:cc="http://creativecommons.org/ns#"
   xmlns:rdf="http://www.w3.org/1999/02/22-rdf-syntax-ns#"
   xmlns:svg="http://www.w3.org/2000/svg"
   xmlns="http://www.w3.org/2000/svg"
   xmlns:sodipodi="http://sodipodi.sourceforge.net/DTD/sodipodi-0.dtd"
   xmlns:inkscape="http://www.inkscape.org/namespaces/inkscape"
   inkscape:version="0.92.4 (5da689c313, 2019-01-14)"
   sodipodi:docname="engine-order-telegraph-handle.svg"
   viewBox="0 0 132.10225 384.67266"
   id="svg3891"
   height="384.67267"
   width="132.10225"
   version="1.1">
  <metadata
     id="metadata3897">
    <rdf:RDF>
      <cc:Work
         rdf:about="">
        <dc:format>image/svg+xml</dc:format>
        <dc:type
           rdf:resource="http://purl.org/dc/dcmitype/StillImage" />
        <dc:title></dc:title>
      </cc:Work>
    </rdf:RDF>
  </metadata>
  <defs
     id="defs3895" />
  <sodipodi:namedview
     pagecolor="#ffffff"
     bordercolor="#666666"
     borderopacity="1"
     objecttolerance="10"
     gridtolerance="10"
     guidetolerance="10"
     inkscape:pageopacity="0"
     inkscape:pageshadow="2"
     inkscape:window-width="2560"
     inkscape:window-height="1312"
     id="namedview3893"
     showgrid="false"
     inkscape:zoom="1.7840477"
     inkscape:cx="-153.57216"
     inkscape:cy="300.26265"
     inkscape:window-x="0"
     inkscape:window-y="54"
     inkscape:window-maximized="1"
     inkscape:current-layer="Layer1004"
     fit-margin-top="10"
     fit-margin-left="10"
     fit-margin-right="10"
     fit-margin-bottom="0" />
  <g
     inkscape:groupmode="layer"
     id="layer1"
     inkscape:label="handle"
     style="display:inline"
     transform="translate(-245.92742,3.8807566)">
    <g
       id="Layer1004"
       transform="matrix(0.5977933,0.80514656,-0.80167169,0.59307589,278.58858,-172.24965)">
      <path
         d="m 279.7775,173.3797 c -0.9673,-0.7294 -23.5224,-17.9106 -23.5224,-17.9106 l 5.1912,-8.7761 1.7397,-1.5115 23.1715,17.4468 z"
         style="fill:#e3cb5d;fill-rule:evenodd;stroke:#b78e36;stroke-width:0.17039999;stroke-linecap:butt;stroke-linejoin:miter;stroke-dasharray:none"
         id="path3874"
         inkscape:connector-curvature="0" />
      <path
         d="m 254.9228,204.3693 53.8549,-71.5158 c 4.6787,-5.823 13.5715,-4.7316 17.0143,-0.296 L 468.4146,286.498 c 2.845,4.8059 -9.1189,29.3325 -23.766,27.0055 L 257.967,219.5994 c -7.5903,-4.1957 -6.6089,-9.7836 -3.0442,-15.2301 z m 183.58107,99.3987 c 11.5508,3.6545 19.49063,-3.47818 18.59743,-15.79708 -0.3396,-4.6831 -11.473,-17.22002 -14.8363,-20.60702 -0.2579,-0.4145 -0.8873,-1.2005 -1.0259,-1.5767 -27.70269,-28.17505 -31.49409,-31.25056 -54.04328,-56.17591 -15.0955,-10.85316 -51.33306,-58.30193 -69.16392,-61.70839 -6.6212,-0.8595 -14.0516,2.6213 -18.1034,7.9256 -1.4121,1.2559 -2.623,2.7424 -3.5685,4.4116 -9.3995,10.42609 -25.57584,29.30588 -27.7086,40.0282 -1.2334,9.5016 5.4697,18.2085 14.9729,19.4401 2.1376,0.2799 20.78095,13.32665 22.61625,13.08575 42.28833,21.18482 54.94865,30.06492 92.02221,49.25685 17.32922,9.99202 22.19104,12.78746 40.24111,21.717 z m 4.26223,-35.8768 c -0.3066,-0.437 -0.6484,-0.8802 -1.0291,-1.3311"
         style="fill:#e3cb5d;fill-rule:evenodd;stroke:#b78e36;stroke-width:1.31879997;stroke-linecap:butt;stroke-linejoin:miter;stroke-dasharray:none"
         id="path3876"
         inkscape:connector-curvature="0"
         sodipodi:nodetypes="cccccccccccccccccccccc" />
      <path
         d="m 281.80935,184.73331 47.5936,16.6902 -30.236,-38.9336 z"
         style="fill:#b83016;fill-rule:evenodd;stroke:#4e0700;stroke-width:0.17039999;stroke-linecap:butt;stroke-linejoin:miter;stroke-dasharray:none"
         id="path3878"
         inkscape:connector-curvature="0" />
      <path
         d="m 161.91299,92.891105 c -6.84948,-7.04175 7.58253,-24.936869 14.19746,-20.760076 l 96.0498,71.231131 c 6.13574,4.8142 -7.64286,24.4426 -15.5234,20.56918 z"
         style="fill:#6d1a12;fill-rule:evenodd;stroke:#2c0000;stroke-width:0.17039999;stroke-linecap:butt;stroke-linejoin:miter;stroke-dasharray:none"
         id="path3880"
         inkscape:connector-curvature="0" />
      <path
         d="m 276.2132,212.3499 c -5.9559,-2.4135 -5.6113,-7.2874 -2.5044,-11.9003 l 36.6806,-48.5954 c 3.9974,-3.8043 10.1864,-2.5522 13.7411,-0.337 l 123.2133,129.16378 c 3.5935,5.7408 -1.14624,18.58748 -11.99054,14.44688 z m -15.094,-8.4146 48.8854,-64.4444 c 3.8759,-5.5892 12.1242,-4.7256 16.8653,0.8424 L 463.55,285.0241 c 1.6981,3.3878 2.1707,7.2917 -0.1278,11.3658 l -8.9257,10.8 c -3.3716,4.0781 -9.6551,2.8119 -14.1936,0.8556 L 264.9918,218.7186 c -8.2793,-3.8563 -7.6387,-10.6584 -3.8726,-14.7833 z"
         style="display:inline;fill:#b83016;fill-rule:evenodd;stroke:#4e0700;stroke-width:0.2236;stroke-linecap:butt;stroke-linejoin:miter;stroke-dasharray:none"
         id="path3882"
         inkscape:connector-curvature="0"
         sodipodi:nodetypes="cccccccccccccccc" />
    </g>
  </g>
</svg>
