<?xml version="1.0" encoding="UTF-8" standalone="no"?>
<!-- Created with Inkscape (http://www.inkscape.org/) -->

<svg
   xmlns:dc="http://purl.org/dc/elements/1.1/"
   xmlns:cc="http://creativecommons.org/ns#"
   xmlns:rdf="http://www.w3.org/1999/02/22-rdf-syntax-ns#"
   xmlns:svg="http://www.w3.org/2000/svg"
   xmlns="http://www.w3.org/2000/svg"
   xmlns:sodipodi="http://sodipodi.sourceforge.net/DTD/sodipodi-0.dtd"
   xmlns:inkscape="http://www.inkscape.org/namespaces/inkscape"
   width="128"
   height="256"
   viewBox="0 0 128 256"
   version="1.1"
   id="svg784"
   inkscape:version="0.92.4 (5da689c313, 2019-01-14)"
   sodipodi:docname="capacitor.svg">
  <defs
     id="defs778">
    <clipPath
       clipPathUnits="userSpaceOnUse"
       id="clipPath109">
      <path
         d="M 0,378.3 H 186.15 V 0 H 0 Z"
         id="path107"
         inkscape:connector-curvature="0" />
    </clipPath>
  </defs>
  <sodipodi:namedview
     id="base"
     pagecolor="#ffffff"
     bordercolor="#666666"
     borderopacity="1.0"
     inkscape:pageopacity="0.0"
     inkscape:pageshadow="2"
     inkscape:zoom="1.979899"
     inkscape:cx="-52.657385"
     inkscape:cy="-116.70792"
     inkscape:document-units="px"
     inkscape:current-layer="layer1"
     showgrid="false"
     fit-margin-top="0"
     fit-margin-left="0"
     fit-margin-right="0"
     fit-margin-bottom="0"
     inkscape:window-width="2560"
     inkscape:window-height="1312"
     inkscape:window-x="0"
     inkscape:window-y="54"
     inkscape:window-maximized="1"
     units="px" />
  <metadata
     id="metadata781">
    <rdf:RDF>
      <cc:Work
         rdf:about="">
        <dc:format>image/svg+xml</dc:format>
        <dc:type
           rdf:resource="http://purl.org/dc/dcmitype/StillImage" />
        <dc:title></dc:title>
      </cc:Work>
    </rdf:RDF>
  </metadata>
  <g
     inkscape:label="Layer 1"
     inkscape:groupmode="layer"
     id="layer1"
     transform="translate(-47.833643,123.85614)">
    <g
       id="g101"
       transform="matrix(0.68761751,0,0,0.6767116,47.833643,-123.85614)">
      <g
         id="g103">
        <g
           id="g105"
           clip-path="url(#clipPath109)">
          <g
             id="g111"
             transform="translate(168.7998,61.8999)">
            <path
               d="m 0,0 c 0.067,0 0.167,0.033 0.3,0.1 h 0.15 c 4.167,0.733 7.817,2.683 10.95,5.85 3.167,3.133 5.15,6.833 5.95,11.1 v 0.15 219.6 0.2 c -0.433,4.733 -2.416,8.85 -5.95,12.35 -3.866,3.834 -8.466,5.85 -13.8,6.05 h -19.3 v 18.75 c 0,0.9 -0.067,1.733 -0.2,2.5 -0.666,4.267 -2.983,6.917 -6.95,7.95 v 24.35 c 0,0.333 -0.116,0.65 -0.35,0.95 -0.3,0.267 -0.633,0.4 -1,0.4 h -1.35 v 4.75 c 0,0.367 -0.117,0.7 -0.35,1 -0.3,0.233 -0.633,0.35 -1,0.35 h -16.85 c -0.367,0 -0.667,-0.117 -0.9,-0.35 L -56.7,310 h -3.25 c -0.333,0 -0.633,-0.117 -0.9,-0.35 l -3.05,-3.05 c -0.3,-0.3 -0.45,-0.633 -0.45,-1 v -21 c -2.4,-0.666 -4.167,-1.9 -5.3,-3.7 -0.666,-0.966 -1.117,-2.05 -1.35,-3.25 v 0.1 c -0.2,-0.5 -0.316,-0.983 -0.35,-1.45 -0.067,-0.733 -0.1,-1.45 -0.1,-2.15 V 255.4 h -13.9 v 19 c 0,4.5 -2.25,6.75 -6.75,6.75 h -35.15 c -4.5,0 -6.75,-2.25 -6.75,-6.75 v -6.05 h -1.2 c -0.967,-0.067 -1.8,-0.333 -2.5,-0.8 -0.8,-0.533 -1.433,-1.217 -1.9,-2.05 v -0.1 c -0.3,-0.6 -0.517,-1.267 -0.65,-2 h -0.1 c -0.033,-0.466 -0.05,-0.95 -0.05,-1.45 v -23.7 c 0.033,-2.566 0.834,-4.3 2.4,-5.2 0,-0.067 0.034,-0.1 0.1,-0.1 0.067,-0.133 0.15,-0.233 0.25,-0.3 0.667,-0.333 1.45,-0.6 2.35,-0.8 h 0.2 1.1 v -5.95 c 0,-4.5 2.25,-6.75 6.75,-6.75 h 7 v -6.4 h -0.35 c -1.933,0.233 -3.283,-0.1 -4.05,-1 -0.733,-0.6 -1.1,-1.467 -1.1,-2.6 h -4.75 c -2.1,0 -3.7,-0.517 -4.8,-1.55 -0.367,-0.233 -0.6,-0.5 -0.7,-0.8 v -0.1 c -0.833,-1.067 -1.25,-2.5 -1.25,-4.3 v -0.1 c -0.6,-0.2 -1.15,-0.45 -1.65,-0.75 -1,-0.633 -1.717,-1.567 -2.15,-2.8 h -3 c -2.633,0 -4.467,-0.8 -5.5,-2.4 -0.4,-0.5 -0.7,-1.05 -0.9,-1.65 h -2.85 v 1.1 c 0,0.367 -0.133,0.7 -0.4,1 -0.3,0.233 -0.616,0.35 -0.95,0.35 h -2.25 c -1.633,0 -2.783,-0.45 -3.45,-1.35 -0.733,-0.767 -1.1,-1.817 -1.1,-3.15 v -1.25 h -6 c -0.366,0 -0.667,-0.133 -0.9,-0.4 -0.3,-0.3 -0.45,-0.617 -0.45,-0.95 V 66 c 0,-0.367 0.15,-0.667 0.45,-0.9 0.233,-0.3 0.534,-0.45 0.9,-0.45 h 6 V 63.4 c 0,-1.333 0.367,-2.367 1.1,-3.1 v -0.1 c 0.667,-0.9 1.817,-1.35 3.45,-1.35 h 2.25 c 0.334,0 0.65,0.15 0.95,0.45 0.267,0.267 0.4,0.567 0.4,0.9 v 1.1 h 2.85 c 0.2,-0.6 0.5,-1.116 0.9,-1.55 1.033,-1.667 2.867,-2.5 5.5,-2.5 h 3 c 0.433,-1.2 1.15,-2.1 2.15,-2.7 0.5,-0.366 1.05,-0.616 1.65,-0.75 v -0.15 c 0,-1.8 0.417,-3.25 1.25,-4.35 v -0.1 c 0.1,-0.3 0.333,-0.533 0.7,-0.7 1.1,-1.066 2.7,-1.6 4.8,-1.6 h 4.75 c 0,-1.167 0.367,-2.017 1.1,-2.55 0.767,-0.967 2.117,-1.333 4.05,-1.1 h 0.35 v -6.4 h -7 c -4.5,0 -6.75,-2.25 -6.75,-6.75 v -5.95 h -1.1 -0.2 c -0.9,-0.167 -1.683,-0.433 -2.35,-0.8 -0.1,-0.067 -0.183,-0.133 -0.25,-0.2 L -138,23.1 c -1.566,-0.967 -2.367,-2.717 -2.4,-5.25 v -23.8 c 0,-0.467 0.017,-0.917 0.05,-1.35 l 0.1,-0.1 c 0.133,-0.7 0.35,-1.35 0.65,-1.95 v -0.1 c 0.467,-0.833 1.1,-1.5 1.9,-2 0.7,-0.533 1.533,-0.833 2.5,-0.9 h 1.2 v -6.05 c 0,-4.5 2.25,-6.75 6.75,-6.75 h 35.15 c 4.5,0 6.75,2.25 6.75,6.75 v 18.3 h 13.9 V -19 c 0,-0.566 0.033,-1.117 0.1,-1.65 0,-0.367 0.05,-0.717 0.15,-1.05 l -0.1,0.05 c 0.3,-1.666 0.85,-3.05 1.65,-4.15 1.067,-1.833 2.834,-3.033 5.3,-3.6 v -21.7 c 0,-0.367 0.15,-0.667 0.45,-0.9 l 3.05,-3.05 c 0.267,-0.3 0.567,-0.45 0.9,-0.45 h 3.25 l 5.95,-5.95 c 0.3,-0.3 0.633,-0.45 1,-0.45 h 16.85 c 0.367,0 0.7,0.15 1,0.45 0.233,0.233 0.35,0.533 0.35,0.9 v 4.75 h 1.35 c 0.367,0 0.7,0.15 1,0.45 0.234,0.233 0.35,0.534 0.35,0.9 v 25.05 c 4.767,1.1 7.15,4.567 7.15,10.4 v 18.9 l 19.2,-0.05 c 0.833,0 1.667,0.05 2.5,0.15 m -85.35,26.85 v 0.4 2.85 c 0,3.6 -1.433,5.8 -4.3,6.6 v 6.55 H -83 c 4.5,0 6.75,2.267 6.75,6.8 v 14.5 c 0.833,-0.233 1.7,-0.383 2.6,-0.45 0.267,-0.067 0.567,-0.1 0.9,-0.1 h 1.3 V 54 c 0,-2.833 0.6,-5.083 1.8,-6.75 1.434,-2.333 3.917,-3.633 7.45,-3.9 v -9 c -1.3,-0.133 -2.433,-0.367 -3.4,-0.7 h -0.1 c -0.133,-0.067 -0.25,-0.133 -0.35,-0.2 -0.233,-0.133 -0.483,-0.25 -0.75,-0.35 L -66.95,33 c -0.366,-0.233 -0.733,-0.467 -1.1,-0.7 -0.1,-0.067 -0.15,-0.133 -0.15,-0.2 L -68.3,32 c -0.367,-0.233 -0.666,-0.533 -0.9,-0.9 l 0.1,0.1 C -70,30.167 -70.6,29 -70.9,27.7 v -0.1 c -0.066,-0.233 -0.133,-0.483 -0.2,-0.75 z m 58.25,6.6 c -1.167,0.467 -2.5,0.767 -4,0.9 v 9 c 6.267,0.433 9.4,3.983 9.4,10.65 v 6.5 h 6.1 V 30.85 c 0.067,-1.333 -0.167,-2.333 -0.7,-3 -0.6,-0.6 -1.567,-0.933 -2.9,-1 H -22 c -0.633,3.267 -2.333,5.467 -5.1,6.6 m -72.85,3.4 h -9.9 v 6.4 h 9.9 z m 27.4,70.5 h 3.9 c 0.467,-0.533 1.067,-0.983 1.8,-1.35 -0.366,-0.167 -0.667,-0.35 -0.9,-0.55 h -5.05 c -1.2,-0.033 -2.35,-0.2 -3.45,-0.5 v 2.95 c 1.2,-0.367 2.434,-0.55 3.7,-0.55 m 50.85,-18 v 7.4 c 0,4.6 -1.5,7.684 -4.5,9.25 2.5,1.4 3.967,3.867 4.4,7.4 h 6.2 V 89.35 Z m -0.1,67.35 c 0.067,0.6 0.1,1.25 0.1,1.95 v 6.5 h 6.1 v -22.9 h -6.2 c -0.433,3.434 -1.867,5.8 -4.3,7.1 2.433,1.4 3.867,3.817 4.3,7.25 z m -54.25,-6.35 c 0.6,-0.166 1.234,-0.283 1.9,-0.35 0.533,-0.066 1.067,-0.1 1.6,-0.1 0.3,0 0.633,0.034 1,0.1 l 3.85,-0.2 c 0.267,-0.167 0.517,-0.317 0.75,-0.45 -0.3,-0.166 -0.567,-0.333 -0.8,-0.5 h -5.05 c -1.2,-0.067 -2.317,-0.217 -3.35,-0.45 z m 2.6,41.05 h -0.1 c -0.9,-0.067 -1.8,-0.216 -2.7,-0.45 V 206 c 0,4.5 -2.25,6.75 -6.75,6.75 h -6.65 v 6.65 c 2.867,0.733 4.3,2.9 4.3,6.5 v 2.55 h 14.25 v -0.2 c 0.3,-1.733 0.967,-3.183 2,-4.35 h 0.05 c 0.133,-0.167 0.267,-0.317 0.4,-0.45 0.1,-0.167 0.25,-0.317 0.45,-0.45 0.533,-0.467 1.134,-0.816 1.8,-1.05 0.1,-0.067 0.217,-0.133 0.35,-0.2 1.067,-0.533 2.35,-0.833 3.85,-0.9 v -8.75 c -3.533,-0.3 -6.016,-1.617 -7.45,-3.95 v 0.1 c -1.2,-1.767 -1.8,-4.05 -1.8,-6.85 v -10 h -1.1 z m 57.85,2.6 h -6.1 v 7.4 c 0,6.667 -3.133,10.233 -9.4,10.7 v 8.75 c 1.5,0.067 2.833,0.334 4,0.8 2.8,1.167 4.5,3.433 5.1,6.8 l 4.7,-0.1 c 1.267,-0.2 1.834,-1.067 1.7,-2.6 z m -94.25,25.15 h 9.9 v -6.4 h -9.9 z"
               style="fill:#e2e2e2;fill-opacity:1;fill-rule:evenodd;stroke:none"
               id="path113"
               inkscape:connector-curvature="0" />
          </g>
          <path
             d="m 53,274.65 h -1.75 v 6.4 H 53 Z m 3.25,0 H 53.9 v 6.4 h 2.35 z m 2.7,6.4 h 9.9 v -6.4 h -9.9 z m -9.05,2.7 H 49.55 49.2 46.15 c -1.167,0.767 -1.75,2.117 -1.75,4.05 v 42.55 H 80.75 V 317.3 h -3.9 c -2.8,-0.2 -5.167,-1.583 -7.1,-4.15 -1.967,-2.6 -2.95,-5.733 -2.95,-9.4 0,-3.667 0.983,-6.783 2.95,-9.35 v 0.1 c 2,-2.767 4.4,-4.15 7.2,-4.15 h 3.8 v -2.55 c 0,-2.4 -1.05,-3.75 -3.15,-4.05 -0.133,0 -0.25,-0.033 -0.35,-0.1 -0.2,0.067 -0.383,0.1 -0.55,0.1 z m -5.2,0 h -3.15 c -2.7,0 -4.05,1.35 -4.05,4.05 v 48.5 c 0,2.7 1.35,4.05 4.05,4.05 h 3.15 c -0.8,-0.967 -1.2,-2.317 -1.2,-4.05 v -48.5 c 0,-1.733 0.4,-3.083 1.2,-4.05 m 26.85,-2.7 h 4.85 v -6.4 h -4.85 z m 6.95,12 h -1.55 c -1.967,0.033 -3.65,1.017 -5.05,2.95 -1.6,2.1 -2.4,4.683 -2.4,7.75 0,3.067 0.8,5.65 2.4,7.75 1.467,1.867 3.183,2.9 5.15,3.1 h 1.65 c -0.667,-0.567 -1.3,-1.233 -1.9,-2 -1.867,-2.4 -2.8,-5.35 -2.8,-8.85 0,-3.467 0.933,-6.4 2.8,-8.8 0.533,-0.733 1.1,-1.367 1.7,-1.9 M 44.4,336.3 c 0,1.933 0.55,3.283 1.65,4.05 H 76.7 c 2.7,0 4.05,-1.35 4.05,-4.05 v -5.05 H 44.4 Z M 32.35,297.1 c -0.8,0.6 -1.217,1.65 -1.25,3.15 v 23.6 c 0,0.367 0.017,0.7 0.05,1 v -0.1 c 0.067,0.5 0.2,0.95 0.4,1.35 l 0.05,0.1 c 0.2,0.367 0.5,0.667 0.9,0.9 L 32.45,327 v -0.05 c -0.3,-0.567 -0.517,-1.167 -0.65,-1.8 -0.067,-0.367 -0.1,-0.8 -0.1,-1.3 v -23.7 c 0.067,-1.3 0.333,-2.367 0.8,-3.2 -0.033,0.033 -0.083,0.083 -0.15,0.15 m 104,46.95 c 0.733,0 1.433,-0.033 2.1,-0.1 3.367,-0.533 5.283,-2.45 5.75,-5.75 0.133,-0.667 0.2,-1.383 0.2,-2.15 v -9.65 h -37.05 v 9.65 0.6 c 0.1,3.733 1.533,6.2 4.3,7.4 h 24.25 0.3 z m -17.75,2.7 h -5.5 v 22.55 c 0.2,0.067 0.383,0.183 0.55,0.35 l 4.95,4.95 z m 0.9,4.05 h 15.05 v -4.05 H 119.5 Z m -11.55,-4.05 h -0.8 v 20.2 l 1.25,1.25 v -21.55 c -0.1,0.067 -0.25,0.1 -0.45,0.1 m 1.35,22.35 0.1,0.1 h 2.8 v -22.45 h -2.9 z m 10.2,-8.55 h 15.05 V 351.7 H 119.5 Z m 0,14.95 0.1,0.1 h 14.95 V 361.45 H 119.5 Z M 169.45,300 c 0,-0.5 -0.15,-0.9 -0.45,-1.2 -0.433,-0.433 -0.883,-0.65 -1.35,-0.65 -0.467,0 -0.883,0.183 -1.25,0.55 -0.367,0.367 -0.55,0.8 -0.55,1.3 0,0.4 0.15,0.783 0.45,1.15 l 0.1,0.1 c 0.367,0.367 0.783,0.55 1.25,0.55 0.467,0 0.85,-0.183 1.15,-0.55 l 0.1,-0.1 c 0.367,-0.3 0.55,-0.683 0.55,-1.15 m -135.4,-3.55 c -0.9,0.733 -1.383,1.967 -1.45,3.7 v 23.7 c 0,0.367 0.033,0.733 0.1,1.1 0.133,0.533 0.317,1.067 0.55,1.6 0.167,0.367 0.433,0.7 0.8,1 h 0.75 v -31.1 z M 149.35,178 h -1.7 c -0.567,0.3 -1.083,0.7 -1.55,1.2 -0.467,0.4 -0.95,0.9 -1.45,1.5 -1.8,2.467 -2.7,5.483 -2.7,9.05 0,3.467 0.9,6.433 2.7,8.9 0.5,0.6 0.983,1.15 1.45,1.65 0.533,0.467 1.1,0.85 1.7,1.15 h 1.75 c -0.8,-0.6 -1.567,-1.35 -2.3,-2.25 -0.767,-1.1 -1.383,-2.3 -1.85,-3.6 -0.667,-1.8 -1,-3.75 -1,-5.85 0,-2.167 0.333,-4.1 1,-5.8 0.467,-1.367 1.083,-2.633 1.85,-3.8 0.667,-0.833 1.367,-1.55 2.1,-2.15 m -1.35,2.7 c -0.8,1.033 -1.4,2.217 -1.8,3.55 -0.6,1.6 -0.9,3.433 -0.9,5.5 0,1.967 0.3,3.817 0.9,5.55 v -0.05 c 0.4,1.2 1,2.333 1.8,3.4 0.967,1.267 2.05,2.2 3.25,2.8 h 1.6 c -0.767,-0.6 -1.483,-1.35 -2.15,-2.25 -1.933,-2.6 -2.9,-5.75 -2.9,-9.45 0,-3.8 0.967,-7 2.9,-9.6 0.667,-0.833 1.35,-1.55 2.05,-2.15 h -1.8 c -1.067,0.6 -2.05,1.5 -2.95,2.7 m -1,37.9 c 0.067,0.6 0.1,1.25 0.1,1.95 v 6.5 h 6.1 v -22.9 H 147 c -0.433,3.433 -1.867,5.8 -4.3,7.1 2.433,1.4 3.867,3.817 4.3,7.25 z m -7.65,11.4 c -1.567,0.433 -2.917,1.433 -4.05,3 -1.767,2.267 -2.65,5.083 -2.65,8.45 0,3.333 0.883,6.133 2.65,8.4 1.133,1.567 2.483,2.583 4.05,3.05 -0.667,-0.533 -1.267,-1.183 -1.8,-1.95 -1.933,-2.6 -2.9,-5.767 -2.9,-9.5 0,-3.767 0.967,-6.95 2.9,-9.55 0.533,-0.7 1.133,-1.333 1.8,-1.9 m 1.8,-0.25 c -1.033,0.6 -2,1.5 -2.9,2.7 -1.8,2.467 -2.7,5.467 -2.7,9 0,3.5 0.9,6.483 2.7,8.95 0.967,1.267 2.017,2.2 3.15,2.8 h 1.65 c -0.8,-0.6 -1.533,-1.35 -2.2,-2.25 -1.967,-2.6 -2.95,-5.767 -2.95,-9.5 0,-3.767 0.983,-6.95 2.95,-9.55 0.633,-0.833 1.3,-1.55 2,-2.15 z m 0.45,2.7 c -1.867,2.467 -2.8,5.467 -2.8,9 0,3.5 0.933,6.483 2.8,8.95 0.9,1.2 1.917,2.133 3.05,2.8 h 1.55 c -0.3,-0.2 -0.55,-0.383 -0.75,-0.55 -0.533,-0.533 -1.033,-1.1 -1.5,-1.7 -1.933,-2.6 -2.9,-5.767 -2.9,-9.5 0,-3.767 0.967,-6.95 2.9,-9.55 0.467,-0.6 0.967,-1.133 1.5,-1.6 l 0.55,-0.55 h -1.45 c -1.067,0.6 -2.05,1.5 -2.95,2.7 m 9.35,-2.7 c -1.067,0.6 -2.05,1.5 -2.95,2.7 -0.8,1.033 -1.4,2.2 -1.8,3.5 -0.6,1.633 -0.9,3.467 -0.9,5.5 0,2 0.3,3.867 0.9,5.6 v -0.1 c 0.4,1.2 1,2.35 1.8,3.45 0.967,1.267 2.05,2.2 3.25,2.8 h 1.6 c -0.767,-0.6 -1.483,-1.35 -2.15,-2.25 -1.933,-2.6 -2.9,-5.767 -2.9,-9.5 0,-3.767 0.967,-6.95 2.9,-9.55 0.667,-0.833 1.35,-1.55 2.05,-2.15 z m -3.3,0 c -0.567,0.3 -1.083,0.7 -1.55,1.2 -0.467,0.4 -0.95,0.9 -1.45,1.5 -1.8,2.467 -2.7,5.467 -2.7,9 0,3.5 0.9,6.483 2.7,8.95 0.5,0.6 0.983,1.133 1.45,1.6 0.533,0.5 1.1,0.9 1.7,1.2 h 1.75 c -0.8,-0.6 -1.567,-1.35 -2.3,-2.25 -0.767,-1.1 -1.383,-2.3 -1.85,-3.6 -0.667,-1.8 -1,-3.767 -1,-5.9 0,-2.133 0.333,-4.05 1,-5.75 0.467,-1.367 1.083,-2.633 1.85,-3.8 0.667,-0.833 1.367,-1.55 2.1,-2.15 z m -37.95,-17.1 h -1.75 -0.15 -0.2 c -1.433,0 -2.633,0.2 -3.6,0.6 -0.167,0.133 -0.35,0.2 -0.55,0.2 -0.233,0.1 -0.467,0.283 -0.7,0.55 -0.067,0 -0.167,0.017 -0.3,0.05 v 0.1 c -0.033,0 -0.05,0.033 -0.05,0.1 -0.267,0.133 -0.45,0.317 -0.55,0.55 -0.067,0 -0.1,0.033 -0.1,0.1 -1.133,1.3 -1.7,3.183 -1.7,5.65 v 42.75 c 0,2.2 0.45,3.967 1.35,5.3 1.2,1.8 3.383,2.7 6.55,2.7 h 1.8 c -2.1,-1.5 -3.2,-3.967 -3.3,-7.4 v -0.6 -42.75 c 0,-0.4 0.033,-0.85 0.1,-1.35 0.167,-3 1.217,-5.183 3.15,-6.55 M 84.55,215.6 H 82.8 c -1.2,0.767 -2.267,1.783 -3.2,3.05 v 0.1 c -0.133,0.067 -0.267,0.183 -0.4,0.35 -2.767,3.733 -4.15,8.217 -4.15,13.45 0,5.233 1.383,9.717 4.15,13.45 0.133,0.167 0.267,0.317 0.4,0.45 1,1.233 2.1,2.25 3.3,3.05 h 1.7 c -0.9,-0.733 -1.7,-1.55 -2.4,-2.45 l -0.1,-0.1 c -0.133,-0.1 -0.25,-0.25 -0.35,-0.45 -2.9,-3.833 -4.35,-8.483 -4.35,-13.95 0,-5.467 1.45,-10.117 4.35,-13.95 0.1,-0.2 0.217,-0.367 0.35,-0.5 h 0.1 c 0.7,-0.933 1.483,-1.767 2.35,-2.5 m 1.15,2.5 h 0.1 c 0.733,-0.933 1.517,-1.767 2.35,-2.5 h -2.1 c -1.2,0.767 -2.283,1.783 -3.25,3.05 v 0.1 c -0.1,0.067 -0.217,0.183 -0.35,0.35 -2.767,3.733 -4.15,8.217 -4.15,13.45 0,5.233 1.383,9.717 4.15,13.45 0.133,0.167 0.25,0.317 0.35,0.45 1.033,1.233 2.15,2.25 3.35,3.05 h 2.1 c -0.9,-0.733 -1.717,-1.55 -2.45,-2.45 l -0.1,-0.1 c -0.1,-0.1 -0.217,-0.25 -0.35,-0.45 -2.9,-3.833 -4.35,-8.483 -4.35,-13.95 0,-5.467 1.45,-10.117 4.35,-13.95 0.133,-0.2 0.25,-0.367 0.35,-0.5 m 0.75,0.55 v 0.1 c -0.133,0.067 -0.267,0.183 -0.4,0.35 -2.767,3.733 -4.15,8.217 -4.15,13.45 0,5.233 1.383,9.717 4.15,13.45 0.133,0.167 0.267,0.317 0.4,0.45 1,1.233 2.1,2.25 3.3,3.05 h 1.45 c 0.2,0 0.383,0.067 0.55,0.2 1.2,0.467 2.433,0.767 3.7,0.9 h 0.8 1.1 v -30.05 c 0,-2.4 0.45,-4.383 1.35,-5.95 H 97.25 96.9 c -0.2,-0.067 -0.417,-0.1 -0.65,-0.1 -0.433,0 -0.85,0.033 -1.25,0.1 -1.033,0.133 -2,0.383 -2.9,0.75 -0.3,0.233 -0.6,0.317 -0.9,0.25 h -1.55 c -1.2,0.767 -2.267,1.783 -3.2,3.05 m 10.8,-6.75 3.85,-0.2 c 0.267,-0.167 0.517,-0.317 0.75,-0.45 -0.3,-0.167 -0.567,-0.333 -0.8,-0.5 H 96 c -1.2,-0.067 -2.317,-0.217 -3.35,-0.45 l 0.1,1.95 c 0.6,-0.167 1.233,-0.283 1.9,-0.35 0.533,-0.067 1.067,-0.1 1.6,-0.1 0.3,0 0.633,0.033 1,0.1 m -1.9,41.4 h -0.1 c -0.9,-0.067 -1.8,-0.217 -2.7,-0.45 v 15.05 c 0,4.5 -2.25,6.75 -6.75,6.75 h -6.65 v 6.65 c 2.867,0.733 4.3,2.9 4.3,6.5 v 2.55 H 97.7 v -0.2 c 0.3,-1.733 0.967,-3.183 2,-4.35 h 0.05 c 0.133,-0.167 0.267,-0.317 0.4,-0.45 0.1,-0.167 0.25,-0.317 0.45,-0.45 0.533,-0.467 1.133,-0.817 1.8,-1.05 0.1,-0.067 0.217,-0.133 0.35,-0.2 1.067,-0.533 2.35,-0.833 3.85,-0.9 V 274 c -3.533,-0.3 -6.017,-1.617 -7.45,-3.95 v 0.1 c -1.2,-1.767 -1.8,-4.05 -1.8,-6.85 v -10 h -1.1 z M 83.1,294.95 c 0.533,-0.733 1.133,-1.367 1.8,-1.9 h -4.8 c -0.933,0.533 -1.8,1.333 -2.6,2.4 -1.733,2.3 -2.6,5.067 -2.6,8.3 0,3.267 0.867,6.033 2.6,8.3 0.833,1.1 1.8,1.95 2.9,2.55 h 4.7 c -0.733,-0.567 -1.4,-1.233 -2,-2 -1.8,-2.4 -2.7,-5.35 -2.7,-8.85 0,-3.467 0.9,-6.4 2.7,-8.8 m 3.35,-1.9 c -0.9,0.533 -1.783,1.333 -2.65,2.4 -1.667,2.3 -2.5,5.067 -2.5,8.3 0,3.267 0.833,6.033 2.5,8.3 0.867,1.1 1.833,1.95 2.9,2.55 h 10.65 v -21.3 -0.25 z m 13.95,-2.45 -0.1,0.2 c -0.067,0.233 -0.117,0.533 -0.15,0.9 v 0.15 c -0.067,0.5 -0.1,0.983 -0.1,1.45 v 42.75 c 0,0.6 0.033,1.2 0.1,1.8 0.033,0.367 0.083,0.7 0.15,1 l 0.1,0.05 c 0.167,0.9 0.5,1.717 1,2.45 0.967,1.367 2.533,2.233 4.7,2.6 h 0.05 c 0.567,0.067 1.167,0.1 1.8,0.1 0.2,0 0.35,0.033 0.45,0.1 0.133,-0.067 0.283,-0.1 0.45,-0.1 h 0.9 c -2.1,-1.5 -3.2,-3.967 -3.3,-7.4 v -0.6 -42.75 c 0,-0.433 0.033,-0.883 0.1,-1.35 0.167,-3 1.217,-5.2 3.15,-6.6 h -1.9 c -1.567,0 -2.883,0.25 -3.95,0.75 h 0.05 c -0.1,0.067 -0.217,0.117 -0.35,0.15 h -0.1 c -0.4,0.2 -0.75,0.45 -1.05,0.75 -0.067,0 -0.1,0.033 -0.1,0.1 -0.067,0 -0.1,0.017 -0.1,0.05 -0.167,0.2 -0.35,0.383 -0.55,0.55 l 0.1,-0.05 c -0.733,0.767 -1.183,1.75 -1.35,2.95 m 15.75,-7.95 H 130.7 V 274 h -14.55 z m -0.9,-8.65 h -5.95 v 8.65 h 5.95 z m -7.8,18.05 c -0.067,0.4 -0.1,0.817 -0.1,1.25 v 32.2 h 37.05 v -8.2 h -19.3 c -2.833,-0.2 -5.2,-1.583 -7.1,-4.15 -2,-2.6 -3,-5.733 -3,-9.4 0,-3.667 1,-6.783 3,-9.35 v 0.1 c 1.967,-2.767 4.367,-4.15 7.2,-4.15 h 18.9 c -0.533,-2.067 -1.667,-3.483 -3.4,-4.25 h -0.1 c -1.067,-0.5 -2.383,-0.75 -3.95,-0.75 h -0.1 -0.2 -24.85 c -2.467,1.167 -3.817,3.4 -4.05,6.7 M 147.1,255.9 v 7.4 c 0,6.667 -3.133,10.233 -9.4,10.7 v 8.75 c 1.5,0.067 2.833,0.333 4,0.8 2.8,1.167 4.5,3.433 5.1,6.8 l 4.7,-0.1 c 1.267,-0.2 1.833,-1.067 1.7,-2.6 V 255.9 Z M 135,274 h -3.4 v 8.65 h 3.4 z m -3.7,19.05 c -0.933,0.533 -1.8,1.333 -2.6,2.4 -1.667,2.3 -2.5,5.067 -2.5,8.3 0,3.267 0.833,6.033 2.5,8.3 0.833,1.1 1.767,1.95 2.8,2.55 h 1.8 c -0.733,-0.567 -1.4,-1.233 -2,-2 -1.8,-2.4 -2.7,-5.35 -2.7,-8.85 0,-3.467 0.9,-6.4 2.7,-8.8 0.6,-0.8 1.2,-1.433 1.8,-1.9 z m -9.55,1.9 c 0.367,-0.567 0.767,-1.017 1.2,-1.35 -1.033,0.467 -1.967,1.267 -2.8,2.4 -1.633,2.1 -2.45,4.683 -2.45,7.75 0,3.067 0.817,5.65 2.45,7.75 0.833,1.1 1.767,1.917 2.8,2.45 -0.433,-0.433 -0.833,-0.883 -1.2,-1.35 -1.8,-2.4 -2.7,-5.35 -2.7,-8.85 0,-3.467 0.9,-6.4 2.7,-8.8 m 3.25,0 c 0.533,-0.733 1.133,-1.367 1.8,-1.9 h -1.7 c -0.967,0.533 -1.833,1.333 -2.6,2.4 -1.7,2.3 -2.55,5.067 -2.55,8.3 0,3.267 0.85,6.033 2.55,8.3 0.833,1.1 1.783,1.95 2.85,2.55 h 1.55 c -0.667,-0.567 -1.3,-1.233 -1.9,-2 -1.867,-2.4 -2.8,-5.35 -2.8,-8.85 0,-3.467 0.933,-6.4 2.8,-8.8 m 4.8,-1.9 h -1.45 c -0.967,0.533 -1.833,1.333 -2.6,2.4 -1.767,2.3 -2.65,5.067 -2.65,8.3 0,3.267 0.883,6.033 2.65,8.3 0.833,1.1 1.783,1.95 2.85,2.55 h 1.3 c -0.667,-0.567 -1.3,-1.233 -1.9,-2 -1.8,-2.4 -2.7,-5.35 -2.7,-8.85 0,-3.467 0.9,-6.4 2.7,-8.8 0.533,-0.8 1.133,-1.433 1.8,-1.9 m 4.75,1.9 c 0.567,-0.8 1.167,-1.433 1.8,-1.9 h -1.6 c -0.967,0.533 -1.867,1.333 -2.7,2.4 -1.7,2.3 -2.55,5.067 -2.55,8.3 0,3.267 0.85,6.033 2.55,8.3 0.833,1.1 1.783,1.95 2.85,2.55 h 1.55 c -0.667,-0.567 -1.3,-1.233 -1.9,-2 -1.733,-2.333 -2.633,-5.167 -2.7,-8.5 v -0.35 c 0,-3.467 0.9,-6.4 2.7,-8.8 m -60,-76.85 v -0.05 c 0.1,-0.2 0.25,-0.35 0.45,-0.45 0.9,-1.2 1.917,-2.233 3.05,-3.1 H 75.8 c -3.6,0.067 -6.667,1.783 -9.2,5.15 -2.633,3.567 -3.95,7.867 -3.95,12.9 0,5.033 1.317,9.333 3.95,12.9 2.533,3.367 5.6,5.083 9.2,5.15 h 2.25 c -1.133,-0.867 -2.15,-1.867 -3.05,-3 -0.2,-0.167 -0.35,-0.35 -0.45,-0.55 -3.033,-4.033 -4.55,-8.867 -4.55,-14.5 0,-5.667 1.517,-10.483 4.55,-14.45 m 4.3,0 h 0.1 c 0.667,-0.9 1.383,-1.667 2.15,-2.3 -1.5,0.767 -2.85,1.933 -4.05,3.5 -0.067,0 -0.1,0.033 -0.1,0.1 -0.067,0.067 -0.117,0.15 -0.15,0.25 h -0.1 c -2.633,3.567 -3.95,7.867 -3.95,12.9 0,5.033 1.317,9.333 3.95,12.9 l 0.1,0.1 c 0.033,0.033 0.083,0.117 0.15,0.25 l 0.1,0.1 c 1.2,1.5 2.617,2.667 4.25,3.5 -0.833,-0.667 -1.617,-1.45 -2.35,-2.35 l -0.1,-0.1 c -0.1,-0.1 -0.217,-0.25 -0.35,-0.45 -2.9,-3.833 -4.35,-8.483 -4.35,-13.95 0,-5.467 1.45,-10.117 4.35,-13.95 0.133,-0.2 0.25,-0.367 0.35,-0.5 m 59.95,-28.35 c 0,3.467 0.933,6.433 2.8,8.9 0.9,1.2 1.917,2.133 3.05,2.8 h 1.55 c -0.233,-0.167 -0.483,-0.35 -0.75,-0.55 -0.533,-0.533 -1.033,-1.1 -1.5,-1.7 -1.933,-2.6 -2.9,-5.75 -2.9,-9.45 0,-3.8 0.967,-7 2.9,-9.6 0.467,-0.6 0.967,-1.133 1.5,-1.6 0.2,-0.167 0.383,-0.35 0.55,-0.55 h -1.45 c -1.067,0.6 -2.05,1.5 -2.95,2.7 -1.867,2.467 -2.8,5.483 -2.8,9.05 M 76.05,171.95 H 75.5 c -3.467,0.2 -6.433,1.917 -8.9,5.15 -2.633,3.567 -3.95,7.867 -3.95,12.9 0,1.933 0.2,3.767 0.6,5.5 0.6,2.7 1.717,5.167 3.35,7.4 2.4,3.133 5.283,4.85 8.65,5.15 h 0.35 2.45 c -1.133,-0.867 -2.15,-1.867 -3.05,-3 -0.2,-0.167 -0.35,-0.35 -0.45,-0.55 -1.867,-2.5 -3.133,-5.283 -3.8,-8.35 C 70.25,194.217 70,192.167 70,190 c 0,-5.633 1.517,-10.433 4.55,-14.4 v -0.1 c 0.1,-0.2 0.25,-0.35 0.45,-0.45 0.9,-1.2 1.917,-2.233 3.05,-3.1 z m 3.55,4.25 c -0.133,0.067 -0.267,0.183 -0.4,0.35 -2.767,3.733 -4.15,8.217 -4.15,13.45 0,1.967 0.217,3.867 0.65,5.7 0.667,2.867 1.833,5.45 3.5,7.75 0.133,0.167 0.267,0.317 0.4,0.45 0.933,1.267 2,2.283 3.2,3.05 h 1.75 C 83.683,206.217 82.9,205.4 82.2,204.5 l -0.1,-0.1 c -0.133,-0.1 -0.25,-0.25 -0.35,-0.45 -1.8,-2.4 -3.033,-5.1 -3.7,-8.1 -0.433,-1.8 -0.65,-3.75 -0.65,-5.85 0,-5.467 1.45,-10.117 4.35,-13.95 0.1,-0.2 0.217,-0.35 0.35,-0.45 h 0.1 c 0.7,-0.967 1.5,-1.817 2.4,-2.55 h -1.7 c -1.2,0.767 -2.3,1.783 -3.3,3.05 z m -2.65,0.65 c -0.067,0.067 -0.117,0.15 -0.15,0.25 h -0.1 c -2.633,3.567 -3.95,7.867 -3.95,12.9 0,1.933 0.2,3.767 0.6,5.5 0.6,2.7 1.717,5.167 3.35,7.4 l 0.1,0.1 c 0.033,0.033 0.083,0.117 0.15,0.25 l 0.1,0.1 c 1.2,1.5 2.55,2.633 4.05,3.4 -0.767,-0.633 -1.483,-1.383 -2.15,-2.25 l -0.1,-0.1 c -0.1,-0.1 -0.217,-0.25 -0.35,-0.45 -1.8,-2.4 -3.033,-5.1 -3.7,-8.1 -0.433,-1.8 -0.65,-3.75 -0.65,-5.85 0,-5.467 1.45,-10.117 4.35,-13.95 0.133,-0.2 0.25,-0.35 0.35,-0.45 h 0.1 c 0.733,-0.967 1.517,-1.783 2.35,-2.45 -1.633,0.833 -3.05,2.033 -4.25,3.6 -0.067,0 -0.1,0.033 -0.1,0.1 M 78.3,190 c 0,1.967 0.217,3.867 0.65,5.7 0.667,2.867 1.833,5.45 3.5,7.75 0.133,0.167 0.25,0.317 0.35,0.45 0.967,1.267 2.05,2.283 3.25,3.05 h 2.2 c -0.9,-0.733 -1.717,-1.55 -2.45,-2.45 l -0.1,-0.1 c -0.1,-0.1 -0.217,-0.25 -0.35,-0.45 -1.8,-2.4 -3.033,-5.1 -3.7,-8.1 C 81.217,194.05 81,192.1 81,190 c 0,-5.467 1.45,-10.117 4.35,-13.95 0.133,-0.2 0.25,-0.35 0.35,-0.45 h 0.1 c 0.733,-0.967 1.55,-1.817 2.45,-2.55 h -2.1 c -1.2,0.767 -2.317,1.783 -3.35,3.05 v 0.1 c -0.1,0.067 -0.217,0.183 -0.35,0.35 -2.767,3.733 -4.15,8.217 -4.15,13.45 m 66.1,-67.6 v -6.5 c 0,-5.333 -2.683,-8 -8.05,-8 h -24.7 c -2.767,1.2 -4.2,3.65 -4.3,7.35 v 0.65 42.75 c 0,0.4 0.033,0.85 0.1,1.35 0.233,3.233 1.583,5.417 4.05,6.55 h 4.2 c 0.367,0 0.7,0.15 1,0.45 0.267,0.233 0.4,0.533 0.4,0.9 0,0.367 -0.133,0.7 -0.4,1 -0.3,0.233 -0.633,0.35 -1,0.35 h -4.1 c -2.733,1.2 -4.15,3.667 -4.25,7.4 v 0.65 24.7 c 0,0.4 0.033,0.85 0.1,1.35 0.233,3.233 1.583,5.417 4.05,6.55 h 4.2 c 0.367,0 0.7,0.15 1,0.45 0.267,0.267 0.4,0.567 0.4,0.9 0,0.367 -0.133,0.7 -0.4,1 -0.3,0.267 -0.633,0.4 -1,0.4 h -4.2 c -2.467,1.133 -3.817,3.35 -4.05,6.65 -0.067,0.433 -0.1,0.85 -0.1,1.25 v 42.75 0.6 c 0.1,3.733 1.517,6.2 4.25,7.4 h 24.75 c 5.367,0 8.05,-2.667 8.05,-8 v -7.4 h -3.6 c -3.067,-0.2 -5.633,-1.667 -7.7,-4.4 -2.1,-2.767 -3.15,-6.117 -3.15,-10.05 0,-3.967 1.05,-7.317 3.15,-10.05 2.167,-2.967 4.75,-4.417 7.75,-4.35 h 3.55 v -6.5 c 0,-0.6 -0.033,-1.167 -0.1,-1.7 -0.367,-2.767 -1.6,-4.6 -3.7,-5.5 -1.033,-0.467 -2.267,-0.7 -3.7,-0.7 h -0.1 c -0.333,0 -0.633,-0.133 -0.9,-0.4 -0.3,-0.3 -0.45,-0.633 -0.45,-1 0,-0.333 0.133,-0.633 0.4,-0.9 0.233,-0.3 0.55,-0.45 0.95,-0.45 4.267,-0.1 6.733,-2.017 7.4,-5.75 h -3.4 c -3.067,-0.167 -5.633,-1.633 -7.7,-4.4 -2.1,-2.767 -3.15,-6.1 -3.15,-10 0,-3.967 1.05,-7.333 3.15,-10.1 2.167,-2.967 4.75,-4.417 7.75,-4.35 h 3.45 c -0.667,-3.9 -3.217,-5.917 -7.65,-6.05 -0.433,0 -0.767,-0.117 -1,-0.35 -0.233,-0.3 -0.35,-0.633 -0.35,-1 0,-0.367 0.15,-0.667 0.45,-0.9 0.233,-0.3 0.533,-0.45 0.9,-0.45 h 0.1 c 1.5,0 2.783,-0.233 3.85,-0.7 h 0.1 c 2.467,-1.1 3.7,-3.5 3.7,-7.2 v -7.4 h -3.6 c -3.067,-0.2 -5.633,-1.683 -7.7,-4.45 -2.1,-2.767 -3.15,-6.1 -3.15,-10 0,-3.967 1.05,-7.333 3.15,-10.1 2.167,-2.933 4.75,-4.367 7.75,-4.3 z m -3.25,2.7 c -1.033,0.6 -2,1.5 -2.9,2.7 -1.8,2.467 -2.7,5.467 -2.7,9 0,3.5 0.9,6.483 2.7,8.95 0.967,1.267 2.017,2.2 3.15,2.8 h 1.65 c -0.8,-0.6 -1.533,-1.35 -2.2,-2.25 -1.967,-2.6 -2.95,-5.767 -2.95,-9.5 0,-3.767 0.983,-6.95 2.95,-9.55 0.667,-0.833 1.367,-1.55 2.1,-2.15 z m -1.8,0.25 c -1.567,0.433 -2.917,1.433 -4.05,3 -1.767,2.267 -2.65,5.083 -2.65,8.45 0,3.3 0.883,6.1 2.65,8.4 1.133,1.567 2.483,2.583 4.05,3.05 -0.667,-0.533 -1.267,-1.183 -1.8,-1.95 -1.933,-2.6 -2.9,-5.767 -2.9,-9.5 0,-3.767 0.967,-6.95 2.9,-9.55 0.533,-0.7 1.133,-1.333 1.8,-1.9 m -0.55,11.45 c 0,3.5 0.933,6.483 2.8,8.95 0.9,1.2 1.917,2.133 3.05,2.8 h 1.55 c -0.233,-0.2 -0.483,-0.383 -0.75,-0.55 -0.533,-0.533 -1.033,-1.1 -1.5,-1.7 -1.933,-2.6 -2.9,-5.767 -2.9,-9.5 0,-3.767 0.967,-6.95 2.9,-9.55 0.467,-0.6 0.967,-1.133 1.5,-1.6 L 146,125.1 h -1.45 c -1.067,0.6 -2.05,1.5 -2.95,2.7 -1.867,2.467 -2.8,5.467 -2.8,9 m 10.55,-11.7 h -1.7 c -0.567,0.3 -1.083,0.683 -1.55,1.15 -0.467,0.433 -0.95,0.95 -1.45,1.55 -1.8,2.467 -2.7,5.467 -2.7,9 0,3.5 0.9,6.483 2.7,8.95 0.5,0.6 0.983,1.133 1.45,1.6 0.533,0.5 1.1,0.9 1.7,1.2 h 1.75 c -0.8,-0.6 -1.567,-1.35 -2.3,-2.25 -0.767,-1.1 -1.383,-2.317 -1.85,-3.65 -0.667,-1.8 -1,-3.75 -1,-5.85 0,-2.167 0.333,-4.083 1,-5.75 0.467,-1.4 1.083,-2.667 1.85,-3.8 0.667,-0.833 1.367,-1.55 2.1,-2.15 m 1.6,0 c -1.067,0.6 -2.05,1.5 -2.95,2.7 -0.8,1.033 -1.4,2.2 -1.8,3.5 -0.6,1.633 -0.9,3.467 -0.9,5.5 0,2 0.3,3.867 0.9,5.6 v -0.1 c 0.4,1.2 1,2.35 1.8,3.45 0.967,1.267 2.05,2.2 3.25,2.8 h 1.6 c -0.767,-0.6 -1.483,-1.35 -2.15,-2.25 -1.933,-2.6 -2.9,-5.767 -2.9,-9.5 0,-3.767 0.967,-6.95 2.9,-9.55 0.667,-0.833 1.35,-1.55 2.05,-2.15 z M 101.4,110.6 v 0.05 c -0.9,1.267 -1.35,3.017 -1.35,5.25 v 42.75 c 0,2.467 0.567,4.383 1.7,5.75 l 0.45,0.45 c 0.067,0 0.133,0.067 0.2,0.2 0.3,0.233 0.65,0.467 1.05,0.7 h 0.1 c 0.133,0.067 0.25,0.133 0.35,0.2 h -0.05 c 1,0.4 2.217,0.6 3.65,0.6 h 2.2 c -1.933,-1.367 -2.983,-3.533 -3.15,-6.5 -0.067,-0.533 -0.1,-1 -0.1,-1.4 v -42.75 -0.65 c 0.1,-3.4 1.2,-5.85 3.3,-7.35 h -1.8 c -3.167,0 -5.35,0.9 -6.55,2.7 m -5.35,18 c -0.167,0 -0.317,0.033 -0.45,0.1 h -0.25 c -1.267,0.067 -2.433,0.367 -3.5,0.9 -0.233,0.067 -0.45,0.1 -0.65,0.1 h -1.45 c -1.2,0.767 -2.3,1.783 -3.3,3.05 v 0.1 c -0.133,0.067 -0.267,0.183 -0.4,0.35 -2.767,3.733 -4.15,8.217 -4.15,13.45 0,5.233 1.383,9.7 4.15,13.4 0.133,0.2 0.267,0.35 0.4,0.45 0.933,1.267 2,2.3 3.2,3.1 h 1.55 c 0.2,0 0.383,0.05 0.55,0.15 1.333,0.567 2.767,0.867 4.3,0.9 h 2.65 c -0.9,-1.6 -1.35,-3.6 -1.35,-6 V 128.6 Z m -7.8,1.1 h -2.1 c -1.2,0.767 -2.317,1.783 -3.35,3.05 v 0.1 c -0.1,0.067 -0.217,0.183 -0.35,0.35 -2.767,3.733 -4.15,8.217 -4.15,13.45 0,5.233 1.383,9.7 4.15,13.4 0.133,0.2 0.25,0.35 0.35,0.45 0.967,1.267 2.05,2.3 3.25,3.1 h 2.1 c -0.833,-0.733 -1.617,-1.55 -2.35,-2.45 l -0.1,-0.1 c -0.1,-0.1 -0.217,-0.25 -0.35,-0.45 -2.9,-3.833 -4.35,-8.483 -4.35,-13.95 0,-5.467 1.45,-10.133 4.35,-14 0.133,-0.167 0.25,-0.317 0.35,-0.45 h 0.1 c 0.733,-0.933 1.55,-1.767 2.45,-2.5 m 13.5,41.75 c -0.067,0.033 -0.1,0.083 -0.1,0.15 h -0.1 c -0.033,0.067 -0.05,0.167 -0.05,0.3 -0.067,0.033 -0.1,0.083 -0.1,0.15 -0.9,1.267 -1.35,3.017 -1.35,5.25 V 202 c 0,2.467 0.567,4.383 1.7,5.75 0.067,0.067 0.133,0.167 0.2,0.3 0.1,0.033 0.217,0.117 0.35,0.25 l 0.1,0.1 c 0.233,0.167 0.55,0.367 0.95,0.6 0.067,0 0.133,0.033 0.2,0.1 0.067,0.067 0.217,0.133 0.45,0.2 h -0.1 c 1.1,0.367 2.333,0.567 3.7,0.6 h 0.2 0.15 1.75 c -1.933,-1.367 -2.983,-3.517 -3.15,-6.45 -0.067,-0.567 -0.1,-1.05 -0.1,-1.45 v -24.7 -0.65 c 0.1,-3.433 1.2,-5.9 3.3,-7.4 h -2.15 c -1.6,0 -2.95,0.3 -4.05,0.9 -0.667,0.267 -1.2,0.633 -1.6,1.1 z m -9.9,1.5 c -0.233,0.067 -0.45,0.1 -0.65,0.1 h -1.45 c -1.2,0.767 -2.3,1.783 -3.3,3.05 v 0.1 c -0.133,0.067 -0.267,0.183 -0.4,0.35 -2.767,3.733 -4.15,8.217 -4.15,13.45 0,1.967 0.217,3.867 0.65,5.7 0.667,2.867 1.833,5.45 3.5,7.75 0.133,0.167 0.267,0.317 0.4,0.45 0.933,1.267 2,2.283 3.2,3.05 h 1.55 c 0.2,0 0.417,0.067 0.65,0.2 1.267,0.533 2.667,0.833 4.2,0.9 H 98.7 C 97.8,206.417 97.35,204.4 97.35,202 v -24.7 c 0,-2.1 0.333,-3.883 1,-5.35 h -2.1 c -1.633,0 -3.1,0.333 -4.4,1 m 4.4,-3.7 h 3.9 c 0.467,-0.533 1.067,-0.983 1.8,-1.35 -0.367,-0.167 -0.667,-0.35 -0.9,-0.55 H 96 c -1.2,-0.033 -2.35,-0.2 -3.45,-0.5 v 2.95 c 1.2,-0.367 2.433,-0.55 3.7,-0.55 m 50.85,-18 v 7.4 c 0,4.6 -1.5,7.683 -4.5,9.25 2.5,1.4 3.967,3.867 4.4,7.4 h 6.2 V 151.25 Z M 141.15,178 c -1.033,0.6 -2,1.5 -2.9,2.7 -1.8,2.467 -2.7,5.483 -2.7,9.05 0,3.467 0.9,6.433 2.7,8.9 0.967,1.267 2.017,2.2 3.15,2.8 h 1.65 c -0.8,-0.6 -1.533,-1.35 -2.2,-2.25 -1.967,-2.6 -2.95,-5.75 -2.95,-9.45 0,-3.8 0.983,-7 2.95,-9.6 0.633,-0.833 1.3,-1.55 2,-2.15 z m -3.6,2.15 c 0.533,-0.7 1.133,-1.317 1.8,-1.85 -1.567,0.4 -2.917,1.383 -4.05,2.95 -1.767,2.3 -2.65,5.133 -2.65,8.5 0,3.3 0.883,6.083 2.65,8.35 1.133,1.567 2.483,2.6 4.05,3.1 -0.667,-0.567 -1.267,-1.233 -1.8,-2 -1.933,-2.6 -2.9,-5.75 -2.9,-9.45 0,-3.8 0.967,-7 2.9,-9.6 M 2.7,250.6 H 7.35 V 129.25 H 2.7 Z M 168.8,61.9 c 0.067,0 0.167,0.033 0.3,0.1 h 0.15 c 4.167,0.733 7.817,2.683 10.95,5.85 3.167,3.133 5.15,6.833 5.95,11.1 v 0.15 219.6 0.2 c -0.433,4.733 -2.417,8.85 -5.95,12.35 -3.867,3.833 -8.467,5.85 -13.8,6.05 h -19.3 v 18.75 c 0,0.9 -0.067,1.733 -0.2,2.5 -0.667,4.267 -2.983,6.917 -6.95,7.95 v 24.35 c 0,0.333 -0.117,0.65 -0.35,0.95 -0.3,0.267 -0.633,0.4 -1,0.4 h -1.35 v 4.75 c 0,0.367 -0.117,0.7 -0.35,1 -0.3,0.233 -0.633,0.35 -1,0.35 h -16.85 c -0.367,0 -0.667,-0.117 -0.9,-0.35 l -6.05,-6.05 h -3.25 c -0.333,0 -0.633,-0.117 -0.9,-0.35 l -3.05,-3.05 c -0.3,-0.3 -0.45,-0.633 -0.45,-1 v -21 c -2.4,-0.667 -4.167,-1.9 -5.3,-3.7 -0.667,-0.967 -1.117,-2.05 -1.35,-3.25 v 0.1 c -0.2,-0.5 -0.317,-0.983 -0.35,-1.45 -0.067,-0.733 -0.1,-1.45 -0.1,-2.15 V 317.3 h -13.9 v 19 c 0,4.5 -2.25,6.75 -6.75,6.75 H 41.55 c -4.5,0 -6.75,-2.25 -6.75,-6.75 v -6.05 h -1.2 c -0.967,-0.067 -1.8,-0.333 -2.5,-0.8 -0.8,-0.533 -1.433,-1.217 -1.9,-2.05 v -0.1 c -0.3,-0.6 -0.517,-1.267 -0.65,-2 h -0.1 c -0.033,-0.467 -0.05,-0.95 -0.05,-1.45 v -23.7 c 0.033,-2.567 0.833,-4.3 2.4,-5.2 0,-0.067 0.033,-0.1 0.1,-0.1 0.067,-0.133 0.15,-0.233 0.25,-0.3 0.667,-0.333 1.45,-0.6 2.35,-0.8 h 0.2 1.1 v -5.95 c 0,-4.5 2.25,-6.75 6.75,-6.75 h 7 v -6.4 H 48.2 c -1.933,0.233 -3.283,-0.1 -4.05,-1 -0.733,-0.6 -1.1,-1.467 -1.1,-2.6 H 38.3 c -2.1,0 -3.7,-0.517 -4.8,-1.55 -0.367,-0.233 -0.6,-0.5 -0.7,-0.8 v -0.1 c -0.833,-1.067 -1.25,-2.5 -1.25,-4.3 v -0.1 c -0.6,-0.2 -1.15,-0.45 -1.65,-0.75 -1,-0.633 -1.717,-1.567 -2.15,-2.8 h -3 c -2.633,0 -4.467,-0.8 -5.5,-2.4 -0.4,-0.5 -0.7,-1.05 -0.9,-1.65 H 15.5 v 1.1 c 0,0.367 -0.133,0.7 -0.4,1 -0.3,0.233 -0.617,0.35 -0.95,0.35 H 11.9 c -1.633,0 -2.783,-0.45 -3.45,-1.35 -0.733,-0.767 -1.1,-1.817 -1.1,-3.15 v -1.25 h -6 c -0.367,0 -0.667,-0.133 -0.9,-0.4 C 0.15,252.6 0,252.283 0,251.95 V 127.9 c 0,-0.367 0.15,-0.667 0.45,-0.9 0.233,-0.3 0.533,-0.45 0.9,-0.45 h 6 v -1.25 c 0,-1.333 0.367,-2.367 1.1,-3.1 v -0.1 c 0.667,-0.9 1.817,-1.35 3.45,-1.35 h 2.25 c 0.333,0 0.65,0.15 0.95,0.45 0.267,0.267 0.4,0.567 0.4,0.9 v 1.1 h 2.85 c 0.2,-0.6 0.5,-1.117 0.9,-1.55 1.033,-1.667 2.867,-2.5 5.5,-2.5 h 3 c 0.433,-1.2 1.15,-2.1 2.15,-2.7 0.5,-0.367 1.05,-0.617 1.65,-0.75 v -0.15 c 0,-1.8 0.417,-3.25 1.25,-4.35 v -0.1 c 0.1,-0.3 0.333,-0.533 0.7,-0.7 1.1,-1.067 2.7,-1.6 4.8,-1.6 h 4.75 c 0,-1.167 0.367,-2.017 1.1,-2.55 0.767,-0.967 2.117,-1.333 4.05,-1.1 h 0.35 v -6.4 h -7 C 37.05,98.75 34.8,96.5 34.8,92 v -5.95 h -1.1 -0.2 c -0.9,-0.167 -1.683,-0.433 -2.35,-0.8 -0.1,-0.067 -0.183,-0.133 -0.25,-0.2 L 30.8,85 c -1.567,-0.967 -2.367,-2.717 -2.4,-5.25 v -23.8 c 0,-0.467 0.017,-0.917 0.05,-1.35 l 0.1,-0.1 c 0.133,-0.7 0.35,-1.35 0.65,-1.95 v -0.1 c 0.467,-0.833 1.1,-1.5 1.9,-2 0.7,-0.533 1.533,-0.833 2.5,-0.9 h 1.2 V 43.5 c 0,-4.5 2.25,-6.75 6.75,-6.75 H 76.7 c 4.5,0 6.75,2.25 6.75,6.75 v 18.3 h 13.9 V 42.9 c 0,-0.567 0.033,-1.117 0.1,-1.65 0,-0.367 0.05,-0.717 0.15,-1.05 l -0.1,0.05 c 0.3,-1.667 0.85,-3.05 1.65,-4.15 1.067,-1.833 2.833,-3.033 5.3,-3.6 V 10.8 c 0,-0.367 0.15,-0.667 0.45,-0.9 l 3.05,-3.05 c 0.267,-0.3 0.567,-0.45 0.9,-0.45 h 3.25 l 5.95,-5.95 c 0.3,-0.3 0.633,-0.45 1,-0.45 h 16.85 c 0.367,0 0.7,0.15 1,0.45 0.233,0.233 0.35,0.533 0.35,0.9 V 6.1 h 1.35 c 0.367,0 0.7,0.15 1,0.45 0.233,0.233 0.35,0.533 0.35,0.9 V 32.5 c 4.767,1.1 7.15,4.567 7.15,10.4 v 18.9 l 19.2,-0.05 c 0.833,0 1.667,0.05 2.5,0.15 m 0,2.8 c -0.233,0 -0.4,-0.033 -0.5,-0.1 -0.667,-0.1 -1.333,-0.15 -2,-0.15 L 138,64.5 c -1.033,0.567 -1.933,1.383 -2.7,2.45 -1.567,2.033 -2.417,4.5 -2.55,7.4 h 20.9 c 6.333,0 10.433,0.833 12.3,2.5 0.533,-0.333 1.1,-0.5 1.7,-0.5 0.733,0 1.4,0.3 2,0.9 0.467,0.467 0.7,1.067 0.7,1.8 0,0.6 -0.15,1.1 -0.45,1.5 1.033,1.333 1.867,2.783 2.5,4.35 0.367,0.9 0.65,1.883 0.85,2.95 v 202.3 c -0.3,3.067 -1.417,5.833 -3.35,8.3 0.3,0.4 0.45,0.917 0.45,1.55 0,0.7 -0.267,1.317 -0.8,1.85 -0.533,0.567 -1.167,0.85 -1.9,0.85 -0.667,0 -1.233,-0.217 -1.7,-0.65 -2.533,1.567 -5.333,2.4 -8.4,2.5 h -24.8 c 0.133,2.9 0.983,5.4 2.55,7.5 0.833,1.1 1.767,1.95 2.8,2.55 h 28.2 c 4.7,-0.2 8.7,-1.95 12,-5.25 3,-3.067 4.7,-6.65 5.1,-10.75 V 79.4 c -0.633,-3.733 -2.333,-6.95 -5.1,-9.65 -2.7,-2.767 -5.867,-4.45 -9.5,-5.05 m 0.2,15.5 0.1,-0.1 c 0.233,-0.3 0.35,-0.65 0.35,-1.05 0,-0.5 -0.15,-0.9 -0.45,-1.2 -0.433,-0.4 -0.883,-0.6 -1.35,-0.6 -0.467,0 -0.85,0.15 -1.15,0.45 -0.067,0.1 -0.167,0.183 -0.3,0.25 -0.233,0.3 -0.35,0.667 -0.35,1.1 0,0.4 0.15,0.783 0.45,1.15 l 0.1,0.1 c 0.367,0.367 0.783,0.55 1.25,0.55 0.467,0 0.85,-0.183 1.15,-0.55 0.067,-0.067 0.133,-0.1 0.2,-0.1 m -4.05,-1.15 c 0,-0.567 0.15,-1.05 0.45,-1.45 -1.8,-1.567 -5.717,-2.35 -11.75,-2.35 h -20.9 c 0,3.233 0.85,6 2.55,8.3 0.833,1.067 1.767,1.9 2.8,2.5 h 11.6 c 2.233,0.067 3.867,0.7 4.9,1.9 1,1.1 1.45,2.733 1.35,4.9 v 30.8 c 0,0.367 -0.133,0.7 -0.4,1 -0.3,0.233 -0.617,0.35 -0.95,0.35 h -0.1 c -1.1,0.6 -2.133,1.533 -3.1,2.8 -1.8,2.467 -2.7,5.467 -2.7,9 0,3.5 0.9,6.483 2.7,8.95 0.9,1.2 1.933,2.133 3.1,2.8 h 0.1 c 0.333,0 0.65,0.15 0.95,0.45 0.267,0.233 0.4,0.533 0.4,0.9 v 26.75 c 0,0.367 -0.133,0.7 -0.4,1 -0.3,0.233 -0.617,0.35 -0.95,0.35 h -0.2 c -1.1,0.6 -2.1,1.5 -3,2.7 -1.8,2.467 -2.7,5.483 -2.7,9.05 0,3.467 0.9,6.433 2.7,8.9 0.9,1.2 1.933,2.133 3.1,2.8 h 0.1 c 0.333,0 0.65,0.15 0.95,0.45 0.267,0.233 0.4,0.533 0.4,0.9 v 25.6 c 0,0.367 -0.133,0.7 -0.4,1 -0.3,0.233 -0.617,0.35 -0.95,0.35 h -0.2 c -1.1,0.6 -2.1,1.5 -3,2.7 -1.8,2.467 -2.7,5.467 -2.7,9 0,3.5 0.9,6.483 2.7,8.95 0.9,1.2 1.933,2.133 3.1,2.8 h 0.1 c 0.333,0 0.65,0.15 0.95,0.45 0.267,0.233 0.4,0.533 0.4,0.9 v 33 c 0.233,3.4 -1.183,5.2 -4.25,5.4 l -13.7,0.1 c -1.033,0.533 -1.933,1.333 -2.7,2.4 -1.7,2.233 -2.55,4.967 -2.55,8.2 h 24.8 c 2.9,-0.1 5.483,-0.867 7.75,-2.3 -0.233,-0.433 -0.35,-0.883 -0.35,-1.35 0,-0.733 0.233,-1.367 0.7,-1.9 l 0.1,-0.1 c 0.533,-0.5 1.167,-0.75 1.9,-0.75 0.533,0 1.067,0.183 1.6,0.55 1.767,-2.333 2.8,-4.917 3.1,-7.75 v -202 c -0.2,-0.967 -0.45,-1.9 -0.75,-2.8 -0.6,-1.433 -1.383,-2.783 -2.35,-4.05 -0.467,0.367 -1,0.55 -1.6,0.55 -0.733,0 -1.367,-0.267 -1.9,-0.8 l -0.1,-0.1 h -0.1 c -0.4,-0.567 -0.6,-1.167 -0.6,-1.8 m -30.4,-62.2 V 2.7 H 119.7 l -0.2,0.15 v 14 z m 0,10.6 H 119.5 v 4.7 h 15.05 z m 9.85,15.45 c 0,-5.367 -2.683,-8.05 -8.05,-8.05 h -24.7 c -2.767,1.2 -4.2,3.667 -4.3,7.4 v 0.65 9.65 H 144.4 Z M 134.55,17.75 H 119.5 v 8.8 h 15.05 z M 118.6,3.75 113.65,8.7 C 113.483,8.833 113.3,8.933 113.1,9 v 23.15 h 5.5 z m -10.2,6.3 -1.25,1.3 v 20.8 h 0.8 0.45 z m 1,-0.95 -0.1,0.05 v 23 h 2.9 V 9.1 Z m -9.25,32.5 c -0.067,0.433 -0.1,0.867 -0.1,1.3 v 42.7 c 0,0.6 0.033,1.15 0.1,1.65 v 0.15 c 0.033,0.2 0.083,0.417 0.15,0.65 0.067,0.3 0.133,0.6 0.2,0.9 v -0.1 c 0.233,0.967 0.65,1.783 1.25,2.45 v 0.1 c 0.133,0.1 0.25,0.217 0.35,0.35 0.067,0.067 0.133,0.117 0.2,0.15 0.367,0.267 0.717,0.517 1.05,0.75 0.2,0.067 0.383,0.15 0.55,0.25 0.133,0.067 0.267,0.133 0.4,0.2 0.933,0.3 2.1,0.45 3.5,0.45 h 1.9 c -1.933,-1.4 -2.983,-3.567 -3.15,-6.5 -0.067,-0.533 -0.1,-1.017 -0.1,-1.45 V 42.9 42.25 c 0.1,-3.433 1.2,-5.9 3.3,-7.4 h -1.8 c -3.167,0 -5.35,0.9 -6.55,2.7 v 0.1 c -0.6,0.8 -1,1.817 -1.2,3.05 -0.033,0.267 -0.05,0.517 -0.05,0.75 z M 118,65.85 v 0.1 c 1.967,-2.767 4.367,-4.15 7.2,-4.15 h 19.2 V 53.45 H 107.35 V 85.6 c 0,0.433 0.033,0.883 0.1,1.35 0.233,3.267 1.583,5.467 4.05,6.6 h 24.85 0.2 0.1 c 1.567,0 2.883,-0.233 3.95,-0.7 h 0.1 c 1.667,-0.733 2.783,-2.1 3.35,-4.1 H 125.1 c -2.833,-0.167 -5.2,-1.55 -7.1,-4.15 -2,-2.567 -3,-5.683 -3,-9.35 0,-3.667 1,-6.8 3,-9.4 M 97.35,64.5 h -10.9 c -0.9,0.567 -1.783,1.383 -2.65,2.45 -1.667,2.3 -2.5,5.067 -2.5,8.3 0,3.233 0.833,6 2.5,8.3 0.867,1.067 1.833,1.9 2.9,2.5 H 97.35 V 85.6 Z M 83.1,66.4 c 0.533,-0.7 1.133,-1.333 1.8,-1.9 h -4.8 c -0.933,0.567 -1.8,1.383 -2.6,2.45 -1.733,2.3 -2.6,5.067 -2.6,8.3 0,3.233 0.867,6 2.6,8.3 0.833,1.067 1.8,1.9 2.9,2.5 h 4.7 c -0.733,-0.533 -1.4,-1.183 -2,-1.95 -1.8,-2.4 -2.7,-5.35 -2.7,-8.85 0,-3.5 0.9,-6.45 2.7,-8.85 m 0.35,22.35 v 0.4 2.85 c 0,3.6 -1.433,5.8 -4.3,6.6 v 6.55 h 6.65 c 4.5,0 6.75,2.267 6.75,6.8 v 14.5 c 0.833,-0.233 1.7,-0.383 2.6,-0.45 0.267,-0.067 0.567,-0.1 0.9,-0.1 h 1.3 v -10 c 0,-2.833 0.6,-5.083 1.8,-6.75 1.433,-2.333 3.917,-3.633 7.45,-3.9 v -9 c -1.3,-0.133 -2.433,-0.367 -3.4,-0.7 h -0.1 c -0.133,-0.067 -0.25,-0.133 -0.35,-0.2 C 102.517,95.217 102.267,95.1 102,95 l -0.15,-0.1 c -0.367,-0.233 -0.733,-0.467 -1.1,-0.7 -0.1,-0.067 -0.15,-0.133 -0.15,-0.2 l -0.1,-0.1 C 100.133,93.667 99.833,93.367 99.6,93 l 0.1,0.1 c -0.9,-1.033 -1.5,-2.2 -1.8,-3.5 v -0.1 c -0.067,-0.233 -0.133,-0.483 -0.2,-0.75 z m 34.25,-13.5 c 0,3.067 0.817,5.65 2.45,7.75 0.833,1.067 1.767,1.883 2.8,2.45 -0.433,-0.433 -0.833,-0.883 -1.2,-1.35 -1.8,-2.4 -2.7,-5.35 -2.7,-8.85 0,-3.5 0.9,-6.45 2.7,-8.85 0.367,-0.533 0.767,-0.983 1.2,-1.35 -1.033,0.5 -1.967,1.317 -2.8,2.45 -1.633,2.1 -2.45,4.683 -2.45,7.75 m -2.45,21 h -5.95 v 8.9 h 5.95 z m 13.1,-31.75 c -0.967,0.567 -1.833,1.383 -2.6,2.45 -1.767,2.3 -2.65,5.067 -2.65,8.3 0,3.233 0.883,6 2.65,8.3 0.833,1.067 1.783,1.9 2.85,2.5 h 1.3 c -0.667,-0.533 -1.3,-1.183 -1.9,-1.95 -1.8,-2.4 -2.7,-5.35 -2.7,-8.85 0,-3.5 0.9,-6.45 2.7,-8.85 0.533,-0.7 1.1,-1.333 1.7,-1.9 z m -1.55,0 h -1.7 c -0.967,0.567 -1.833,1.383 -2.6,2.45 -1.7,2.3 -2.55,5.067 -2.55,8.3 0,3.233 0.85,6 2.55,8.3 0.833,1.067 1.783,1.9 2.85,2.5 h 1.55 c -0.667,-0.533 -1.3,-1.183 -1.9,-1.95 -1.867,-2.4 -2.8,-5.35 -2.8,-8.85 0,-3.5 0.933,-6.45 2.8,-8.85 0.533,-0.7 1.133,-1.333 1.8,-1.9 m 4.5,0 c -0.933,0.567 -1.8,1.383 -2.6,2.45 -1.667,2.3 -2.5,5.067 -2.5,8.3 0,3.233 0.833,6 2.5,8.3 0.833,1.067 1.767,1.9 2.8,2.5 h 1.8 c -0.733,-0.533 -1.4,-1.183 -2,-1.95 -1.8,-2.4 -2.7,-5.35 -2.7,-8.85 0,-3.5 0.9,-6.45 2.7,-8.85 0.6,-0.767 1.233,-1.4 1.9,-1.9 z m 3.45,0 c -0.967,0.567 -1.867,1.383 -2.7,2.45 -1.7,2.3 -2.55,5.067 -2.55,8.3 0,3.233 0.85,6 2.55,8.3 0.833,1.067 1.783,1.9 2.85,2.5 h 1.55 c -0.667,-0.533 -1.3,-1.183 -1.9,-1.95 -1.8,-2.4 -2.7,-5.35 -2.7,-8.85 V 74.8 c 0.067,-3.3 0.967,-6.1 2.7,-8.4 0.567,-0.767 1.167,-1.4 1.8,-1.9 z m 6.95,30.85 c -1.167,0.467 -2.5,0.767 -4,0.9 v 9 c 6.267,0.433 9.4,3.983 9.4,10.65 v 6.5 h 6.1 V 92.75 c 0.067,-1.333 -0.167,-2.333 -0.7,-3 -0.6,-0.6 -1.567,-0.933 -2.9,-1 h -2.8 c -0.633,3.267 -2.333,5.467 -5.1,6.6 m -6.7,0.9 h -3.4 v 8.9 h 3.4 z m -4.3,0 h -14.55 v 8.9 H 130.7 Z M 44.4,43.5 v 5.05 H 80.75 V 43.5 c 0,-2.7 -1.35,-4.05 -4.05,-4.05 H 46.05 c -1.1,0.8 -1.65,2.15 -1.65,4.05 m 0.3,-4.05 h -3.15 c -2.7,0 -4.05,1.35 -4.05,4.05 V 92 c 0,2.7 1.35,4.05 4.05,4.05 H 44.7 C 43.9,95.117 43.5,93.767 43.5,92 V 43.5 c 0,-1.733 0.4,-3.083 1.2,-4.05 m 36.05,10 H 44.4 V 92 c 0,1.933 0.583,3.283 1.75,4.05 h 3.05 c 0.133,0 0.25,0.033 0.35,0.1 0.133,-0.067 0.25,-0.1 0.35,-0.1 h 26.8 c 0.167,0 0.35,0.033 0.55,0.1 0.1,-0.067 0.217,-0.1 0.35,-0.1 2.1,-0.3 3.15,-1.65 3.15,-4.05 v -2.85 c 0,-0.133 0.033,-0.267 0.1,-0.4 h -4 c -2.8,-0.167 -5.167,-1.55 -7.1,-4.15 -1.967,-2.567 -2.95,-5.683 -2.95,-9.35 0,-3.667 0.983,-6.8 2.95,-9.4 v 0.1 c 2,-2.767 4.4,-4.15 7.2,-4.15 h 3.8 z m -45.95,2.8 h -0.75 c -0.367,0.3 -0.633,0.667 -0.8,1.1 v -0.1 c -0.233,0.533 -0.417,1.067 -0.55,1.6 -0.067,0.367 -0.1,0.733 -0.1,1.1 v 23.7 c 0.067,1.767 0.55,3 1.45,3.7 h 0.75 z m -3.2,1.35 -0.05,0.1 c -0.2,0.433 -0.333,0.883 -0.4,1.35 -0.033,0.233 -0.05,0.533 -0.05,0.9 v 23.7 c 0.033,1.467 0.45,2.517 1.25,3.15 0.061,0 0.11,0.025 0.15,0.075 -0.467,-0.826 -0.734,-1.901 -0.8,-3.225 v -23.7 c 0,-0.467 0.033,-0.883 0.1,-1.25 0.133,-0.667 0.35,-1.267 0.65,-1.8 0,-0.067 0.017,-0.133 0.05,-0.2 -0.4,0.233 -0.7,0.533 -0.9,0.9 m 45.2,12.8 c 0.533,-0.7 1.133,-1.333 1.8,-1.9 h -1.65 c -1.967,0.067 -3.65,1.067 -5.05,3 -1.6,2.1 -2.4,4.683 -2.4,7.75 0,3.067 0.8,5.65 2.4,7.75 1.467,1.867 3.183,2.883 5.15,3.05 H 78.7 C 78.033,85.517 77.4,84.867 76.8,84.1 74.933,81.7 74,78.75 74,75.25 74,71.75 74.933,68.8 76.8,66.4 M 56.25,98.75 H 53.9 v 6.4 h 2.35 z m -3.25,0 h -1.75 v 6.4 H 53 Z m 23.4,0 h -4.85 v 6.4 h 4.85 z m -7.55,0 h -9.9 v 6.4 h 9.9 z m -21,9.15 c -0.833,-0.133 -1.433,-0.05 -1.8,0.25 -0.3,0.367 -0.4,0.967 -0.3,1.8 v 0.35 159.2 0.35 c -0.1,0.867 0,1.5 0.3,1.9 0.367,0.233 0.967,0.3 1.8,0.2 h 0.2 37.75 c 2.7,0 4.05,-1.35 4.05,-4.05 V 252.2 H 87.7 c -1.5,0.667 -3.133,1.033 -4.9,1.1 h -7 c -4.467,-0.067 -8.25,-2.15 -11.35,-6.25 -3,-4.033 -4.5,-8.867 -4.5,-14.5 0,-5.667 1.5,-10.5 4.5,-14.5 3.1,-4.1 6.883,-6.183 11.35,-6.25 h 7 c 1.767,0.067 3.4,0.433 4.9,1.1 h 2.35 l -0.1,-3.25 H 87.7 c -1.633,0.667 -3.267,1.033 -4.9,1.1 h -7.2 -0.45 -0.1 c -4.2,-0.3 -7.733,-2.383 -10.6,-6.25 -1.867,-2.467 -3.133,-5.25 -3.8,-8.35 -0.467,-1.933 -0.7,-3.983 -0.7,-6.15 0,-5.633 1.5,-10.467 4.5,-14.5 3.067,-3.967 6.75,-6.05 11.05,-6.25 h 0.55 6.75 c 1.633,0.067 3.267,0.433 4.9,1.1 h 2.15 V 166.3 H 87.7 c -1.5,0.667 -3.133,1.017 -4.9,1.05 h -6.75 c -4.567,0 -8.433,-2.067 -11.6,-6.2 -3,-4.033 -4.5,-8.867 -4.5,-14.5 0,-5.667 1.5,-10.5 4.5,-14.5 3.167,-4.167 7.033,-6.25 11.6,-6.25 h 6.7 c 0.333,0 0.717,0.067 1.15,0.2 L 83.8,126 c 1.333,0.133 2.633,0.467 3.9,1 h 2.15 v -15.05 c 0,-2.7 -1.35,-4.05 -4.05,-4.05 H 48.05 Z m -4.8,3.6 h -1.8 v 156.85 h 1.8 z m 35,17.1 h -2 c -3.733,0 -6.883,1.717 -9.45,5.15 -2.633,3.533 -3.95,7.833 -3.95,12.9 0,5.033 1.317,9.333 3.95,12.9 2.567,3.4 5.717,5.1 9.45,5.1 h 2 c -1.133,-0.833 -2.15,-1.817 -3.05,-2.95 -0.2,-0.2 -0.35,-0.383 -0.45,-0.55 -3.033,-4.033 -4.55,-8.867 -4.55,-14.5 0,-5.667 1.517,-10.483 4.55,-14.45 v -0.05 c 0.1,-0.2 0.25,-0.35 0.45,-0.45 0.9,-1.233 1.917,-2.267 3.05,-3.1 m 1.55,4.15 v 0.1 c -0.133,0.067 -0.267,0.183 -0.4,0.35 -2.767,3.733 -4.15,8.217 -4.15,13.45 0,5.233 1.383,9.7 4.15,13.4 0.133,0.2 0.267,0.35 0.4,0.45 0.933,1.267 2,2.3 3.2,3.1 h 1.75 c -0.867,-0.733 -1.65,-1.55 -2.35,-2.45 l -0.1,-0.1 c -0.133,-0.1 -0.25,-0.25 -0.35,-0.45 -2.9,-3.833 -4.35,-8.483 -4.35,-13.95 0,-5.467 1.45,-10.133 4.35,-14 0.1,-0.167 0.217,-0.317 0.35,-0.45 h 0.1 c 0.7,-0.933 1.5,-1.767 2.4,-2.5 h -1.7 c -1.2,0.767 -2.3,1.783 -3.3,3.05 m -0.75,-0.55 h 0.1 c 0.733,-0.933 1.517,-1.733 2.35,-2.4 -1.633,0.833 -3.05,2.033 -4.25,3.6 -0.067,0 -0.1,0.033 -0.1,0.1 -0.067,0.033 -0.117,0.117 -0.15,0.25 h -0.1 c -2.633,3.533 -3.95,7.833 -3.95,12.9 0,5.033 1.317,9.333 3.95,12.9 l 0.1,0.05 c 0.033,0.067 0.083,0.167 0.15,0.3 l 0.1,0.1 c 1.2,1.5 2.55,2.633 4.05,3.4 -0.767,-0.667 -1.483,-1.417 -2.15,-2.25 l -0.1,-0.1 c -0.1,-0.1 -0.217,-0.25 -0.35,-0.45 -2.9,-3.833 -4.35,-8.483 -4.35,-13.95 0,-5.467 1.45,-10.133 4.35,-14 0.133,-0.167 0.25,-0.317 0.35,-0.45 m -54.1,-10.35 c -1.533,0 -2.617,0.45 -3.25,1.35 -0.033,0 -0.083,0.033 -0.15,0.1 -0.3,0.367 -0.483,0.85 -0.55,1.45 0,0.233 -0.067,0.433 -0.2,0.6 0.067,0.2 0.1,0.383 0.1,0.55 v 128 c 0,0.2 -0.033,0.417 -0.1,0.65 0.133,0.1 0.2,0.283 0.2,0.55 0.067,0.6 0.25,1.083 0.55,1.45 0.067,0.033 0.117,0.083 0.15,0.15 0.633,0.833 1.717,1.25 3.25,1.25 h 3.45 c -0.067,-0.033 -0.1,-0.117 -0.1,-0.25 V 122.1 c 0,-0.1 0.033,-0.183 0.1,-0.25 z m 5.35,-1.1 c -0.067,0.3 -0.217,0.583 -0.45,0.85 -0.233,0.1 -0.483,0.183 -0.75,0.25 0.067,0.067 0.1,0.15 0.1,0.25 v 135.6 c 0,0.133 -0.033,0.217 -0.1,0.25 0.267,0.067 0.517,0.2 0.75,0.4 0.233,0.167 0.383,0.433 0.45,0.8 0.167,0.9 0.583,1.583 1.25,2.05 h 0.1 l 0.1,0.1 V 118.5 l -0.2,0.2 c -0.667,0.433 -1.083,1.117 -1.25,2.05 m 4.85,-8 c -0.467,0.733 -0.7,1.667 -0.7,2.8 V 264.3 c 0,1.133 0.233,2.05 0.7,2.75 0.067,0.067 0.1,0.133 0.1,0.2 l 0.2,0.2 c 0.633,0.6 1.65,0.9 3.05,0.9 h 2.05 V 111.5 H 38.3 c -1.4,0 -2.417,0.333 -3.05,1 -0.067,0 -0.133,0.017 -0.2,0.05 0,0.067 -0.033,0.133 -0.1,0.2 m -22.15,10.7 h -0.9 c -0.667,0 -1.117,0.15 -1.35,0.45 h -0.1 c -0.233,0.367 -0.35,0.833 -0.35,1.4 v 129.25 c 0,0.533 0.117,0.983 0.35,1.35 l 0.1,0.1 c 0.233,0.233 0.683,0.35 1.35,0.35 h 0.9 v -1.1 c 0,-0.367 0.15,-0.667 0.45,-0.9 0.1,-0.167 0.25,-0.283 0.45,-0.35 V 125.8 c -0.2,-0.033 -0.35,-0.117 -0.45,-0.25 -0.3,-0.3 -0.45,-0.633 -0.45,-1 z m 5.2,2.45 h -3.4 v 128 H 18 Z"
             style="fill:#666666;fill-opacity:1;fill-rule:evenodd;stroke:none"
             id="path115"
             inkscape:connector-curvature="0" />
        </g>
      </g>
    </g>
  </g>
</svg>
