<?xml version="1.0" encoding="UTF-8" standalone="no"?>
<!-- Created with Inkscape (http://www.inkscape.org/) -->

<svg
   xmlns:dc="http://purl.org/dc/elements/1.1/"
   xmlns:cc="http://creativecommons.org/ns#"
   xmlns:rdf="http://www.w3.org/1999/02/22-rdf-syntax-ns#"
   xmlns:svg="http://www.w3.org/2000/svg"
   xmlns="http://www.w3.org/2000/svg"
   xmlns:sodipodi="http://sodipodi.sourceforge.net/DTD/sodipodi-0.dtd"
   xmlns:inkscape="http://www.inkscape.org/namespaces/inkscape"
   width="128"
   height="128"
   viewBox="0 0 128 128"
   version="1.1"
   id="svg601"
   inkscape:version="0.92.4 (5da689c313, 2019-01-14)"
   sodipodi:docname="cargo.svg">
  <defs
     id="defs595">
    <clipPath
       clipPathUnits="userSpaceOnUse"
       id="clipPath138">
      <path
         d="M 0,186.05 H 190.7 V 0 H 0 Z"
         id="path136"
         inkscape:connector-curvature="0" />
    </clipPath>
  </defs>
  <sodipodi:namedview
     id="base"
     pagecolor="#ffffff"
     bordercolor="#666666"
     borderopacity="1.0"
     inkscape:pageopacity="0.0"
     inkscape:pageshadow="2"
     inkscape:zoom="3.959798"
     inkscape:cx="-43.524249"
     inkscape:cy="7.5521954"
     inkscape:document-units="px"
     inkscape:current-layer="layer1"
     showgrid="false"
     inkscape:window-width="2560"
     inkscape:window-height="1312"
     inkscape:window-x="0"
     inkscape:window-y="54"
     inkscape:window-maximized="1"
     fit-margin-top="0"
     fit-margin-left="0"
     fit-margin-right="0"
     fit-margin-bottom="0"
     units="px" />
  <metadata
     id="metadata598">
    <rdf:RDF>
      <cc:Work
         rdf:about="">
        <dc:format>image/svg+xml</dc:format>
        <dc:type
           rdf:resource="http://purl.org/dc/dcmitype/StillImage" />
        <dc:title></dc:title>
      </cc:Work>
    </rdf:RDF>
  </metadata>
  <g
     inkscape:label="Layer 1"
     inkscape:groupmode="layer"
     id="layer1"
     transform="translate(-71.752057,-9.2794279)">
    <g
       id="g130"
       transform="matrix(0.67121133,0,0,0.6879871,71.752057,9.2794279)">
      <g
         id="g132">
        <g
           id="g134"
           clip-path="url(#clipPath138)">
          <g
             id="g140"
             transform="translate(187.8999,0.1001)">
            <path
               d="m 0,0 c 1.867,0.133 2.8,1.2 2.8,3.2 v 4.4 c 0,1.133 -0.317,1.966 -0.95,2.5 -0.367,0.433 -0.867,0.716 -1.5,0.85 v 0.55 162.75 0.6 c 1.633,0.267 2.45,1.367 2.45,3.3 v 4.45 c 0,2.233 -1.15,3.35 -3.45,3.35 H -184.4 c -2.333,0 -3.5,-1.117 -3.5,-3.35 v -4.45 c 0,-1.933 0.867,-3.033 2.6,-3.3 -0.033,-0.2 -0.05,-0.4 -0.05,-0.6 V 11.5 c 0,-0.2 0.017,-0.383 0.05,-0.55 -0.7,-0.134 -1.233,-0.417 -1.6,-0.85 -0.666,-0.534 -1,-1.367 -1,-2.5 V 3.2 c 0,-2.2 1.167,-3.3 3.5,-3.3 H -0.65 c 0.233,0 0.483,0.033 0.75,0.1 z"
               style="fill:#e2e2e2;fill-opacity:1;fill-rule:evenodd;stroke:none"
               id="path142"
               inkscape:connector-curvature="0" />
          </g>
          <g
             id="g144"
             transform="translate(187.7002,3.2998)">
            <path
               d="m 0,0 c 0,-0.2 -0.067,-0.333 -0.2,-0.4 h -0.05 c -0.067,-0.033 -0.133,-0.05 -0.2,-0.05 H -184.2 c -0.3,0 -0.45,0.15 -0.45,0.45 v 4.4 c 0,0.233 0.017,0.4 0.05,0.5 0.1,0.034 0.233,0.05 0.4,0.05 H -0.45 c 0.166,0 0.3,-0.016 0.4,-0.05 C -0.017,4.8 0,4.633 0,4.4 Z M 0.2,-3.2 C 2.066,-3.066 3,-2 3,0 V 4.4 C 3,5.534 2.683,6.367 2.05,6.9 1.683,7.333 1.183,7.617 0.55,7.75 v 0.55 162.75 0.6 c 1.633,0.267 2.45,1.367 2.45,3.3 v 4.45 c 0,2.233 -1.15,3.35 -3.45,3.35 H -184.2 c -2.334,0 -3.5,-1.117 -3.5,-3.35 v -4.45 c 0,-1.933 0.867,-3.033 2.6,-3.3 -0.033,-0.2 -0.05,-0.4 -0.05,-0.6 V 8.3 c 0,-0.2 0.017,-0.383 0.05,-0.55 -0.7,-0.133 -1.233,-0.417 -1.6,-0.85 -0.667,-0.533 -1,-1.366 -1,-2.5 V 0 c 0,-2.2 1.166,-3.3 3.5,-3.3 H -0.45 c 0.233,0 0.483,0.033 0.75,0.1 z M -2.45,8.3 C -2.45,8 -2.6,7.85 -2.9,7.85 h -14.5 v 163.7 h 14.5 c 0.3,0 0.45,-0.167 0.45,-0.5 z M 0,179.4 v -4.45 c 0,-0.333 -0.15,-0.5 -0.45,-0.5 H -184.2 c -0.3,0 -0.45,0.167 -0.45,0.5 v 4.45 c 0,0.267 0.15,0.4 0.45,0.4 H -0.45 c 0.3,0 0.45,-0.133 0.45,-0.4 M -18.3,7.85 h -15.5 v 163.7 h 15.5 z m -16.45,0 h -14 v 41.8 c 0.267,0.433 0.433,1.017 0.5,1.75 v 76.65 c -0.067,0.667 -0.233,1.234 -0.5,1.7 v 41.8 h 14 z m -15,0 h -14 v 40.8 h 12.45 c 0.6,0 1.116,0.083 1.55,0.25 z m -29.85,0 h -12.5 v 40.8 h 12.5 z m -13.45,0 h -12 v 40.8 h 12 z M -50.3,51.4 c -0.033,-0.567 -0.367,-0.85 -1,-0.85 h -82.15 c -0.6,0 -0.917,0.3 -0.95,0.9 V 128 c 0.033,0.534 0.35,0.8 0.95,0.8 h 82.15 c 0.633,0 0.967,-0.266 1,-0.8 z M -64.7,7.85 h -13.95 v 40.8 h 13.95 z m -41.3,0 h -13.95 v 40.8 H -106 Z m -14.95,0 H -134.9 V 48.9 c 0.4,-0.167 0.883,-0.25 1.45,-0.25 h 12.5 z m -29.9,0 h -15.5 v 163.7 h 15.5 z m -30.95,0 c -0.267,0 -0.4,0.15 -0.4,0.45 v 162.75 c 0,0.3 0.133,0.467 0.4,0.5 h 14.55 V 7.85 Z m 45.45,43.55 c 0.033,-0.733 0.183,-1.317 0.45,-1.75 V 7.85 h -13.9 v 163.7 h 13.9 v -41.8 c -0.267,-0.466 -0.417,-1.033 -0.45,-1.7 z m 15.4,79.35 h -12.5 c -0.567,0 -1.05,-0.083 -1.45,-0.25 v 41.05 h 13.95 z m 1,40.8 H -106 v -40.8 h -13.95 z m 68.65,-40.8 h -12.45 v 40.8 h 14 V 130.5 c -0.434,0.167 -0.95,0.25 -1.55,0.25 m -28.3,0 h -12.5 v 40.8 h 12.5 z m -13.45,0 h -12 v 40.8 h 12 z m 28.35,0 h -13.95 v 40.8 h 13.95 z"
               style="fill:#666666;fill-opacity:1;fill-rule:evenodd;stroke:none"
               id="path146"
               inkscape:connector-curvature="0" />
          </g>
        </g>
      </g>
    </g>
  </g>
</svg>
