<?xml version="1.0" encoding="UTF-8" standalone="no"?>
<!-- Created with Inkscape (http://www.inkscape.org/) -->

<svg
   xmlns:dc="http://purl.org/dc/elements/1.1/"
   xmlns:cc="http://creativecommons.org/ns#"
   xmlns:rdf="http://www.w3.org/1999/02/22-rdf-syntax-ns#"
   xmlns:svg="http://www.w3.org/2000/svg"
   xmlns="http://www.w3.org/2000/svg"
   xmlns:sodipodi="http://sodipodi.sourceforge.net/DTD/sodipodi-0.dtd"
   xmlns:inkscape="http://www.inkscape.org/namespaces/inkscape"
   width="128"
   height="64"
   viewBox="0 0 127.99999 64"
   version="1.1"
   id="svg636"
   inkscape:version="0.92.4 (5da689c313, 2019-01-14)"
   sodipodi:docname="cargo_module.svg">
  <defs
     id="defs630">
    <clipPath
       clipPathUnits="userSpaceOnUse"
       id="clipPath125">
      <path
         d="M 0,95.4502 H 189.85 V 0 H 0 Z"
         id="path123"
         inkscape:connector-curvature="0" />
    </clipPath>
  </defs>
  <sodipodi:namedview
     id="base"
     pagecolor="#ffffff"
     bordercolor="#666666"
     borderopacity="1.0"
     inkscape:pageopacity="0.0"
     inkscape:pageshadow="2"
     inkscape:zoom="2.8"
     inkscape:cx="19.569308"
     inkscape:cy="-66.595453"
     inkscape:document-units="px"
     inkscape:current-layer="layer1"
     showgrid="false"
     fit-margin-top="0"
     fit-margin-left="0"
     fit-margin-right="0"
     fit-margin-bottom="0"
     inkscape:window-width="2560"
     inkscape:window-height="1312"
     inkscape:window-x="0"
     inkscape:window-y="54"
     inkscape:window-maximized="1"
     units="px" />
  <metadata
     id="metadata633">
    <rdf:RDF>
      <cc:Work
         rdf:about="">
        <dc:format>image/svg+xml</dc:format>
        <dc:type
           rdf:resource="http://purl.org/dc/dcmitype/StillImage" />
        <dc:title></dc:title>
      </cc:Work>
    </rdf:RDF>
  </metadata>
  <g
     inkscape:label="Layer 1"
     inkscape:groupmode="layer"
     id="layer1"
     transform="translate(-73.314786,-38.379958)">
    <g
       id="g117"
       transform="matrix(0.67421649,0,0,0.67050742,73.314786,38.379958)">
      <g
         id="g119">
        <g
           id="g121"
           clip-path="url(#clipPath125)">
          <g
             id="g127"
             transform="translate(183.7002,24.8501)">
            <path
               d="M 0,0 C 1.4,0.3 2.667,0.967 3.8,2 V 2.1 C 5.367,3.7 6.15,5.617 6.15,7.85 V 35.6 c 0,2.233 -0.783,4.167 -2.35,5.8 C 2.667,42.467 1.4,43.217 0,43.65 V 54 c 0,6.933 -3.45,10.4 -10.35,10.4 H -62.8 c -0.333,1.533 -1.033,2.883 -2.1,4.05 -1.5,1.433 -3.267,2.15 -5.3,2.15 h -37.15 c -2.033,0 -3.783,-0.717 -5.25,-2.15 -1.133,-1.167 -1.817,-2.517 -2.05,-4.05 h -52.55 c -6.933,0 -10.4,-3.467 -10.4,-10.4 V 43.65 c -1.367,-0.433 -2.584,-1.183 -3.65,-2.25 -1.633,-1.633 -2.45,-3.567 -2.45,-5.8 V 7.85 c 0,-2.233 0.783,-4.15 2.35,-5.75 l 0.1,-0.1 c 1.066,-1.033 2.283,-1.717 3.65,-2.05 v -8.3 c 0,-6.933 3.467,-10.4 10.4,-10.4 h 52.55 c 0.233,-1.567 0.917,-2.85 2.05,-3.85 1.467,-1.5 3.217,-2.25 5.25,-2.25 h 37.15 c 2.033,0 3.8,0.75 5.3,2.25 1.067,1 1.767,2.283 2.1,3.85 h 52.45 c 6.9,0 10.35,3.467 10.35,10.4 z"
               style="fill:#e2e2e2;fill-opacity:1;fill-rule:evenodd;stroke:none"
               id="path129"
               inkscape:connector-curvature="0" />
          </g>
          <g
             id="g131"
             transform="translate(181,16.5)">
            <path
               d="M 0,0 C 0,-5.133 -2.55,-7.7 -7.65,-7.7 H -164.5 c -5.1,0 -7.65,2.567 -7.65,7.7 v 62.35 c 0,5.1 2.55,7.65 7.65,7.65 H -7.65 C -2.55,70 0,67.45 0,62.35 Z m 6.5,10.35 v 0.1 c 1.567,1.6 2.35,3.517 2.35,5.75 v 27.75 c 0,2.233 -0.783,4.167 -2.35,5.8 C 5.367,50.817 4.1,51.567 2.7,52 v 10.35 c 0,6.933 -3.45,10.4 -10.35,10.4 H -60.1 c -0.333,1.533 -1.033,2.883 -2.1,4.05 -1.5,1.433 -3.267,2.15 -5.3,2.15 h -37.15 c -2.033,0 -3.783,-0.717 -5.25,-2.15 -1.133,-1.167 -1.817,-2.517 -2.05,-4.05 h -52.55 c -6.933,0 -10.4,-3.467 -10.4,-10.4 V 52 c -1.367,-0.433 -2.583,-1.183 -3.65,-2.25 -1.633,-1.633 -2.45,-3.567 -2.45,-5.8 V 16.2 c 0,-2.233 0.783,-4.15 2.35,-5.75 l 0.1,-0.1 c 1.067,-1.033 2.283,-1.717 3.65,-2.05 V 0 c 0,-6.933 3.467,-10.4 10.4,-10.4 h 52.55 c 0.233,-1.567 0.917,-2.85 2.05,-3.85 1.467,-1.5 3.217,-2.25 5.25,-2.25 h 37.15 c 2.033,0 3.8,0.75 5.3,2.25 1.067,1 1.767,2.283 2.1,3.85 h 52.45 c 6.9,0 10.35,3.467 10.35,10.4 v 8.35 c 1.4,0.3 2.667,0.967 3.8,2 m -1.9,2 H 4.5 C 3.967,11.783 3.367,11.383 2.7,11.15 V 49.1 C 3.367,48.8 4,48.383 4.6,47.85 5.633,46.783 6.15,45.483 6.15,43.95 V 16.2 c 0,-1.5 -0.517,-2.783 -1.55,-3.85 m -31.45,-0.9 c 3.067,0 4.6,1.583 4.6,4.75 v 29.95 c 0,3.167 -1.533,4.75 -4.6,4.75 H -145.3 c -3.067,0 -4.6,-1.583 -4.6,-4.75 V 16.2 c 0,-3.167 1.533,-4.75 4.6,-4.75 z m 3.7,4.75 c 0,-2.567 -1.233,-3.85 -3.7,-3.85 H -145.3 c -2.467,0 -3.7,1.283 -3.7,3.85 v 29.95 c 0,2.567 1.233,3.85 3.7,3.85 h 118.45 c 2.467,0 3.7,-1.283 3.7,-3.85 z M -62.9,-10.4 c -0.267,-0.767 -0.667,-1.417 -1.2,-1.95 -0.967,-0.967 -2.1,-1.45 -3.4,-1.45 h -37.15 c -1.333,0 -2.45,0.483 -3.35,1.45 -0.6,0.533 -0.983,1.183 -1.15,1.95 z m -4.6,86.65 c 1.3,0 2.433,-0.45 3.4,-1.35 0.533,-0.6 0.933,-1.317 1.2,-2.15 h -46.35 c 0.233,0.833 0.65,1.55 1.25,2.15 0.9,0.9 2.017,1.35 3.35,1.35 z m -109.2,-63.9 c -1.067,1.067 -1.6,2.35 -1.6,3.85 v 27.75 c 0,1.533 0.533,2.833 1.6,3.9 0.567,0.533 1.167,0.95 1.8,1.25 V 11.15 c -0.633,0.233 -1.233,0.633 -1.8,1.2"
               style="fill:#666666;fill-opacity:1;fill-rule:evenodd;stroke:none"
               id="path133"
               inkscape:connector-curvature="0" />
          </g>
        </g>
      </g>
    </g>
  </g>
</svg>
