<?xml version="1.0" encoding="UTF-8" standalone="no"?>
<!-- Created with Inkscape (http://www.inkscape.org/) -->

<svg
   xmlns:dc="http://purl.org/dc/elements/1.1/"
   xmlns:cc="http://creativecommons.org/ns#"
   xmlns:rdf="http://www.w3.org/1999/02/22-rdf-syntax-ns#"
   xmlns:svg="http://www.w3.org/2000/svg"
   xmlns="http://www.w3.org/2000/svg"
   xmlns:sodipodi="http://sodipodi.sourceforge.net/DTD/sodipodi-0.dtd"
   xmlns:inkscape="http://www.inkscape.org/namespaces/inkscape"
   width="196"
   height="256"
   viewBox="0 0 196 256"
   version="1.1"
   id="svg689"
   inkscape:version="0.92.4 (5da689c313, 2019-01-14)"
   sodipodi:docname="generator.svg">
  <defs
     id="defs683">
    <clipPath
       clipPathUnits="userSpaceOnUse"
       id="clipPath104">
      <path
         d="M 0,375.1 H 255.1 V 0 H 0 Z"
         id="path102"
         inkscape:connector-curvature="0" />
    </clipPath>
  </defs>
  <sodipodi:namedview
     id="base"
     pagecolor="#ffffff"
     bordercolor="#666666"
     borderopacity="1.0"
     inkscape:pageopacity="0.0"
     inkscape:pageshadow="2"
     inkscape:zoom="1.979899"
     inkscape:cx="-97.338987"
     inkscape:cy="-119.87919"
     inkscape:document-units="px"
     inkscape:current-layer="layer1"
     showgrid="false"
     fit-margin-top="0"
     fit-margin-left="0"
     fit-margin-right="0"
     fit-margin-bottom="0"
     inkscape:window-width="2560"
     inkscape:window-height="1312"
     inkscape:window-x="0"
     inkscape:window-y="54"
     inkscape:window-maximized="1"
     units="px" />
  <metadata
     id="metadata686">
    <rdf:RDF>
      <cc:Work
         rdf:about="">
        <dc:format>image/svg+xml</dc:format>
        <dc:type
           rdf:resource="http://purl.org/dc/dcmitype/StillImage" />
        <dc:title></dc:title>
      </cc:Work>
    </rdf:RDF>
  </metadata>
  <g
     inkscape:label="Layer 1"
     inkscape:groupmode="layer"
     id="layer1"
     transform="translate(-72.437041,82.470111)">
    <g
       id="g96"
       transform="matrix(0.76832615,0,0,0.68248468,72.437041,-82.470111)">
      <g
         id="g98">
        <g
           id="g100"
           clip-path="url(#clipPath104)">
          <g
             id="g106"
             transform="translate(250.1001,75)">
            <path
               d="M 0,0 H 3.5 C 3.9,0 4.25,0.15 4.55,0.45 4.85,0.75 5,1.1 5,1.5 v 76.15 c 0,0.2 -0.05,0.4 -0.15,0.6 -0.067,0.2 -0.183,0.367 -0.35,0.5 L 0,82.95 v 6.8 c 0,0.2 -0.05,0.4 -0.15,0.6 -0.067,0.2 -0.183,0.367 -0.35,0.5 l -3,2.8 v 39.45 c 0.633,0.133 1.2,0.417 1.7,0.85 0.067,0 0.1,0.017 0.1,0.05 0.833,0.733 1.233,1.6 1.2,2.6 v 0.25 c 0,0.8 -0.25,1.517 -0.75,2.15 0.5,0.6 0.75,1.3 0.75,2.1 v 0.2 0.3 c -0.033,0.7 -0.283,1.317 -0.75,1.85 0.5,0.633 0.75,1.333 0.75,2.1 v 0.15 0.15 c 0,0.8 -0.25,1.5 -0.75,2.1 0.5,0.633 0.75,1.333 0.75,2.1 v 0.25 c 0,0.8 -0.25,1.517 -0.75,2.15 0.5,0.6 0.75,1.3 0.75,2.1 v 0.15 0.1 c 0,0.767 -0.25,1.467 -0.75,2.1 0.5,0.633 0.75,1.333 0.75,2.1 v 0.15 0.15 c 0,0.8 -0.25,1.5 -0.75,2.1 0.5,0.633 0.75,1.333 0.75,2.1 v 0.25 c 0,0.8 -0.25,1.517 -0.75,2.15 0.5,0.6 0.75,1.3 0.75,2.1 v 0.15 0.1 c 0,0.8 -0.25,1.517 -0.75,2.15 0.5,0.6 0.75,1.3 0.75,2.1 v 0.15 0.1 c 0,0.8 -0.25,1.5 -0.75,2.1 0.5,0.633 0.75,1.333 0.75,2.1 v 0.2 0.3 c -0.033,0.7 -0.283,1.333 -0.75,1.9 0.5,0.633 0.75,1.333 0.75,2.1 v 0.15 0.1 c 0,0.8 -0.25,1.517 -0.75,2.15 0.5,0.6 0.75,1.3 0.75,2.1 v 0.25 c 0,0.767 -0.25,1.467 -0.75,2.1 0.5,0.633 0.75,1.333 0.75,2.1 v 0.15 0.15 c 0,1.033 -0.417,1.9 -1.25,2.6 l -0.05,0.05 c -0.5,0.4 -1.067,0.683 -1.7,0.85 v 10.65 c 0,1.333 -0.017,2.633 -0.05,3.9 -0.8,27.133 -10.233,41.45 -28.3,42.95 v 8.8 c 0.4,4.767 -1.6,10.133 -6,16.1 v 22 c 0,0.4 -0.15,0.75 -0.45,1.05 -0.3,0.3 -0.65,0.45 -1.05,0.45 h -29.5 c -0.4,0 -0.75,-0.15 -1.05,-0.45 -0.3,-0.3 -0.45,-0.65 -0.45,-1.05 v -3.7 h -104.4 v 3.7 c 0,0.4 -0.15,0.75 -0.45,1.05 -0.3,0.3 -0.65,0.45 -1.05,0.45 h -29.5 c -0.4,0 -0.75,-0.15 -1.05,-0.45 -0.3,-0.3 -0.45,-0.65 -0.45,-1.05 v -22 c -4.4,-5.967 -6.4,-11.333 -6,-16.1 v -8.8 c -18.067,-1.5 -27.5,-15.817 -28.3,-42.95 -0.033,-1.267 -0.05,-2.567 -0.05,-3.9 V 194.2 c -0.633,-0.167 -1.2,-0.45 -1.7,-0.85 l -0.05,-0.05 c -0.834,-0.7 -1.25,-1.567 -1.25,-2.6 v -0.15 -0.15 c 0,-0.767 0.25,-1.467 0.75,-2.1 -0.5,-0.633 -0.75,-1.333 -0.75,-2.1 v -0.25 c 0,-0.8 0.25,-1.5 0.75,-2.1 -0.5,-0.633 -0.75,-1.35 -0.75,-2.15 v -0.1 -0.15 c 0,-0.767 0.25,-1.467 0.75,-2.1 -0.467,-0.567 -0.717,-1.2 -0.75,-1.9 v -0.3 -0.2 c 0,-0.767 0.25,-1.467 0.75,-2.1 -0.5,-0.6 -0.75,-1.3 -0.75,-2.1 v -0.1 -0.15 c 0,-0.8 0.25,-1.5 0.75,-2.1 -0.5,-0.633 -0.75,-1.35 -0.75,-2.15 v -0.1 -0.15 c 0,-0.8 0.25,-1.5 0.75,-2.1 -0.5,-0.633 -0.75,-1.35 -0.75,-2.15 v -0.25 c 0,-0.767 0.25,-1.467 0.75,-2.1 -0.5,-0.6 -0.75,-1.3 -0.75,-2.1 V 159.15 159 c 0,-0.767 0.25,-1.467 0.75,-2.1 -0.5,-0.633 -0.75,-1.333 -0.75,-2.1 v -0.1 -0.15 c 0,-0.8 0.25,-1.5 0.75,-2.1 -0.5,-0.633 -0.75,-1.35 -0.75,-2.15 v -0.25 c 0,-0.767 0.25,-1.467 0.75,-2.1 -0.5,-0.6 -0.75,-1.3 -0.75,-2.1 v -0.15 -0.15 c 0,-0.767 0.25,-1.467 0.75,-2.1 -0.467,-0.533 -0.717,-1.15 -0.75,-1.85 v -0.3 -0.2 c 0,-0.8 0.25,-1.5 0.75,-2.1 -0.5,-0.633 -0.75,-1.35 -0.75,-2.15 v -0.25 c -0.033,-1 0.367,-1.867 1.2,-2.6 0,-0.033 0.033,-0.05 0.1,-0.05 0.5,-0.433 1.067,-0.717 1.7,-0.85 V 93.65 l -3,-2.8 c -0.167,-0.133 -0.283,-0.3 -0.35,-0.5 -0.1,-0.2 -0.15,-0.4 -0.15,-0.6 v -6.8 l -4.5,-4.2 c -0.167,-0.133 -0.283,-0.3 -0.35,-0.5 -0.1,-0.2 -0.15,-0.4 -0.15,-0.6 V 1.5 c 0,-0.4 0.15,-0.75 0.45,-1.05 0.3,-0.3 0.65,-0.45 1.05,-0.45 h 3.5 c 0.367,-3.833 2.666,-6.1 6.9,-6.8 0.1,-0.033 0.183,-0.05 0.25,-0.05 h 4.85 v -3.4 c 0,-3.667 1.833,-5.5 5.5,-5.5 h 3.35 c 0.167,0 0.333,0.033 0.5,0.1 0.167,-0.067 0.333,-0.1 0.5,-0.1 h 1.9 v -8 h -6 c -3.667,0 -5.5,-1.833 -5.5,-5.5 v -0.45 c -1.834,-0.8 -2.75,-2.483 -2.75,-5.05 v -16 c 0,-3.667 1.833,-5.5 5.5,-5.5 h 0.5 v -1.8 h 0.25 c 0.433,-1.067 1.4,-1.6 2.9,-1.6 h 14.25 c 1.5,0 2.45,0.533 2.85,1.6 h 0.25 v 1.8 h 0.5 c 1.767,0 3.117,0.433 4.05,1.3 0.533,-0.533 1.25,-0.9 2.15,-1.1 h 0.05 c 0.5,-0.133 1.083,-0.2 1.75,-0.2 h 0.5 v -1.55 h 0.15 c 0.367,-1.233 1.35,-1.85 2.95,-1.85 h 14.25 c 1.633,0 2.633,0.617 3,1.85 h 0.15 v 1.55 h 0.5 c 0.967,0 1.8,0.133 2.5,0.4 V -70.5 c 0,-0.4 0.15,-0.75 0.45,-1.05 0.3,-0.3 0.65,-0.45 1.05,-0.45 h 14.5 c 0.4,0 0.75,0.15 1.05,0.45 0.3,0.3 0.45,0.65 0.45,1.05 V -54 h 7.2 v -7 c 0,-1.5 0.533,-2.8 1.6,-3.9 0.133,-0.133 0.283,-0.267 0.45,-0.4 v -8.2 c 0,-0.4 0.15,-0.75 0.45,-1.05 0.3,-0.3 0.65,-0.45 1.05,-0.45 h 51.6 c 0.4,0 0.75,0.15 1.05,0.45 0.3,0.3 0.45,0.65 0.45,1.05 v 8.2 c 0.167,0.133 0.316,0.267 0.45,0.4 1.067,1.1 1.6,2.4 1.6,3.9 v 7 h 7.2 v -16.5 c 0,-0.4 0.15,-0.75 0.45,-1.05 0.3,-0.3 0.65,-0.45 1.05,-0.45 H -70 c 0.4,0 0.75,0.15 1.05,0.45 0.3,0.3 0.45,0.65 0.45,1.05 v 14.65 c 0.7,-0.267 1.533,-0.4 2.5,-0.4 h 0.5 v -1.55 h 0.2 c 0.333,-1.233 1.317,-1.85 2.95,-1.85 h 14.25 c 1.6,0 2.583,0.617 2.95,1.85 H -45 v 1.55 h 0.5 c 0.667,0 1.25,0.067 1.75,0.2 h 0.05 c 0.9,0.2 1.617,0.567 2.15,1.1 0.933,-0.867 2.283,-1.3 4.05,-1.3 h 0.5 v -1.55 h 0.15 c 0.367,-1.233 1.35,-1.85 2.95,-1.85 h 14.25 c 1.633,0 2.633,0.617 3,1.85 h 0.15 v 1.55 h 0.5 c 3.667,0 5.5,1.833 5.5,5.5 v 16 c 0,2.567 -0.917,4.25 -2.75,5.05 v 0.45 c 0,3.667 -1.833,5.5 -5.5,5.5 h -6 v 8 h 1.9 c 0.166,0 0.333,0.033 0.5,0.1 0.166,-0.067 0.333,-0.1 0.5,-0.1 h 3.35 c 3.667,0 5.5,1.833 5.5,5.5 v 3.4 h 4.85 c 0.067,0 0.15,0.017 0.25,0.05 4.233,0.7 6.533,2.967 6.9,6.8"
               style="fill:#e2e2e2;fill-opacity:1;fill-rule:evenodd;stroke:none"
               id="path108"
               inkscape:connector-curvature="0" />
          </g>
          <g
             id="g110"
             transform="translate(172.75,344.25)">
            <path
               d="M 0,0 V 12.5 H 3.9 V 2.4 C 3.9,0.8 3.1,0 1.5,0 Z m -7.4,0 c -1.633,0 -2.45,0.8 -2.45,2.4 v 10.1 h 4.1 V 0 Z m 2.65,12.5 H -1 V 0 H -4.75 Z M -9.85,-26 v 8.6 c 0,1.6 0.817,2.4 2.45,2.4 h 1.65 v -11 z m 5.1,11 H -1 V -26 H -4.75 Z M 0,-26 v 11 h 1.5 c 1.6,0 2.4,-0.8 2.4,-2.4 V -26 Z m 42.5,7.05 v -5.2 c -0.567,1.8 -1.083,3.667 -1.55,5.6 -0.567,2.467 -1.05,5.067 -1.45,7.8 V 1.9 c 2.2,-3.8 3.2,-7.283 3,-10.45 v -0.1 -10.2 z m 6.1,-54.55 h -1.1 v 18.4 l 1.1,-2.05 z m -59.3,14.75 h 2.05 V -70.5 H -10.7 Z M 21.5,-117 H 13.55 V 27.85 H 29.4 V -109.1 c 0.033,-1.3 -0.083,-2.417 -0.35,-3.35 -0.867,-3.167 -3.383,-4.683 -7.55,-4.55 m -32.2,-12 h 2.05 v -11.75 h -2.05 z m 53.4,28.5 h 1.8 v -16.25 h -1.8 z m 28.15,36.1 V -75.95 H 53.8 c -0.233,1.567 -1.067,2.383 -2.5,2.45 H 49.6 V -57 c 0,0.1 -0.017,0.183 -0.05,0.25 l -2.05,3.8 v 16.8 c 0,0.267 -0.067,0.517 -0.2,0.75 -0.633,1.133 -1.233,2.3 -1.8,3.5 v 11.35 c 16.133,-1.8 24.567,-15.15 25.3,-40.05 0.033,-1.267 0.05,-2.533 0.05,-3.8 m 1.9,-16.05 h -18.9 v 2.95 c 0.033,0.2 0.033,0.383 0,0.55 H 70.9 c 0,-0.033 0.017,-0.05 0.05,-0.05 h 1.35 c 0.467,0 0.883,-0.183 1.25,-0.55 0.333,-0.333 0.5,-0.733 0.5,-1.2 0,-0.467 -0.167,-0.883 -0.5,-1.25 -0.267,-0.233 -0.533,-0.383 -0.8,-0.45 M 72.9,-84.9 H 53.85 v 3.45 H 71.6 l 0.05,-0.05 h 0.65 c 0.467,0 0.883,-0.183 1.25,-0.55 0.333,-0.333 0.5,-0.733 0.5,-1.2 0,-0.467 -0.167,-0.883 -0.5,-1.25 -0.2,-0.2 -0.417,-0.333 -0.65,-0.4 m 0.65,-4.1 c -0.2,-0.2 -0.417,-0.333 -0.65,-0.4 H 53.85 v 3.5 h 17.7 c 0.033,-0.033 0.05,-0.067 0.05,-0.1 h 0.7 c 0.467,0 0.883,-0.183 1.25,-0.55 0.333,-0.333 0.5,-0.733 0.5,-1.2 0,-0.467 -0.167,-0.883 -0.5,-1.25 m 0.5,-3.25 c 0,-0.467 -0.167,-0.883 -0.5,-1.25 -0.2,-0.2 -0.417,-0.333 -0.65,-0.4 H 53.85 v 3.5 H 71.5 c 0.033,-0.033 0.05,-0.067 0.05,-0.1 h 0.75 c 0.467,0 0.883,-0.183 1.25,-0.55 0.333,-0.333 0.5,-0.733 0.5,-1.2 M 73.55,-98 c -0.2,-0.2 -0.417,-0.333 -0.65,-0.4 H 53.85 v 3.5 H 71.6 c 0.033,-0.033 0.05,-0.067 0.05,-0.1 h 0.65 c 0.467,0 0.883,-0.183 1.25,-0.55 0.333,-0.333 0.5,-0.733 0.5,-1.2 0,-0.467 -0.167,-0.883 -0.5,-1.25 m 0,-1.9 c 0.333,-0.333 0.5,-0.733 0.5,-1.2 0,-0.467 -0.167,-0.883 -0.5,-1.25 -0.367,-0.333 -0.767,-0.5 -1.2,-0.5 h -18.5 v 3.45 H 72.7 c 0.3,-0.067 0.583,-0.233 0.85,-0.5 m 0,-6.95 c -0.367,-0.333 -0.767,-0.5 -1.2,-0.5 h -18.5 v 3.5 h 18.5 c 0.433,0 0.833,-0.183 1.2,-0.55 0.333,-0.333 0.5,-0.733 0.5,-1.2 0,-0.467 -0.167,-0.883 -0.5,-1.25 m -1.2,-5 h -18.5 v 3.5 h 18.5 c 0.433,0 0.833,-0.183 1.2,-0.55 0.333,-0.333 0.5,-0.733 0.5,-1.2 0,-0.467 -0.167,-0.883 -0.5,-1.25 -0.367,-0.333 -0.767,-0.5 -1.2,-0.5 m 0.4,-8.95 h -18.9 v 3.5 h 17.7 l 0.05,-0.05 h 0.7 c 0.467,0 0.883,-0.183 1.25,-0.55 0.333,-0.333 0.5,-0.733 0.5,-1.2 0,-0.467 -0.167,-0.883 -0.5,-1.25 -0.267,-0.233 -0.533,-0.383 -0.8,-0.45 m 0,4.5 h -18.9 v 3.45 h 18.5 c 0.433,0 0.833,-0.183 1.2,-0.55 0.333,-0.333 0.5,-0.733 0.5,-1.2 0,-0.467 -0.167,-0.883 -0.5,-1.25 -0.267,-0.233 -0.533,-0.383 -0.8,-0.45 m -0.45,-14.55 c 0.467,0 0.883,-0.183 1.25,-0.55 0.333,-0.333 0.5,-0.733 0.5,-1.2 0,-0.467 -0.167,-0.883 -0.5,-1.25 -0.2,-0.2 -0.417,-0.333 -0.65,-0.4 H 53.85 v 3.45 H 71.6 l 0.05,-0.05 z m -0.65,9 h 0.65 c 0.467,0 0.883,-0.183 1.25,-0.55 0.333,-0.333 0.5,-0.733 0.5,-1.2 0,-0.467 -0.167,-0.883 -0.5,-1.25 -0.267,-0.233 -0.533,-0.383 -0.8,-0.45 h -18.9 v 3.5 H 71.6 Z m 1.1,-7.95 h -18.9 v 3.5 H 71.6 l 0.05,-0.05 h 0.65 c 0.467,0 0.883,-0.183 1.25,-0.55 0.333,-0.333 0.5,-0.733 0.5,-1.2 0,-0.467 -0.167,-0.883 -0.5,-1.25 -0.267,-0.233 -0.533,-0.383 -0.8,-0.45 M -48.15,-26 h -4 v 11 h 4 z m -5,0 h -3.9 v 8.6 c 0,1.6 0.8,2.4 2.4,2.4 h 1.5 z m -27.4,0 h -4.1 v 11 H -83 c 1.633,0 2.45,-0.8 2.45,-2.4 z m -5.1,0 h -3.75 v 11 h 3.75 z M -83,0 h -1.65 v 12.5 h 4.1 V 2.4 C -80.55,0.8 -81.367,0 -83,0 m -2.65,0 h -3.75 v 12.5 h 3.75 z m 32.5,0 h -1.5 c -1.6,0 -2.4,0.8 -2.4,2.4 v 10.1 h 3.9 z m 5,0 h -4 v 12.5 h 4 z m 1,12.5 h 3.9 V 0 h -3.9 z m 4.9,0 h 4 V 0 h -4 z m 5,-12.5 v 12.5 h 3.9 V 2.4 c 0,-1.6 -0.8,-2.4 -2.4,-2.4 z m -9.9,-15 h 3.9 v -11 h -3.9 z m 4.9,0 h 4 v -11 h -4 z m 5,-11 v 11 h 1.5 c 1.6,0 2.4,-0.8 2.4,-2.4 V -26 Z M -95.3,2.4 c 0,-2.267 1.133,-3.4 3.4,-3.4 h 8.9 c 2.3,0 3.45,1.133 3.45,3.4 v 10.1 h 21.5 V 2.4 c 0,-2.267 1.133,-3.4 3.4,-3.4 h 18.9 c 2.267,0 3.4,1.133 3.4,3.4 v 10.1 h 21.5 V 2.4 c 0,-2.267 1.15,-3.4 3.45,-3.4 h 8.9 c 2.267,0 3.4,1.133 3.4,3.4 V 12.5 H 7 V -7 H -97.4 v 19.5 h 2.1 z m -2.1,20.25 H 7 v -2 H -97.4 Z m 0,-3 H 7 V 13.5 H -97.4 Z m -32.5,-30.4 c -0.4,-2.733 -0.883,-5.333 -1.45,-7.8 -0.467,-1.933 -0.983,-3.8 -1.55,-5.6 v 5.2 0.1 10.2 0.1 c -0.2,3.167 0.8,6.65 3,10.45 z m 35.6,-6.65 c 0,1.6 0.8,2.4 2.4,2.4 h 1.5 v -11 h -3.9 z m 0,19.8 v 10.1 h 3.9 V 0 h -1.5 c -1.6,0 -2.4,0.8 -2.4,2.4 M -97.4,-26 V -8 H 7 V -26 H 4.9 v 8.6 c 0,2.267 -1.133,3.4 -3.4,3.4 h -8.9 c -2.3,0 -3.45,-1.133 -3.45,-3.4 V -26 h -21.5 v 8.6 c 0,2.267 -1.133,3.4 -3.4,3.4 h -18.9 c -2.267,0 -3.4,-1.133 -3.4,-3.4 V -26 h -21.5 v 8.6 c 0,2.267 -1.15,3.4 -3.45,3.4 h -8.9 c -2.267,0 -3.4,-1.133 -3.4,-3.4 V -26 Z m -46.85,-55.45 v -3.45 h -19.15 c -0.233,0.067 -0.45,0.2 -0.65,0.4 -0.333,0.367 -0.5,0.783 -0.5,1.25 0,0.467 0.167,0.867 0.5,1.2 0.367,0.367 0.783,0.55 1.25,0.55 h 0.75 c 0,0.033 0.017,0.05 0.05,0.05 z m 5.25,7.95 v 16.35 l 1.1,2.05 v -18.4 z m 5.9,-43.25 h -1.8 v 16.25 h 1.8 z m -11.15,30.85 v -3.5 h -19.15 c -0.233,0.067 -0.45,0.2 -0.65,0.4 -0.333,0.367 -0.5,0.783 -0.5,1.25 0,0.467 0.167,0.867 0.5,1.2 0.367,0.367 0.783,0.55 1.25,0.55 h 0.8 c 0,0.033 0.017,0.067 0.05,0.1 z m 0,-4.5 v -3.5 h -19.15 c -0.233,0.067 -0.45,0.2 -0.65,0.4 -0.333,0.367 -0.5,0.783 -0.5,1.25 0,0.467 0.167,0.867 0.5,1.2 0.367,0.367 0.783,0.55 1.25,0.55 h 0.85 c 0,0.033 0.017,0.067 0.05,0.1 z m 0,12.9 v -2.95 h -18.95 c -0.3,0.067 -0.583,0.217 -0.85,0.45 -0.333,0.367 -0.5,0.783 -0.5,1.25 0,0.467 0.167,0.867 0.5,1.2 0.367,0.367 0.783,0.55 1.25,0.55 h 1.45 c 0,0.033 0.017,0.05 0.05,0.05 h 17.05 c -0.033,-0.167 -0.033,-0.35 0,-0.55 m 4.25,4 h -1.7 c -1.433,-0.067 -2.267,-0.883 -2.5,-2.45 h -17.05 v 11.55 c 0,1.267 0.017,2.533 0.05,3.8 0.733,24.9 9.167,38.25 25.3,40.05 V -31.9 c -0.567,-1.2 -1.167,-2.367 -1.8,-3.5 -0.133,-0.233 -0.2,-0.483 -0.2,-0.75 v -16.8 l -2.05,-3.8 C -139.983,-56.817 -140,-56.9 -140,-57 Z M -164.05,-98 c -0.333,0.367 -0.5,0.783 -0.5,1.25 0,0.467 0.167,0.867 0.5,1.2 0.367,0.367 0.783,0.55 1.25,0.55 h 0.75 c 0,0.033 0.017,0.067 0.05,0.1 h 17.75 v -3.5 h -19.15 c -0.233,0.067 -0.45,0.2 -0.65,0.4 m 84.35,27.5 h -2.05 v 11.75 h 2.05 z m 68,0 h -6.15 c -2.333,0 -3.5,1.167 -3.5,3.5 v 4.75 c 0,2.333 1.167,3.5 3.5,3.5 h 6.15 z m -107.75,-41.95 c -0.267,0.933 -0.383,2.05 -0.35,3.35 V 27.85 h 15.85 V -117 h -7.95 c -4.167,-0.133 -6.683,1.383 -7.55,4.55 m -24.8,-18.35 v -3.45 h -19.15 c -0.233,0.067 -0.45,0.2 -0.65,0.4 -0.333,0.367 -0.5,0.783 -0.5,1.25 0,0.467 0.167,0.867 0.5,1.2 0.367,0.367 0.783,0.55 1.25,0.55 h 0.75 c 0,0.033 0.017,0.05 0.05,0.05 z m 0,4.5 v -3.5 h -18.95 c -0.3,0.067 -0.583,0.217 -0.85,0.45 -0.333,0.367 -0.5,0.783 -0.5,1.25 0,0.467 0.167,0.867 0.5,1.2 0.367,0.367 0.783,0.55 1.25,0.55 h 0.75 c 0,0.033 0.017,0.05 0.05,0.05 z m 0,4.5 v -3.5 h -18.95 c -0.3,0.067 -0.583,0.217 -0.85,0.45 -0.333,0.367 -0.5,0.783 -0.5,1.25 0,0.467 0.167,0.867 0.5,1.2 0.367,0.367 0.783,0.55 1.25,0.55 h 0.75 c 0,0.033 0.017,0.05 0.05,0.05 z m -17.75,4.45 c 0,0.033 0.017,0.05 0.05,0.05 h 17.7 v -3.5 h -18.95 c -0.3,0.067 -0.583,0.217 -0.85,0.45 -0.333,0.367 -0.5,0.783 -0.5,1.25 0,0.467 0.167,0.867 0.5,1.2 0.367,0.367 0.783,0.55 1.25,0.55 z m -1.2,1.05 c -0.3,0.067 -0.583,0.217 -0.85,0.45 -0.333,0.367 -0.5,0.783 -0.5,1.25 0,0.467 0.167,0.867 0.5,1.2 0.367,0.367 0.767,0.55 1.2,0.55 h 18.6 v -3.45 z m -0.85,4.95 c -0.333,0.367 -0.5,0.783 -0.5,1.25 0,0.467 0.167,0.867 0.5,1.2 0.367,0.367 0.767,0.55 1.2,0.55 h 18.6 v -3.5 h -18.6 c -0.433,0 -0.833,0.167 -1.2,0.5 m 0,4.5 c -0.333,0.367 -0.5,0.783 -0.5,1.25 0,0.467 0.167,0.867 0.5,1.2 0.367,0.367 0.767,0.55 1.2,0.55 h 18.6 v -3.5 h -18.6 c -0.433,0 -0.833,0.167 -1.2,0.5 m 1.2,4 c -0.433,0 -0.833,0.167 -1.2,0.5 -0.333,0.367 -0.5,0.783 -0.5,1.25 0,0.467 0.167,0.867 0.5,1.2 0.267,0.267 0.55,0.433 0.85,0.5 h 18.95 v -3.45 z m 84.15,32.35 v 11.75 h 6.15 c 2.333,0 3.5,-1.167 3.5,-3.5 V -67 c 0,-2.333 -1.167,-3.5 -3.5,-3.5 z m 9.65,-62 v -4.75 c 0,-2.333 -1.167,-3.5 -3.5,-3.5 H -78.7 V -129 h 6.15 c 2.333,0 3.5,-1.167 3.5,-3.5 m -12.7,3.5 h 2.05 v -11.75 h -2.05 z m 63.9,-11.75 c -2.333,0 -3.5,1.167 -3.5,3.5 v 4.75 c 0,2.333 1.167,3.5 3.5,3.5 h 6.15 v -11.75 z m 0,-28.75 c -2.333,0 -3.5,1.167 -3.5,3.5 v 4.75 c 0,2.333 1.167,3.5 3.5,3.5 h 6.15 v -11.75 z m -54.7,-46.5 h -6.15 v 11.75 h 6.15 c 2.333,0 3.5,-1.167 3.5,-3.5 v -4.75 c 0,-2.333 -1.167,-3.5 -3.5,-3.5 m -9.2,11.75 h 2.05 V -216 h -2.05 z m 9.2,34.75 h -6.15 v 11.75 h 6.15 c 2.333,0 3.5,-1.167 3.5,-3.5 V -166 c 0,-2.333 -1.167,-3.5 -3.5,-3.5 m -7.15,0 h -2.05 v 11.75 h 2.05 z m 61.85,-46.5 c -2.333,0 -3.5,1.167 -3.5,3.5 v 4.75 c 0,2.333 1.167,3.5 3.5,3.5 h 6.15 V -216 Z m -114.9,-101.3 c 0,-1.4 -0.7,-2.1 -2.1,-2.1 h -14.25 c -1.433,0 -2.15,0.7 -2.15,2.1 v 10.6 c 0,1.433 0.717,2.15 2.15,2.15 h 14.25 c 1.4,0 2.1,-0.717 2.1,-2.15 z m -8.3,34.3 c -0.1,0.2 -0.233,0.383 -0.4,0.55 -0.3,0.3 -0.65,0.45 -1.05,0.45 h -3.4 v 103.75 c 0.167,0.167 0.35,0.333 0.55,0.5 0.2,0.2 0.333,0.433 0.4,0.7 0.233,0.033 0.45,0.15 0.65,0.35 1.867,1.633 4,3.467 6.4,5.5 v -93.85 c 0,-0.3 0.083,-0.567 0.25,-0.8 4.067,-6.2 8.95,-11.917 14.65,-17.15 z m 0.05,-10.5 v 3.1 h 27.05 c 0.333,-0.233 0.667,-0.467 1,-0.7 1.1,-0.833 2.25,-1.633 3.45,-2.4 z m 0,4.1 v 5.4 h 19.1 c 0.233,-0.2 0.483,-0.4 0.75,-0.6 1.867,-1.633 3.817,-3.233 5.85,-4.8 z m -5.9,7.4 h -3.35 c -1.667,0 -2.5,0.833 -2.5,2.5 v 3.4 c 0,0.267 -0.067,0.517 -0.2,0.75 0.133,0.233 0.2,0.483 0.2,0.75 v 87.95 c 0.267,1.433 2.217,3.917 5.85,7.45 z m -8.85,8.9 h -4.75 c -2.567,0.5 -3.983,1.917 -4.25,4.25 -0.033,0.167 -0.067,0.333 -0.1,0.5 0.067,0.167 0.1,0.367 0.1,0.6 v 87.65 l 3,2.75 c 0.167,0.133 0.3,0.3 0.4,0.5 0.067,0.2 0.1,0.4 0.1,0.6 v 0.7 l 12.1,11.15 c 3.3,3.067 5.217,7.483 5.75,13.25 0,0.1 -0.017,0.183 -0.05,0.25 0.067,0.067 0.1,0.167 0.1,0.3 0.033,0.5 0.067,1.017 0.1,1.55 v 71.65 c -0.033,0.333 -0.033,0.633 0,0.9 v 0.05 c 0.1,1.2 0.617,1.85 1.55,1.95 h 3.8 v -92.85 c -3.267,-2.667 -6.067,-5.033 -8.4,-7.1 -0.233,-0.233 -0.383,-0.467 -0.45,-0.7 -0.233,-0.067 -0.45,-0.2 -0.65,-0.4 -5.467,-5.1 -8.25,-8.7 -8.35,-10.8 v -0.15 z m -12,6.85 h -2 v 74 l 2,1.85 z m 54.4,-12.9 c -3,2.367 -5.8,4.8 -8.4,7.3 v 61.35 c 0.3,4.033 1.233,7.317 2.8,9.85 1.6,2.567 3.483,5.05 5.65,7.45 v -0.05 c 0.8,0.9 1.65,1.8 2.55,2.7 0.9,0.833 1.733,1.7 2.5,2.6 v -95.15 c -1.767,1.267 -3.467,2.583 -5.1,3.95 m -9.4,8.3 c -4.633,4.6 -8.683,9.433 -12.15,14.5 v 88.15 0.15 50.3 h 2.3 c 0.133,0 0.25,0.05 0.35,0.15 0.1,0.1 0.15,0.217 0.15,0.35 V -100 c 0,0.133 -0.05,0.25 -0.15,0.35 -0.1,0.1 -0.217,0.15 -0.35,0.15 h -2.3 v 62.95 c 0.6,1.133 1.183,2.3 1.75,3.5 0.033,0.067 0.083,0.15 0.15,0.25 1.867,4.133 3.383,8.65 4.55,13.55 v 0.05 c 0.6,2.633 1.117,5.383 1.55,8.25 v 0.2 38.6 h 6.1 V -109.1 c -0.033,-1.367 0.1,-2.567 0.4,-3.6 0.967,-3.667 3.8,-5.433 8.5,-5.3 h 7.95 v -58.05 c -0.267,-3.533 -1.667,-6.933 -4.2,-10.2 -0.967,-1.2 -2.067,-2.383 -3.3,-3.55 v -0.05 c -0.9,-0.9 -1.767,-1.8 -2.6,-2.7 -2.2,-2.433 -4.117,-4.95 -5.75,-7.55 v -0.05 c -1.667,-2.667 -2.65,-6.1 -2.95,-10.3 z m 17.2,62.5 c 0,-0.933 -0.467,-1.4 -1.4,-1.4 h -0.3 v 5.05 h 0.3 c 0.933,0 1.4,-0.467 1.4,-1.4 z m -38.75,57.55 c -0.067,-0.067 -0.1,-0.15 -0.1,-0.25 -0.533,-5.5 -2.35,-9.7 -5.45,-12.6 l -11.4,-10.5 v 38.9 h 17 V -149 c -0.033,-0.533 -0.067,-1.05 -0.1,-1.55 0,-0.1 0.017,-0.183 0.05,-0.25 m -6.95,-175.1 v 0.4 h 18.5 v -0.4 c -0.033,-1.333 -0.733,-2 -2.1,-2 h -14.25 c -1.4,0 -2.117,0.667 -2.15,2 m 71.55,61.4 h -2.1 v 11.75 h 2.1 z m 7.15,12.75 h -9.2 V -217 h 9.2 c 3,0 4.5,1.5 4.5,4.5 v 4.75 c 0,3 -1.5,4.5 -4.5,4.5 h -9.2 v 32.75 h 9.2 c 3,0 4.5,1.5 4.5,4.5 v 4.75 c 0,3 -1.5,4.5 -4.5,4.5 h -9.2 v 15 h 9.2 c 3,0 4.5,1.5 4.5,4.5 v 4.75 c 0,3 -1.5,4.5 -4.5,4.5 h -9.2 v 56.5 h 9.2 c 3,0 4.5,1.5 4.5,4.5 v 4.75 c 0,3 -1.5,4.5 -4.5,4.5 h -9.2 V -36 h 31.1 v -114.6 c 0,-0.1 0.033,-0.183 0.1,-0.25 -0.067,-0.067 -0.1,-0.15 -0.1,-0.25 V -306 h -31.1 v 40.5 h 9.2 c 3,0 4.5,1.5 4.5,4.5 v 4.75 c 0,3 -1.5,4.5 -4.5,4.5 m 60.85,-12.75 h -6.15 c -2.333,0 -3.5,1.167 -3.5,3.5 v 4.75 c 0,2.333 1.167,3.5 3.5,3.5 h 6.15 z m -91.55,-61.35 c -0.033,-1.367 -0.75,-2.05 -2.15,-2.05 h -14.25 c -1.367,0 -2.067,0.683 -2.1,2.05 v 0.35 h 18.5 z m 4,5.65 c -0.067,-1.533 -0.9,-2.3 -2.5,-2.3 h -21.5 c -0.4,0 -0.767,0.033 -1.1,0.1 h 0.05 c -0.933,0.3 -1.417,1.067 -1.45,2.3 v 0.05 c 0,0.4 -0.15,0.75 -0.45,1.05 l -0.05,0.05 v 15.15 c 0.067,1.867 1.067,2.8 3,2.8 h 21.5 c 0.467,0 0.883,-0.05 1.25,-0.15 0.033,-0.033 0.067,-0.083 0.1,-0.15 0.067,-0.233 0.217,-0.433 0.45,-0.6 0.467,-0.433 0.7,-1.133 0.7,-2.1 z m -29.5,0.1 c -0.033,-1.6 -0.867,-2.4 -2.5,-2.4 h -21.5 c -1.667,0 -2.5,0.833 -2.5,2.5 v 16 c 0,1.333 0.533,2.15 1.6,2.45 0.333,0.067 0.617,0.233 0.85,0.5 0,0.033 0.017,0.05 0.05,0.05 h 21.5 c 1.967,0 2.967,-0.933 3,-2.8 v -15.15 l -0.05,-0.05 c -0.3,-0.3 -0.45,-0.65 -0.45,-1.05 z m 9.1,0.7 c -1.4,0 -2.1,0.7 -2.1,2.1 v 10.6 c 0,1.433 0.7,2.15 2.1,2.15 h 14.25 c 1.433,0 2.15,-0.717 2.15,-2.15 v -10.6 c 0,-1.4 -0.717,-2.1 -2.15,-2.1 z m -7.6,18.9 c -0.833,1 -2.167,1.5 -4,1.5 h -21.25 v 0.5 c 0,1.667 0.833,2.5 2.5,2.5 h 7.5 c 0.4,0 0.75,0.15 1.05,0.45 0.033,0 0.05,0.017 0.05,0.05 h 35.1 c 0.133,-0.1 0.283,-0.183 0.45,-0.25 0.833,-0.533 1.7,-1.067 2.6,-1.6 0.133,-0.1 0.267,-0.2 0.4,-0.3 l 0.05,-0.05 0.2,-0.2 0.1,-0.1 c 0.3,-0.3 0.583,-0.633 0.85,-1 h -0.1 -21.5 c -1.833,0 -3.167,-0.5 -4,-1.5 m 7.6,-3.05 c -2.067,0 -3.1,-1.05 -3.1,-3.15 v -10.6 c 0,-2.067 1.033,-3.1 3.1,-3.1 h 14.25 c 2.1,0 3.15,1.033 3.15,3.1 v 10.6 c 0,2.1 -1.05,3.15 -3.15,3.15 z m -12.1,-13.75 v 10.6 c 0,2.1 -1.033,3.15 -3.1,3.15 h -14.25 c -2.1,0 -3.15,-1.05 -3.15,-3.15 v -10.6 c 0,-2.067 1.05,-3.1 3.15,-3.1 h 14.25 c 2.067,0 3.1,1.033 3.1,3.1 m 53.05,52.8 v 11.75 h 6.15 c 2.333,0 3.5,-1.167 3.5,-3.5 V -261 c 0,-2.333 -1.167,-3.5 -3.5,-3.5 z M -91,-338.25 h -5.25 v 17.95 0.15 10.25 H -91 Z m 30.45,5.9 c 0.2,-0.4 0.467,-0.767 0.8,-1.1 0.067,-0.067 0.133,-0.133 0.2,-0.2 h -2.05 c 0.067,0.067 0.133,0.133 0.2,0.2 0.333,0.333 0.617,0.7 0.85,1.1 m -9.75,-0.05 c -0.2,0.1 -0.383,0.217 -0.55,0.35 h 0.05 c -0.5,0.5 -0.75,1.1 -0.75,1.8 v 7 h 10.5 v -7.3 c -0.033,-0.767 -0.383,-1.5 -1.05,-2.2 -0.5,-0.5 -1.05,-0.8 -1.65,-0.9 h -5.75 c 0,0.133 -0.017,0.267 -0.05,0.4 -0.133,0.367 -0.383,0.65 -0.75,0.85 m -14.45,-5.85 H -90 v 28.35 h 5.25 z m 0,37.5 v -2.75 h -11.5 c -0.067,1.367 -0.417,2.45 -1.05,3.25 0.8,-0.3 1.6,-0.467 2.4,-0.5 z m 0,2.3 v -1.3 h -10.1 c -1.167,0.067 -2.333,0.433 -3.5,1.1 -0.567,1.067 -1.25,1.983 -2.05,2.75 -0.033,0.033 -0.067,0.067 -0.1,0.1 -0.067,0.067 -0.133,0.133 -0.2,0.2 -0.067,0.067 -0.133,0.133 -0.2,0.2 -0.1,0.1 -0.183,0.183 -0.25,0.25 -0.067,0.033 -0.133,0.067 -0.2,0.1 -0.1,0.1 -0.2,0.183 -0.3,0.25 -0.933,0.533 -1.817,1.067 -2.65,1.6 -2.4,1.433 -4.7,2.95 -6.9,4.55 h -0.05 c -0.5,0.333 -1.017,0.7 -1.55,1.1 -2.233,1.667 -4.367,3.4 -6.4,5.2 -6.2,5.367 -11.433,11.283 -15.7,17.75 v 6.45 c 3.5,-4.967 7.6,-9.717 12.3,-14.25 h 0.05 c 2.633,-2.6 5.483,-5.117 8.55,-7.55 v 0.05 c 1.9,-1.6 3.883,-3.117 5.95,-4.55 l 0.05,-0.05 c 6.133,-4.433 12.95,-8.6 20.45,-12.5 h -0.05 c 0.933,-0.5 1.883,-0.983 2.85,-1.45 m 0,1.1 c -0.8,0.4 -1.583,0.817 -2.35,1.25 -7.367,3.833 -14.083,7.917 -20.15,12.25 v 73.1 h 0.3 c 1.6,0 2.4,0.8 2.4,2.4 v 2.25 c 0,1.6 -0.8,2.4 -2.4,2.4 h -0.3 v 17 c 2.6,3.4 4.033,6.95 4.3,10.65 v 203.9 h 2.55 v -289.9 -0.1 c 0.867,-10.5 6.083,-16.767 15.65,-18.8 z m 0,-11.55 h -11.5 v 4.4 h 11.5 z m 35.1,2.9 v 154.9 c 0,0.1 -0.017,0.183 -0.05,0.25 0.033,0.067 0.05,0.15 0.05,0.25 V -36 h 8.9 v -114.6 c 0,-0.1 0.017,-0.183 0.05,-0.25 -0.033,-0.067 -0.05,-0.15 -0.05,-0.25 V -306 Z m 0.75,-27.45 c 0.067,-0.067 0.15,-0.133 0.25,-0.2 h -2.95 c 0.067,0.067 0.133,0.133 0.2,0.2 0.667,0.667 1.083,1.417 1.25,2.25 0.167,-0.833 0.583,-1.583 1.25,-2.25 m 2.35,-0.2 c -0.633,0.133 -1.183,0.433 -1.65,0.9 -0.7,0.7 -1.05,1.533 -1.05,2.5 v 7 h 8.1 v -7 c 0,-0.967 -0.35,-1.8 -1.05,-2.5 -0.467,-0.467 -1.017,-0.767 -1.65,-0.9 h -1.95 -0.1 z m -4.5,10.4 v -7 c 0,-0.967 -0.35,-1.8 -1.05,-2.5 -0.433,-0.433 -0.933,-0.733 -1.5,-0.9 h -0.1 -3.65 c -0.633,0.133 -1.2,0.45 -1.7,0.95 v -0.05 c -0.667,0.667 -1,1.4 -1,2.2 v 7.3 z m 12.25,-10.4 h -2.95 c 0.1,0.067 0.183,0.133 0.25,0.2 0.667,0.667 1.083,1.417 1.25,2.25 0.167,-0.833 0.583,-1.583 1.25,-2.25 0.067,-0.067 0.133,-0.133 0.2,-0.2 m 8.45,3.1 c 0,-0.8 -0.333,-1.533 -1,-2.2 v 0.05 c -0.5,-0.5 -1.067,-0.817 -1.7,-0.95 h -3.65 -0.1 c -0.567,0.167 -1.067,0.467 -1.5,0.9 -0.7,0.7 -1.05,1.533 -1.05,2.5 v 7 h 9 z m 3.7,-4.1 h 5.75 v -6.6 h -48.6 v 6.6 h 5.75 0.2 6.1 c 0.267,-0.067 0.567,-0.1 0.9,-0.1 h 2 c 0.367,0 0.717,0.033 1.05,0.1 h 6.85 c 0.1,-0.033 0.2,-0.05 0.3,-0.05 v -0.05 l 0.25,0.05 c 0.1,-0.033 0.217,-0.05 0.35,-0.05 h 1.1 c 0.133,0 0.25,0.017 0.35,0.05 l 0.25,-0.05 v 0.05 c 0.1,0 0.2,0.017 0.3,0.05 h 6.85 c 0.333,-0.067 0.683,-0.1 1.05,-0.1 h 2 c 0.333,0 0.633,0.033 0.9,0.1 h 6.1 z m -4.2,1 c 0.067,0.067 0.133,0.133 0.2,0.2 0.333,0.333 0.6,0.7 0.8,1.1 0.233,-0.4 0.517,-0.767 0.85,-1.1 0.067,-0.067 0.133,-0.133 0.2,-0.2 z m 10.75,1.25 c -0.367,-0.2 -0.617,-0.483 -0.75,-0.85 -0.033,-0.133 -0.05,-0.267 -0.05,-0.4 h -5.75 c -0.6,0.1 -1.15,0.4 -1.65,0.9 -0.667,0.7 -1.017,1.433 -1.05,2.2 v 7.3 h 10.5 v -7 c 0,-0.7 -0.25,-1.3 -0.75,-1.8 h 0.05 c -0.167,-0.133 -0.35,-0.25 -0.55,-0.35 m 74,181.6 c 0.033,0.067 0.05,0.15 0.05,0.25 -0.033,0.5 -0.067,1.017 -0.1,1.55 v 13.75 h 17 v -38.9 l -11.4,10.5 c -3.1,2.9 -4.917,7.1 -5.45,12.6 0,0.1 -0.033,0.183 -0.1,0.25 m -64.6,-6.95 h 2.05 v -11.75 h -2.05 z m 25.85,-50.6 v 2.25 c 0,0.933 0.467,1.4 1.4,1.4 h 0.3 v -5.05 h -0.3 c -0.933,0 -1.4,0.467 -1.4,1.4 m -25.85,4.1 h 2.05 V -216 H -10.7 Z M -8.65,-306 h -31.1 v 154.9 c 0,0.1 -0.033,0.183 -0.1,0.25 0.067,0.067 0.1,0.15 0.1,0.25 V -36 h 31.1 v -21.75 h -9.2 c -3,0 -4.5,-1.5 -4.5,-4.5 V -67 c 0,-3 1.5,-4.5 4.5,-4.5 h 9.2 V -128 h -9.2 c -3,0 -4.5,-1.5 -4.5,-4.5 v -4.75 c 0,-3 1.5,-4.5 4.5,-4.5 h 9.2 v -15 h -9.2 c -3,0 -4.5,-1.5 -4.5,-4.5 V -166 c 0,-3 1.5,-4.5 4.5,-4.5 h 9.2 v -32.75 h -9.2 c -3,0 -4.5,-1.5 -4.5,-4.5 v -4.75 c 0,-3 1.5,-4.5 4.5,-4.5 h 9.2 v -34.75 h -9.2 c -3,0 -4.5,-1.5 -4.5,-4.5 V -261 c 0,-3 1.5,-4.5 4.5,-4.5 h 9.2 z m 41,35.15 v 60.4 c -0.3,4.2 -1.283,7.633 -2.95,10.3 v 0.05 c -1.633,2.6 -3.55,5.117 -5.75,7.55 -0.833,0.9 -1.7,1.8 -2.6,2.7 v 0.05 c -1.233,1.167 -2.333,2.35 -3.3,3.55 -2.533,3.267 -3.933,6.667 -4.2,10.2 V -118 h 7.95 c 4.7,-0.133 7.533,1.633 8.5,5.3 0.3,1.033 0.433,2.233 0.4,3.6 V 27.85 h 6.1 v -38.6 -0.2 c 0.433,-2.867 0.95,-5.617 1.55,-8.25 v -0.05 c 1.167,-4.9 2.683,-9.417 4.55,-13.55 0.067,-0.1 0.117,-0.183 0.15,-0.25 0.567,-1.2 1.15,-2.367 1.75,-3.5 V -99.5 h -2.3 c -0.133,0 -0.25,-0.05 -0.35,-0.15 -0.1,-0.1 -0.15,-0.217 -0.15,-0.35 v -17.25 c 0,-0.133 0.05,-0.25 0.15,-0.35 0.1,-0.1 0.217,-0.15 0.35,-0.15 h 2.3 v -50.3 -0.15 -88.15 c -3.467,-5.067 -7.517,-9.9 -12.15,-14.5 M 56.5,-282 v 102.8 c 3.633,-3.533 5.583,-6.017 5.85,-7.45 v -87.95 c 0,-0.267 0.067,-0.517 0.2,-0.75 -0.133,-0.233 -0.2,-0.483 -0.2,-0.75 v -3.4 c 0,-1.667 -0.833,-2.5 -2.5,-2.5 z m -5.9,-7.4 H 24.9 c 2.033,1.567 3.983,3.167 5.85,4.8 0.267,0.2 0.517,0.4 0.75,0.6 h 19.1 z m 0.05,6.4 H 32.6 c 5.7,5.233 10.583,10.95 14.65,17.15 0.167,0.233 0.25,0.5 0.25,0.8 v 93.85 c 2.4,-2.033 4.533,-3.867 6.4,-5.5 0.2,-0.2 0.417,-0.317 0.65,-0.35 0.067,-0.267 0.2,-0.5 0.4,-0.7 0.2,-0.167 0.383,-0.333 0.55,-0.5 V -282 h -3.4 c -0.4,0 -0.75,-0.15 -1.05,-0.45 -0.167,-0.167 -0.3,-0.35 -0.4,-0.55 m -61.35,30.25 h 2.1 v -11.75 h -2.1 z M -5.6,-265 v 12.75 c 0,0.133 -0.017,0.267 -0.05,0.4 V -34.5 c 0,0.4 -0.15,0.75 -0.45,1.05 -0.3,0.3 -0.65,0.45 -1.05,0.45 h -76.1 c -0.4,0 -0.75,-0.15 -1.05,-0.45 -0.3,-0.3 -0.45,-0.65 -0.45,-1.05 v -217.35 c -0.033,-0.133 -0.05,-0.267 -0.05,-0.4 V -265 c 0,-0.133 0.017,-0.25 0.05,-0.35 v -12.55 c -7.733,1.933 -11.95,7.267 -12.65,16 V -29 H 7 v -232.9 c -0.7,-8.733 -4.917,-14.067 -12.65,-16 v 12.55 c 0.033,0.1 0.05,0.217 0.05,0.35 m 23.45,-18.1 v 95.15 c 0.767,-0.9 1.6,-1.767 2.5,-2.6 0.9,-0.9 1.75,-1.8 2.55,-2.7 v 0.05 c 2.167,-2.4 4.05,-4.883 5.65,-7.45 1.567,-2.533 2.5,-5.817 2.8,-9.85 v -61.35 c -2.6,-2.5 -5.4,-4.933 -8.4,-7.3 -1.633,-1.367 -3.333,-2.683 -5.1,-3.95 m 5.7,-7.3 H 50.6 v -3.1 H 19.1 c 1.2,0.767 2.35,1.567 3.45,2.4 0.333,0.233 0.667,0.467 1,0.7 m -32.2,-29.85 h -31.2 c -0.133,0 -0.267,-0.017 -0.4,-0.05 -0.133,0.033 -0.267,0.05 -0.4,0.05 h -9.1 c -0.133,0 -0.267,-0.017 -0.4,-0.05 -0.133,0.033 -0.267,0.05 -0.4,0.05 h -31.2 v 1 h 73.1 z m 0,8.5 h -73.1 v 4.75 h 73.1 z m 14.5,2.85 h -11.5 v 4.4 h 11.5 z m -11.5,11.55 v 16.4 c 9.567,2.033 14.783,8.3 15.65,18.8 v 0.1 289.9 h 2.55 v -203.9 c 0.267,-3.7 1.7,-7.25 4.3,-10.65 v -17 h -0.3 c -1.6,0 -2.4,-0.8 -2.4,-2.4 v -2.25 c 0,-1.6 0.8,-2.4 2.4,-2.4 h 0.3 v -73.1 c -6.067,-4.333 -12.783,-8.417 -20.15,-12.25 -0.767,-0.433 -1.55,-0.85 -2.35,-1.25 m 0,-1.1 c 0.967,0.467 1.917,0.95 2.85,1.45 h -0.05 c 7.5,3.9 14.317,8.067 20.45,12.5 l 0.05,0.05 c 2.067,1.433 4.05,2.95 5.95,4.55 v -0.05 c 3.067,2.433 5.917,4.95 8.55,7.55 h 0.05 c 4.7,4.533 8.8,9.283 12.3,14.25 v -6.45 c -4.267,-6.467 -9.5,-12.383 -15.7,-17.75 -2.033,-1.8 -4.167,-3.533 -6.4,-5.2 -0.533,-0.4 -1.05,-0.767 -1.55,-1.1 H 20.8 c -2.2,-1.6 -4.5,-3.117 -6.9,-4.55 -0.833,-0.533 -1.717,-1.067 -2.65,-1.6 -0.1,-0.067 -0.2,-0.15 -0.3,-0.25 -0.067,-0.033 -0.133,-0.067 -0.2,-0.1 l -0.25,-0.25 -0.2,-0.2 -0.2,-0.2 c -0.033,-0.033 -0.067,-0.067 -0.1,-0.1 -0.8,-0.767 -1.483,-1.683 -2.05,-2.75 -1.167,-0.667 -2.333,-1.033 -3.5,-1.1 h -10.1 z m 0,-2.3 H 4.5 c 0.8,0.033 1.6,0.2 2.4,0.5 -0.633,-0.8 -0.983,-1.883 -1.05,-3.25 h -11.5 z m -3,-13.5 h -73.1 v 1.5 h 73.1 z m 0,-4 h -73.1 v 3 h 73.1 z m 3,8.35 h 5.25 v -28.35 h -5.25 z m 11.5,-28.35 H 0.6 v 28.35 h 5.25 v -10.25 -0.15 z m 25.5,20.95 c 0,-1.4 -0.7,-2.1 -2.1,-2.1 H 15 c -1.433,0 -2.15,0.7 -2.15,2.1 v 10.6 c 0,1.433 0.717,2.15 2.15,2.15 h 14.25 c 1.4,0 2.1,-0.717 2.1,-2.15 z m 1,10.6 c 0,2.1 -1.033,3.15 -3.1,3.15 H 15 c -2.1,0 -3.15,-1.05 -3.15,-3.15 v -10.6 c 0,-2.067 1.05,-3.1 3.15,-3.1 h 14.25 c 2.067,0 3.1,1.033 3.1,3.1 z m 9,0 v -10.6 c 0,-2.067 1.033,-3.1 3.1,-3.1 H 58.7 c 2.1,0 3.15,1.033 3.15,3.1 v 10.6 c 0,2.1 -1.05,3.15 -3.15,3.15 H 44.45 c -2.067,0 -3.1,-1.05 -3.1,-3.15 m -8.5,7.7 h -21.5 -0.1 c 0.267,0.367 0.55,0.7 0.85,1 0.033,0.033 0.067,0.067 0.1,0.1 l 0.2,0.2 0.05,0.05 c 0.133,0.1 0.267,0.2 0.4,0.3 0.9,0.533 1.767,1.067 2.6,1.6 0.167,0.067 0.317,0.15 0.45,0.25 H 51 c 0,-0.033 0.017,-0.05 0.05,-0.05 0.3,-0.3 0.65,-0.45 1.05,-0.45 h 7.5 c 1.667,0 2.5,-0.833 2.5,-2.5 V -299 H 40.85 c -1.833,0 -3.167,-0.5 -4,-1.5 -0.833,1 -2.167,1.5 -4,1.5 m 9.5,-18.3 v 10.6 c 0,1.433 0.7,2.15 2.1,2.15 H 58.7 c 1.433,0 2.15,-0.717 2.15,-2.15 v -10.6 c 0,-1.4 -0.717,-2.1 -2.15,-2.1 H 44.45 c -1.4,0 -2.1,0.7 -2.1,2.1 m -11,-8.55 c -0.033,-1.367 -0.733,-2.05 -2.1,-2.05 H 15 c -1.4,0 -2.117,0.683 -2.15,2.05 v 0.35 h 18.5 z m 2.6,3.45 c -0.333,-0.067 -0.7,-0.1 -1.1,-0.1 h -21.5 c -1.6,0 -2.433,0.767 -2.5,2.3 v 16.2 c 0,0.967 0.233,1.667 0.7,2.1 0.233,0.167 0.383,0.367 0.45,0.6 0.033,0.067 0.067,0.117 0.1,0.15 0.367,0.1 0.783,0.15 1.25,0.15 h 21.5 c 1.933,0 2.933,-0.933 3,-2.8 v -15.15 L 35.8,-319 c -0.3,-0.3 -0.45,-0.65 -0.45,-1.05 v -0.05 c 0,-0.6 -0.117,-1.083 -0.35,-1.45 -0.233,-0.4 -0.6,-0.683 -1.1,-0.85 z m 28.4,-0.1 h -21.5 c -1.633,0 -2.467,0.8 -2.5,2.4 v 0.05 c 0,0.4 -0.15,0.75 -0.45,1.05 l -0.05,0.05 v 15.15 c 0.033,1.867 1.033,2.8 3,2.8 h 21.5 c 0.033,0 0.05,-0.017 0.05,-0.05 0.233,-0.267 0.517,-0.433 0.85,-0.5 1.067,-0.3 1.6,-1.117 1.6,-2.45 v -16 c 0,-1.667 -0.833,-2.5 -2.5,-2.5 m -3.65,-5.4 H 44.45 c -1.367,0 -2.067,0.683 -2.1,2.05 v 0.35 h 18.5 v -0.35 c -0.033,-1.367 -0.75,-2.05 -2.15,-2.05 m 18.65,61.65 v 75.85 l 2,-1.85 v -74 z m -3,-2.6 c -0.267,-2.333 -1.683,-3.75 -4.25,-4.25 h -4.75 v 86.6 0.15 c -0.1,2.1 -2.883,5.7 -8.35,10.8 -0.2,0.2 -0.417,0.333 -0.65,0.4 -0.067,0.233 -0.217,0.467 -0.45,0.7 -2.333,2.067 -5.133,4.433 -8.4,7.1 v 92.85 h 3.8 c 0.933,-0.1 1.45,-0.75 1.55,-1.95 v -0.05 c 0.033,-0.267 0.033,-0.567 0,-0.9 v -71.65 c 0.033,-0.533 0.067,-1.05 0.1,-1.55 0,-0.133 0.033,-0.233 0.1,-0.3 -0.033,-0.067 -0.05,-0.15 -0.05,-0.25 0.533,-5.767 2.45,-10.183 5.75,-13.25 l 12.1,-11.15 v -0.7 c 0,-0.2 0.033,-0.4 0.1,-0.6 0.1,-0.2 0.233,-0.367 0.4,-0.5 l 3,-2.75 v -87.65 c 0,-0.233 0.033,-0.433 0.1,-0.6 -0.033,-0.167 -0.067,-0.333 -0.1,-0.5 m 8,1.1 v 76.15 c 0,0.2 -0.05,0.4 -0.15,0.6 -0.067,0.2 -0.183,0.367 -0.35,0.5 l -4.5,4.2 v 6.8 c 0,0.2 -0.05,0.4 -0.15,0.6 -0.067,0.2 -0.183,0.367 -0.35,0.5 l -3,2.8 v 39.45 c 0.633,0.133 1.2,0.417 1.7,0.85 0.067,0 0.1,0.017 0.1,0.05 0.833,0.733 1.233,1.6 1.2,2.6 v 0.25 c 0,0.8 -0.25,1.517 -0.75,2.15 0.5,0.6 0.75,1.3 0.75,2.1 v 0.2 0.3 c -0.033,0.7 -0.283,1.317 -0.75,1.85 0.5,0.633 0.75,1.333 0.75,2.1 v 0.15 0.15 c 0,0.8 -0.25,1.5 -0.75,2.1 0.5,0.633 0.75,1.333 0.75,2.1 v 0.25 c 0,0.8 -0.25,1.517 -0.75,2.15 0.5,0.6 0.75,1.3 0.75,2.1 v 0.15 0.1 c 0,0.767 -0.25,1.467 -0.75,2.1 0.5,0.633 0.75,1.333 0.75,2.1 v 0.15 0.15 c 0,0.8 -0.25,1.5 -0.75,2.1 0.5,0.633 0.75,1.333 0.75,2.1 v 0.25 c 0,0.8 -0.25,1.517 -0.75,2.15 0.5,0.6 0.75,1.3 0.75,2.1 v 0.15 0.1 c 0,0.8 -0.25,1.517 -0.75,2.15 0.5,0.6 0.75,1.3 0.75,2.1 v 0.15 0.1 c 0,0.8 -0.25,1.5 -0.75,2.1 0.5,0.633 0.75,1.333 0.75,2.1 v 0.2 0.3 c -0.033,0.7 -0.283,1.333 -0.75,1.9 0.5,0.633 0.75,1.333 0.75,2.1 v 0.15 0.1 c 0,0.8 -0.25,1.517 -0.75,2.15 0.5,0.6 0.75,1.3 0.75,2.1 v 0.25 c 0,0.767 -0.25,1.467 -0.75,2.1 0.5,0.633 0.75,1.333 0.75,2.1 v 0.15 0.15 c 0,1.033 -0.417,1.9 -1.25,2.6 l -0.05,0.05 c -0.5,0.4 -1.067,0.683 -1.7,0.85 v 10.65 c 0,1.333 -0.017,2.633 -0.05,3.9 -0.8,27.133 -10.233,41.45 -28.3,42.95 v 8.8 c 0.4,4.767 -1.6,10.133 -6,16.1 v 22 c 0,0.4 -0.15,0.75 -0.45,1.05 -0.3,0.3 -0.65,0.45 -1.05,0.45 H 8.5 C 8.1,30.85 7.75,30.7 7.45,30.4 7.15,30.1 7,29.75 7,29.35 v -3.7 H -97.4 v 3.7 c 0,0.4 -0.15,0.75 -0.45,1.05 -0.3,0.3 -0.65,0.45 -1.05,0.45 h -29.5 c -0.4,0 -0.75,-0.15 -1.05,-0.45 -0.3,-0.3 -0.45,-0.65 -0.45,-1.05 v -22 c -4.4,-5.967 -6.4,-11.333 -6,-16.1 v -8.8 c -18.067,-1.5 -27.5,-15.817 -28.3,-42.95 -0.033,-1.267 -0.05,-2.567 -0.05,-3.9 v -10.65 c -0.633,-0.167 -1.2,-0.45 -1.7,-0.85 l -0.05,-0.05 c -0.833,-0.7 -1.25,-1.567 -1.25,-2.6 v -0.15 -0.15 c 0,-0.767 0.25,-1.467 0.75,-2.1 -0.5,-0.633 -0.75,-1.333 -0.75,-2.1 v -0.25 c 0,-0.8 0.25,-1.5 0.75,-2.1 -0.5,-0.633 -0.75,-1.35 -0.75,-2.15 v -0.1 -0.15 c 0,-0.767 0.25,-1.467 0.75,-2.1 -0.467,-0.567 -0.717,-1.2 -0.75,-1.9 v -0.3 -0.2 c 0,-0.767 0.25,-1.467 0.75,-2.1 -0.5,-0.6 -0.75,-1.3 -0.75,-2.1 v -0.1 -0.15 c 0,-0.8 0.25,-1.5 0.75,-2.1 -0.5,-0.633 -0.75,-1.35 -0.75,-2.15 v -0.1 -0.15 c 0,-0.8 0.25,-1.5 0.75,-2.1 -0.5,-0.633 -0.75,-1.35 -0.75,-2.15 v -0.25 c 0,-0.767 0.25,-1.467 0.75,-2.1 -0.5,-0.6 -0.75,-1.3 -0.75,-2.1 v -0.15 -0.15 c 0,-0.767 0.25,-1.467 0.75,-2.1 -0.5,-0.633 -0.75,-1.333 -0.75,-2.1 v -0.1 -0.15 c 0,-0.8 0.25,-1.5 0.75,-2.1 -0.5,-0.633 -0.75,-1.35 -0.75,-2.15 v -0.25 c 0,-0.767 0.25,-1.467 0.75,-2.1 -0.5,-0.6 -0.75,-1.3 -0.75,-2.1 v -0.15 -0.15 c 0,-0.767 0.25,-1.467 0.75,-2.1 -0.467,-0.533 -0.717,-1.15 -0.75,-1.85 v -0.3 -0.2 c 0,-0.8 0.25,-1.5 0.75,-2.1 -0.5,-0.633 -0.75,-1.35 -0.75,-2.15 v -0.25 c -0.033,-1 0.367,-1.867 1.2,-2.6 0,-0.033 0.033,-0.05 0.1,-0.05 0.5,-0.433 1.067,-0.717 1.7,-0.85 v -39.45 l -3,-2.8 c -0.167,-0.133 -0.283,-0.3 -0.35,-0.5 -0.1,-0.2 -0.15,-0.4 -0.15,-0.6 v -6.8 l -4.5,-4.2 c -0.167,-0.133 -0.283,-0.3 -0.35,-0.5 -0.1,-0.2 -0.15,-0.4 -0.15,-0.6 v -76.15 c 0,-0.4 0.15,-0.75 0.45,-1.05 0.3,-0.3 0.65,-0.45 1.05,-0.45 h 3.5 c 0.367,-3.833 2.667,-6.1 6.9,-6.8 0.1,-0.033 0.183,-0.05 0.25,-0.05 h 4.85 v -3.4 c 0,-3.667 1.833,-5.5 5.5,-5.5 h 3.35 c 0.167,0 0.333,0.033 0.5,0.1 0.167,-0.067 0.333,-0.1 0.5,-0.1 h 1.9 v -8 h -6 c -3.667,0 -5.5,-1.833 -5.5,-5.5 v -0.45 c -1.833,-0.8 -2.75,-2.483 -2.75,-5.05 v -16 c 0,-3.667 1.833,-5.5 5.5,-5.5 h 0.5 v -1.8 h 0.25 c 0.433,-1.067 1.4,-1.6 2.9,-1.6 h 14.25 c 1.5,0 2.45,0.533 2.85,1.6 h 0.25 v 1.8 h 0.5 c 1.767,0 3.117,0.433 4.05,1.3 0.533,-0.533 1.25,-0.9 2.15,-1.1 h 0.05 c 0.5,-0.133 1.083,-0.2 1.75,-0.2 h 0.5 v -1.55 h 0.15 c 0.367,-1.233 1.35,-1.85 2.95,-1.85 h 14.25 c 1.633,0 2.633,0.617 3,1.85 h 0.15 v 1.55 h 0.5 c 0.967,0 1.8,0.133 2.5,0.4 v -14.65 c 0,-0.4 0.15,-0.75 0.45,-1.05 0.3,-0.3 0.65,-0.45 1.05,-0.45 h 14.5 c 0.4,0 0.75,0.15 1.05,0.45 0.3,0.3 0.45,0.65 0.45,1.05 v 16.5 h 7.2 v -7 c 0,-1.5 0.533,-2.8 1.6,-3.9 0.133,-0.133 0.283,-0.267 0.45,-0.4 v -8.2 c 0,-0.4 0.15,-0.75 0.45,-1.05 0.3,-0.3 0.65,-0.45 1.05,-0.45 h 51.6 c 0.4,0 0.75,0.15 1.05,0.45 0.3,0.3 0.45,0.65 0.45,1.05 v 8.2 c 0.167,0.133 0.317,0.267 0.45,0.4 1.067,1.1 1.6,2.4 1.6,3.9 v 7 h 7.2 v -16.5 c 0,-0.4 0.15,-0.75 0.45,-1.05 0.3,-0.3 0.65,-0.45 1.05,-0.45 h 14.5 c 0.4,0 0.75,0.15 1.05,0.45 0.3,0.3 0.45,0.65 0.45,1.05 v 14.65 c 0.7,-0.267 1.533,-0.4 2.5,-0.4 h 0.5 v -1.55 h 0.2 c 0.333,-1.233 1.317,-1.85 2.95,-1.85 h 14.25 c 1.6,0 2.583,0.617 2.95,1.85 h 0.15 v 1.55 h 0.5 c 0.667,0 1.25,0.067 1.75,0.2 h 0.05 c 0.9,0.2 1.617,0.567 2.15,1.1 0.933,-0.867 2.283,-1.3 4.05,-1.3 h 0.5 v -1.55 h 0.15 c 0.367,-1.233 1.35,-1.85 2.95,-1.85 H 58.7 c 1.633,0 2.633,0.617 3,1.85 h 0.15 v 1.55 h 0.5 c 3.667,0 5.5,1.833 5.5,5.5 v 16 c 0,2.567 -0.917,4.25 -2.75,5.05 v 0.45 c 0,3.667 -1.833,5.5 -5.5,5.5 h -6 v 8 h 1.9 c 0.167,0 0.333,0.033 0.5,0.1 0.167,-0.067 0.333,-0.1 0.5,-0.1 h 3.35 c 3.667,0 5.5,1.833 5.5,5.5 v 3.4 h 4.85 c 0.067,0 0.15,0.017 0.25,0.05 4.233,0.7 6.533,2.967 6.9,6.8 h 3.5 c 0.4,0 0.75,0.15 1.05,0.45 0.3,0.3 0.45,0.65 0.45,1.05"
               style="fill:#666666;fill-opacity:1;fill-rule:evenodd;stroke:none"
               id="path112"
               inkscape:connector-curvature="0" />
          </g>
        </g>
      </g>
    </g>
  </g>
</svg>
