<?xml version="1.0" encoding="UTF-8" standalone="no"?>
<!-- Created with Inkscape (http://www.inkscape.org/) -->

<svg
   xmlns:dc="http://purl.org/dc/elements/1.1/"
   xmlns:cc="http://creativecommons.org/ns#"
   xmlns:rdf="http://www.w3.org/1999/02/22-rdf-syntax-ns#"
   xmlns:svg="http://www.w3.org/2000/svg"
   xmlns="http://www.w3.org/2000/svg"
   xmlns:sodipodi="http://sodipodi.sourceforge.net/DTD/sodipodi-0.dtd"
   xmlns:inkscape="http://www.inkscape.org/namespaces/inkscape"
   width="64"
   height="256"
   viewBox="0 0 64 256"
   version="1.1"
   id="svg548"
   inkscape:version="0.92.4 (5da689c313, 2019-01-14)"
   sodipodi:docname="girder.svg">
  <defs
     id="defs542">
    <clipPath
       clipPathUnits="userSpaceOnUse"
       id="clipPath159">
      <path
         d="M 0,384.4 H 67.6001 V 4.3999 H 0 Z"
         id="path157"
         inkscape:connector-curvature="0" />
    </clipPath>
  </defs>
  <sodipodi:namedview
     id="base"
     pagecolor="#ffffff"
     bordercolor="#666666"
     borderopacity="1.0"
     inkscape:pageopacity="0.0"
     inkscape:pageshadow="2"
     inkscape:zoom="1.4"
     inkscape:cx="-203.78423"
     inkscape:cy="138.14219"
     inkscape:document-units="px"
     inkscape:current-layer="layer1"
     showgrid="false"
     fit-margin-top="0"
     fit-margin-left="0"
     fit-margin-right="0"
     fit-margin-bottom="0"
     inkscape:window-width="2560"
     inkscape:window-height="1312"
     inkscape:window-x="0"
     inkscape:window-y="54"
     inkscape:window-maximized="1"
     units="px" />
  <metadata
     id="metadata545">
    <rdf:RDF>
      <cc:Work
         rdf:about="">
        <dc:format>image/svg+xml</dc:format>
        <dc:type
           rdf:resource="http://purl.org/dc/dcmitype/StillImage" />
        <dc:title></dc:title>
      </cc:Work>
    </rdf:RDF>
  </metadata>
  <g
     inkscape:label="Layer 1"
     inkscape:groupmode="layer"
     id="layer1"
     transform="translate(-94.609709,103.53276)">
    <g
       id="g151"
       transform="matrix(0.94674416,0,0,0.67368403,94.609709,-106.4969)">
      <g
         id="g153">
        <g
           id="g155"
           clip-path="url(#clipPath159)">
          <g
             id="g161"
             transform="translate(67.25,4.8999)">
            <path
               d="M 0,0 C 0.233,0.233 0.35,0.517 0.35,0.85 V 378.2 c 0,0.3 -0.117,0.6 -0.35,0.9 -0.3,0.267 -0.633,0.4 -1,0.4 h -64.9 c -0.367,0 -0.667,-0.133 -0.9,-0.4 -0.3,-0.3 -0.45,-0.6 -0.45,-0.9 V 0.85 c 0,-0.333 0.15,-0.617 0.45,-0.85 0.233,-0.333 0.533,-0.5 0.9,-0.5 H -1 c 0.367,0 0.7,0.167 1,0.5 M -39.5,40 -57.3,27.1 v 25.65 z m 5.95,-4.6 c 0.067,0 0.1,0.034 0.1,0.1 l 22.8,-16.4 h -45.5 z M -57.3,61.5 v 17.95 l 23.75,17.2 c 0.067,0 0.1,0.034 0.1,0.1 l 23.9,-17.3 V 61.5 L -33.45,44.35 Z M -9.55,52.75 V 27.2 L -27.2,40 Z m 0,87 V 122.7 l -23.8,-17.1 c -0.067,0 -0.1,-0.017 -0.1,-0.05 L -57.3,122.7 v 17.05 l 17.55,12.8 c 0.067,0.067 0.133,0.134 0.2,0.2 0.033,0 0.117,0.033 0.25,0.1 l 5.75,4.1 c 0.067,0 0.1,0.033 0.1,0.1 z M -23.5,103.9 h 0.05 L -9.55,114 V 88.45 l -17.65,12.7 3.4,2.5 c 0.067,0.067 0.133,0.117 0.2,0.15 z m -33.8,10.1 17.8,-12.85 -17.8,-12.8 z m 23.95,51.9 c -0.067,0 -0.1,-0.017 -0.1,-0.05 l -23.85,17.3 V 201 l 23.75,17.15 c 0.067,0 0.1,0.05 0.1,0.15 L -9.55,201 v -17.95 z m -11.8,-8.5 c -0.067,-0.033 -0.1,-0.083 -0.1,-0.15 -0.133,0 -0.217,-0.033 -0.25,-0.1 l -11.8,-8.5 v 25.65 l 17.8,-12.8 z m 35.6,16.9 V 148.75 L -27.2,161.5 Z m 0,61.15 v -25.5 L -27.2,222.7 Z M -39.5,222.7 -57.3,209.85 v 25.6 z m 0,55.45 -17.8,-12.9 v 25.65 z m 6.15,4.4 c -0.067,0 -0.1,-0.033 -0.1,-0.1 l -23.85,17.3 v 17.85 l 23.75,17.2 c 0.067,0 0.1,0.033 0.1,0.1 l 23.9,-17.3 V 299.65 Z M -57.3,244.2 v 12.2 l 23.75,17.2 c 0.067,0 0.1,0.033 0.1,0.1 l 23.9,-17.3 v -0.75 -0.2 -11.25 l -23.9,-17.15 z m 47.75,46.7 v -25.6 l -17.65,12.85 z m -29.95,48.4 -17.8,-12.8 v 25.65 z m 6.05,4.35 -22.6,16.3 h 45.25 l -22.55,-16.2 c -0.067,0 -0.1,-0.033 -0.1,-0.1 m 23.9,8.5 v -25.6 L -27.2,339.3 Z"
               style="fill:#e2e2e2;fill-opacity:1;fill-rule:evenodd;stroke:none"
               id="path163"
               inkscape:connector-curvature="0" />
          </g>
          <g
             id="g165"
             transform="translate(28.6001,228.2002)">
            <path
               d="M 0,0 C -0.066,0 -0.099,-0.034 -0.1,-0.1 -0.101,-0.034 -0.134,0 -0.2,0 l -18.45,13.3 v 6.6 L 4.5,3.2 Z m -0.85,-0.6 -17.8,-12.85 v 25.6 z m -17.8,21.5 V 33.1 L 5.1,50.3 c 0.067,0 0.1,0.033 0.1,0.1 L 29.1,33.1 V 32.35 32.15 20.9 L 5.2,3.75 Z m 0,13.3 v 6.7 L -0.2,54.2 0,54.4 c 0.1,0 0.183,0.066 0.25,0.2 l 0.1,0.05 c 0.067,0 0.133,0.033 0.2,0.1 L 5.1,58 5.3,58.2 c 0.133,0 0.217,0.05 0.25,0.15 l 0.1,0.1 c 0.067,0 0.133,0.033 0.2,0.1 L 29.1,75.3 V 68.65 L 10.8,55.45 C 10.733,55.383 10.7,55.333 10.7,55.3 h -0.1 c -0.167,0 -0.284,-0.067 -0.35,-0.2 v -0.05 c -0.1,0 -0.184,-0.033 -0.25,-0.1 L 5.4,51.5 C 5.333,51.466 5.3,51.417 5.3,51.35 H 5.2 c -0.167,0 -0.283,-0.067 -0.35,-0.2 v -0.1 c -0.133,0 -0.217,-0.033 -0.25,-0.1 z m 29.2,20 c 0.033,0 0.05,0.033 0.05,0.1 L 29.1,40.9 V 34.2 L 6.05,50.9 Z M 0,55.45 c -0.067,0 -0.1,-0.033 -0.1,-0.1 l -18.55,13.4 V 75.3 L 4.5,58.65 Z m 5.3,3.8 c -0.067,0 -0.1,-0.034 -0.1,-0.1 l -23.85,17.3 V 94.3 L 5.1,111.5 c 0.067,0 0.1,0.033 0.1,0.1 L 29.1,94.3 V 76.35 Z m -6.15,-4.4 -17.8,-12.9 V 67.6 Z M 29.1,67.6 V 42 L 11.45,54.85 Z m 0,34.5 v -6.75 l -23.05,16.8 4.5,3.25 c 0.033,0 0.05,0.033 0.05,0.1 z m -47.75,-6.75 v 6.75 l 18.45,13.3 c 0.067,0.066 0.133,0.117 0.2,0.15 0.1,0 0.183,0.067 0.25,0.2 l 0.1,0.05 c 0.067,0 0.133,0.033 0.2,0.1 l 4.55,3.35 0.2,0.2 c 0.133,0 0.217,0.05 0.25,0.15 l 0.1,0.1 c 0.067,0 0.133,0.033 0.2,0.1 l 23.25,16.65 v -6.6 l -18.3,-13.2 c -0.067,-0.067 -0.1,-0.133 -0.1,-0.2 h -0.1 c -0.167,0 -0.284,-0.067 -0.35,-0.2 v -0.05 c -0.1,0 -0.184,-0.033 -0.25,-0.1 L 5.4,112.75 C 5.333,112.683 5.3,112.633 5.3,112.6 H 5.2 c -0.167,0 -0.283,-0.067 -0.35,-0.2 v -0.1 c -0.133,0 -0.217,-0.033 -0.25,-0.1 z M 0,116.65 c -0.067,0 -0.1,-0.033 -0.1,-0.1 l -18.55,13.4 v 6.5 L 4.5,119.9 Z M -0.85,116 -18.65,103.2 v 25.65 z m 6.15,4.45 c -0.067,0 -0.1,-0.033 -0.1,-0.1 l -22.6,16.3 h 45.25 z m -31.2,33.1 h 62.2 v -14.2 h -62.2 z m 55,-24.7 v -25.6 L 11.45,116 Z m -47.75,-143.35 18.8,13.55 0.2,0.2 c 0.067,0 0.133,0.017 0.2,0.05 L 5.4,2.75 v 0.1 H 5.55 L 29.1,19.9 V 13.2 L 10.8,0 c -0.067,-0.067 -0.1,-0.133 -0.1,-0.2 h -0.1 c -0.167,0 -0.284,-0.033 -0.35,-0.1 v -0.1 c -0.1,0 -0.184,-0.034 -0.25,-0.1 L 5.4,-3.85 C 5.333,-3.917 5.3,-3.983 5.3,-4.05 H 5.2 c -0.167,0 -0.283,-0.067 -0.35,-0.2 v -0.1 C 4.717,-4.35 4.633,-4.367 4.6,-4.4 L -18.65,-21.25 Z M 36.3,-221.1 h -62.2 v 14.2 h 62.2 z m 2.35,-2.2 c 0.233,0.233 0.35,0.516 0.35,0.85 V 154.9 c 0,0.3 -0.117,0.6 -0.35,0.9 -0.3,0.266 -0.633,0.4 -1,0.4 h -64.9 c -0.367,0 -0.667,-0.134 -0.9,-0.4 -0.3,-0.3 -0.45,-0.6 -0.45,-0.9 v -377.35 c 0,-0.334 0.15,-0.617 0.45,-0.85 0.233,-0.333 0.533,-0.5 0.9,-0.5 h 64.9 c 0.367,0 0.7,0.167 1,0.5 m -9.55,26.05 V -204 l -23.05,16.75 4.5,3.35 c 0.033,0 0.05,0.017 0.05,0.05 z m -50.5,-6.95 h -4.5 v 340.85 h 4.5 z M 0,-182.7 c -0.066,0 -0.099,-0.033 -0.1,-0.1 -0.001,0.067 -0.034,0.1 -0.1,0.1 l -18.45,13.3 v 6.6 L 4.5,-179.5 Z m 0.15,-0.95 0.2,0.2 c 0.067,0 0.133,0.016 0.2,0.05 l 4.95,3.55 h 0.05 l 23.55,17.05 v -6.65 L 10.8,-182.7 c -0.067,-0.067 -0.1,-0.133 -0.1,-0.2 h -0.1 c -0.167,0 -0.284,-0.05 -0.35,-0.15 v -0.1 c -0.1,0 -0.184,-0.034 -0.25,-0.1 l -4.6,-3.35 c -0.067,-0.067 -0.1,-0.133 -0.1,-0.2 H 5.2 c -0.167,0 -0.283,-0.067 -0.35,-0.2 v -0.05 c -0.133,0 -0.217,-0.033 -0.25,-0.1 L -18.65,-204 v 6.75 z m 4.95,-4.25 c 0.067,0 0.1,0.033 0.1,0.1 L 28,-204.2 h -45.5 z m -5.95,4.6 -17.8,-12.9 v 25.65 z m -17.8,40.5 v 6.75 l 18.45,13.3 c 0.067,0.033 0.133,0.083 0.2,0.15 0.1,0 0.183,0.066 0.25,0.2 l 0.1,0.1 c 0.067,0 0.133,0.016 0.2,0.05 l 3.6,2.7 c 0.033,0 0.05,0.016 0.05,0.05 0.133,0 0.233,0.033 0.3,0.1 l 0.6,0.5 c 0.067,0.067 0.133,0.133 0.2,0.2 0.133,0 0.217,0.05 0.25,0.15 l 0.1,0.1 c 0.067,0 0.133,0.033 0.2,0.1 l 23.25,16.7 v -6.6 L 14.7,-118.6 c -0.067,-0.067 -0.1,-0.133 -0.1,-0.2 -0.133,0 -0.233,-0.033 -0.3,-0.1 l -3.5,-2.6 c -0.067,-0.067 -0.1,-0.133 -0.1,-0.2 h -0.1 c -0.167,0 -0.284,-0.05 -0.35,-0.15 v -0.1 c -0.1,0 -0.184,-0.033 -0.25,-0.1 l -4.6,-3.3 c -0.067,-0.067 -0.1,-0.133 -0.1,-0.2 H 5.2 c -0.167,0 -0.283,-0.067 -0.35,-0.2 v -0.05 c -0.133,0 -0.217,-0.033 -0.25,-0.1 z m 0,-19 v 17.95 l 23.75,17.2 c 0.067,0 0.1,0.033 0.1,0.1 l 23.9,-17.3 V -161.8 L 5.2,-178.95 Z m 47.75,25.75 v -6.75 l -23.05,16.8 4.5,3.25 c 0.033,0 0.05,0.017 0.05,0.05 z m 0,-34.5 v -25.55 l -17.65,12.8 z m -14.25,50.9 c 0.067,0.067 0.133,0.116 0.2,0.15 l 0.1,0.1 h 0.05 l 13.9,10.1 v -25.55 l -17.65,12.7 z m 14.25,36.1 V -100.6 L 5.3,-117.7 c -0.067,0 -0.1,-0.017 -0.1,-0.05 l -23.85,17.15 v 17.05 l 17.55,12.8 c 0.067,0.066 0.133,0.133 0.2,0.2 0.033,0 0.117,0.033 0.25,0.1 l 5.75,4.1 c 0.067,0 0.1,0.033 0.1,0.1 z M 3.85,-118.7 c -0.1,0 -0.183,-0.033 -0.25,-0.1 L 0,-121.5 c -0.067,0 -0.1,-0.034 -0.1,-0.1 l -18.55,13.4 v 6.55 L 4.5,-118.3 3.95,-118.6 c -0.067,0 -0.1,-0.033 -0.1,-0.1 m -22.5,9.4 17.8,-12.85 -17.8,-12.8 z m 17.45,39.55 c -0.067,-0.067 -0.1,-0.133 -0.1,-0.2 -0.1,0 -0.217,-0.017 -0.35,-0.05 l -17,-12.4 v 6.65 l 12.35,8.85 c 0.033,0.067 0.083,0.133 0.15,0.2 0.067,0 0.133,0.033 0.2,0.1 l 5.75,4.15 c 0.067,0.033 0.133,0.083 0.2,0.15 0.1,0 0.183,0.067 0.25,0.2 l 0.1,0.15 c 0.067,0 0.133,0.016 0.2,0.05 l 4.55,3.3 0.2,0.2 c 0.133,0 0.217,0.05 0.25,0.15 l 0.1,0.1 c 0.067,0 0.133,0.017 0.2,0.05 L 29.1,-41.3 V -48 L 10.8,-61.15 c -0.067,-0.067 -0.1,-0.134 -0.1,-0.2 h -0.1 c -0.167,0 -0.284,-0.05 -0.35,-0.15 v -0.1 c -0.1,0 -0.184,-0.033 -0.25,-0.1 L 5.4,-65.1 C 5.333,-65.133 5.3,-65.184 5.3,-65.25 H 5.2 c -0.167,0 -0.283,-0.067 -0.35,-0.2 v -0.05 c -0.133,0 -0.217,-0.034 -0.25,-0.1 z m 1.2,8.6 c -0.067,0 -0.1,-0.034 -0.1,-0.1 l -18.55,13.35 v 6.6 L 4.5,-58 Z m -6.6,-4.9 c -0.133,0 -0.217,-0.033 -0.25,-0.1 l -11.8,-8.5 V -49 l 17.8,-12.8 -5.65,-4.1 c -0.067,-0.034 -0.1,-0.083 -0.1,-0.15 m 17.15,3.6 c 0.033,0 0.05,0.016 0.05,0.05 L 29.1,-75.75 V -82.5 L 6.05,-65.7 Z M 5.3,-57.4 c -0.067,0 -0.1,-0.017 -0.1,-0.05 l -23.85,17.3 V -22.3 L 5.1,-5.15 c 0.067,0 0.1,0.05 0.1,0.15 L 29.1,-22.3 V -40.25 Z M 29.1,-49 V -74.55 L 11.45,-61.8 Z m 0,34.5 v -6.75 L 6.05,-4.5 l 4.5,3.3 c 0.033,0 0.05,0.016 0.05,0.05 z m 0,26.65 v -25.5 L 11.45,-0.6 Z m 2.7,124.5 h 4.5 V -204.2 h -4.5 z"
               style="fill:#666666;fill-opacity:1;fill-rule:evenodd;stroke:none"
               id="path167"
               inkscape:connector-curvature="0" />
          </g>
        </g>
      </g>
    </g>
  </g>
</svg>
