<?xml version="1.0" encoding="UTF-8" standalone="no"?>
<!-- Created with Inkscape (http://www.inkscape.org/) -->

<svg
   xmlns:dc="http://purl.org/dc/elements/1.1/"
   xmlns:cc="http://creativecommons.org/ns#"
   xmlns:rdf="http://www.w3.org/1999/02/22-rdf-syntax-ns#"
   xmlns:svg="http://www.w3.org/2000/svg"
   xmlns="http://www.w3.org/2000/svg"
   xmlns:sodipodi="http://sodipodi.sourceforge.net/DTD/sodipodi-0.dtd"
   xmlns:inkscape="http://www.inkscape.org/namespaces/inkscape"
   width="128"
   height="256"
   viewBox="0 0 128 256"
   version="1.1"
   id="svg701"
   inkscape:version="0.92.4 (5da689c313, 2019-01-14)"
   sodipodi:docname="grid.svg">
  <defs
     id="defs695">
    <clipPath
       clipPathUnits="userSpaceOnUse"
       id="clipPath143">
      <path
         d="M 0,388.35 H 160.7 V 9.25 H 0 Z"
         id="path141"
         inkscape:connector-curvature="0" />
    </clipPath>
  </defs>
  <sodipodi:namedview
     id="base"
     pagecolor="#ffffff"
     bordercolor="#666666"
     borderopacity="1.0"
     inkscape:pageopacity="0.0"
     inkscape:pageshadow="2"
     inkscape:zoom="2.8"
     inkscape:cx="-170.1989"
     inkscape:cy="-83.745584"
     inkscape:document-units="px"
     inkscape:current-layer="layer1"
     showgrid="false"
     fit-margin-top="0"
     fit-margin-left="0"
     fit-margin-right="0"
     fit-margin-bottom="0"
     inkscape:window-width="2560"
     inkscape:window-height="1312"
     inkscape:window-x="0"
     inkscape:window-y="54"
     inkscape:window-maximized="1"
     units="px" />
  <metadata
     id="metadata698">
    <rdf:RDF>
      <cc:Work
         rdf:about="">
        <dc:format>image/svg+xml</dc:format>
        <dc:type
           rdf:resource="http://purl.org/dc/dcmitype/StillImage" />
        <dc:title></dc:title>
      </cc:Work>
    </rdf:RDF>
  </metadata>
  <g
     inkscape:label="Layer 1"
     inkscape:groupmode="layer"
     id="layer1"
     transform="translate(-89.420875,121.54045)">
    <g
       id="g135"
       transform="matrix(0.79651525,0,0,0.67528357,89.420875,-127.78682)">
      <g
         id="g137">
        <g
           id="g139"
           clip-path="url(#clipPath143)">
          <path
             d="m 13.85,283.5 h 38.8 v -32 h -38.8 z m 38.8,14.95 h -38.8 v 33.2 h 38.8 z m 13.85,33.2 h 27.7 v -33.2 H 66.5 Z m -52.65,41.7 h 38.8 V 346.6 h -38.8 z m 52.65,0 H 94.2 V 346.6 H 66.5 Z m 80.35,-74.9 h -38.8 v 33.2 h 38.8 z m -38.8,74.9 h 38.8 V 346.6 h -38.8 z M 52.65,203.9 h -38.8 v 32.65 h 38.8 z m 41.55,0 H 66.5 v 32.65 h 27.7 z m 13.85,79.6 h 38.8 v -32 h -38.8 z M 94.2,251.5 H 66.5 v 32 h 27.7 z m 52.65,-47.6 h -38.8 v 32.65 h 38.8 z m -38.8,-14.95 h 38.8 v -32.4 h -38.8 z M 52.65,24.15 H 13.85 V 51.2 h 38.8 z m 0,86.8 h -38.8 v 30.65 h 38.8 z M 66.5,141.6 H 94.2 V 110.95 H 66.5 Z M 0,149.1 V 148.9 9.25 h 160.7 v 139.65 0.2 0.15 141.55 0.25 0.2 97.1 H 0 v -48.95 -0.2 -0.15 -189.8 z m 13.85,39.85 h 38.8 v -32.4 h -38.8 z m 52.65,0 h 27.7 v -32.4 H 66.5 Z m 80.35,-78 h -38.8 v 30.65 h 38.8 z M 13.85,96 h 38.8 V 66.15 h -38.8 z m 94.2,0 h 38.8 V 66.15 h -38.8 z M 94.2,66.15 H 66.5 V 96 h 27.7 z m 52.65,-42 h -38.8 V 51.2 h 38.8 z m -52.65,0 H 66.5 V 51.2 h 27.7 z"
             style="fill:#e2e2e2;fill-opacity:1;fill-rule:evenodd;stroke:none"
             id="path145"
             inkscape:connector-curvature="0" />
          <g
             id="g147"
             transform="translate(11.1499,346.6001)">
            <path
               d="m 0,0 h -3.7 c -1.866,0 -3.45,-0.55 -4.75,-1.65 v 28.4 H 0 Z m 41.5,29.45 h -4.1 v 9.6 h 4.1 z m 19,9.6 h 17.4 v -9.6 H 60.5 Z m -0.9,-9.6 h -4.25 v 9.6 h 4.25 z m -4.25,-2.7 h 27.7 V 0 h -27.7 z m 86.75,-74.9 h -3.7 v 33.2 h 3.7 c 1.834,0 3.417,0.533 4.75,1.6 v -36.4 c -1.333,1.066 -2.916,1.6 -4.75,1.6 m 3.5,44.1 c 0.767,-0.9 1.183,-1.95 1.25,-3.15 v -0.35 c -0.067,-1.3 -0.5,-2.433 -1.3,-3.4 -0.967,-0.867 -2.116,-1.3 -3.45,-1.3 h -40.2 v 9.55 h 40.2 c 1.367,0 2.533,-0.45 3.5,-1.35 m -9.9,-44.1 H 96.9 v 33.2 h 38.8 z m -52.65,35.9 H 78.8 v 9.55 h 4.25 z M 96.9,-2.7 h 4.05 v -9.55 H 96.9 Z M 83.05,29.45 H 78.8 v 9.6 h 4.25 z m 18.85,9.6 h 44.95 v -9.6 H 101.9 Z m -5,0 h 4.05 v -9.6 H 96.9 Z m 0,-12.3 h 38.8 V 0 H 96.9 Z M 142.1,0 h -3.7 v 26.75 h 8.45 V -1.65 C 145.517,-0.55 143.934,0 142.1,0 M -8.45,39.05 H 36.5 v -9.6 H -8.45 Z m 68.05,-146.4 h -4.25 v 9.55 h 4.25 z m -18.1,0 h -4.1 v 9.55 h 4.1 z M -3.7,-142.7 c -1.866,0 -3.45,-0.533 -4.75,-1.6 v 35.85 c 1.3,-1.067 2.884,-1.6 4.75,-1.6 H 0 v -32.65 z m -4.75,40.3 c 0.067,1.333 0.517,2.417 1.35,3.25 0.9,0.9 2.034,1.35 3.4,1.35 h 40.2 v -9.55 H -3.7 c -1.3,0 -2.433,0.45 -3.4,1.35 -0.833,0.9 -1.283,2 -1.35,3.3 z m 4.75,7.3 c -1.866,0 -3.45,-0.55 -4.75,-1.65 v 35.25 c 1.3,-1.067 2.884,-1.6 4.75,-1.6 H 0 v -32 z m -3.4,36.05 c -0.833,0.9 -1.283,1.983 -1.35,3.25 v 0.45 c 0.067,1.267 0.517,2.317 1.35,3.15 0.9,0.9 2.034,1.35 3.4,1.35 H 36.5 V -60.4 H -3.7 c -1.3,0 -2.433,0.45 -3.4,1.35 m 9.8,-4.05 h 38.8 v -32 H 2.7 Z m 34.7,12.25 h 4.1 v -9.55 h -4.1 z m 17.95,0 H 59.6 V -60.4 H 55.35 Z M 36.5,-2.7 v -9.55 H -3.7 c -1.366,0 -2.5,0.45 -3.4,1.35 V -11 c -0.833,0.967 -1.283,2.117 -1.35,3.45 v 0.35 c 0.067,1.266 0.517,2.317 1.35,3.15 0.9,0.9 2.034,1.35 3.4,1.35 z m 5,-9.55 h -4.1 v 9.55 h 4.1 z m 19,9.55 h 17.4 v -9.55 H 60.5 Z m -0.9,-9.55 h -4.25 v 9.55 h 4.25 z m -4.25,-2.7 h 27.7 v -33.2 H 55.35 Z M 41.5,-48.15 H 2.7 v 33.2 h 38.8 z m -41.5,0 h -3.7 c -1.866,0 -3.45,-0.534 -4.75,-1.6 v 36.4 c 1.3,-1.067 2.884,-1.6 4.75,-1.6 H 0 Z m 2.7,74.9 H 41.5 V 0 H 2.7 Z M 41.5,-142.7 H 2.7 v 32.65 h 38.8 z m 55.4,91.85 h 4.05 V -60.4 H 96.9 Z M 83.05,-95.1 h -27.7 v 32 h 27.7 z m 13.85,32 h 38.8 v -32 H 96.9 Z m 49.95,-33.65 c -1.333,1.1 -2.916,1.65 -4.75,1.65 h -3.7 v 32 h 3.7 c 1.834,0 3.417,0.533 4.75,1.6 z M 77.9,-107.35 H 60.5 v 9.55 h 17.4 z m 24,56.5 h 40.2 c 1.367,0 2.533,-0.45 3.5,-1.35 0.767,-0.833 1.183,-1.883 1.25,-3.15 v -0.2 -0.15 -0.1 c -0.067,-1.267 -0.483,-2.35 -1.25,-3.25 h -0.1 c -0.967,-0.9 -2.1,-1.35 -3.4,-1.35 H 101.9 Z M 83.05,-142.7 h -27.7 v 32.65 h 27.7 z m 17.9,35.35 H 96.9 v 9.55 h 4.05 z m -17.9,0 H 78.8 v 9.55 h 4.25 z m 0,46.95 H 78.8 v 9.55 h 4.25 z m -5.15,0 H 60.5 v 9.55 h 17.4 z m 57.8,-82.3 H 96.9 v 32.65 h 38.8 z m -34.75,-12.25 H 96.9 v 9.55 h 4.05 z m -17.9,0 H 78.8 v 9.55 h 4.25 z m 63.8,-36.8 c -1.333,1.133 -2.916,1.7 -4.75,1.7 h -3.7 v 32.4 h 3.7 c 1.834,0 3.417,0.533 4.75,1.6 z m -1.25,38.15 h -0.1 c -0.967,-0.9 -2.1,-1.35 -3.4,-1.35 h -40.2 v 9.55 h 40.2 c 1.367,0 2.533,-0.45 3.5,-1.35 h -0.1 c 0.833,-0.9 1.283,-1.983 1.35,-3.25 v -0.35 c -0.067,-1.267 -0.483,-2.35 -1.25,-3.25 M 77.9,-247.9 H 60.5 v 9.55 h 17.4 z m 0,92.95 H 60.5 v 9.55 h 17.4 z m 68.95,10.65 c -1.333,1.067 -2.916,1.6 -4.75,1.6 h -3.7 v 32.65 h 3.7 c 1.834,0 3.417,0.533 4.75,1.6 z m -1.25,38.3 h -0.1 c -0.967,-0.9 -2.1,-1.35 -3.4,-1.35 h -40.2 v 9.55 h 40.2 c 1.367,0 2.533,-0.45 3.5,-1.35 0.767,-0.833 1.183,-1.917 1.25,-3.25 v -0.3 c -0.067,-1.3 -0.483,-2.4 -1.25,-3.3 m -48.7,-51.65 h 38.8 v -32.4 H 96.9 Z m -59.5,-125.5 h 4.1 v -9.55 h -4.1 z m 4.1,35.25 h -4.1 v 9.55 h 4.1 z m 18.1,0 h -4.25 v 9.55 H 59.6 Z M 2.7,-295.4 h 38.8 v -27.05 H 2.7 Z m 33.8,47.5 H -3.7 c -1.3,0 -2.433,0.45 -3.4,1.35 -0.833,0.9 -1.283,1.983 -1.35,3.25 v 0.35 c 0.067,1.266 0.517,2.317 1.35,3.15 0.9,0.967 2.034,1.45 3.4,1.45 h 40.2 z m 18.85,42.9 h 27.7 v -30.65 H 55.35 Z M 41.5,-235.65 H 2.7 V -205 h 38.8 z m 18.1,33.35 h -4.25 v 9.55 h 4.25 z m -18.1,0 h -4.1 v 9.55 h 4.1 z m -45.2,-33.35 c -1.866,0 -3.45,-0.567 -4.75,-1.7 v 34 c 1.3,-1.1 2.884,-1.65 4.75,-1.65 H 0 v -30.65 z m 0,33.35 c -1.3,0 -2.433,0.45 -3.4,1.35 -0.833,0.9 -1.283,1.983 -1.35,3.25 v 0.35 c 0.067,1.267 0.517,2.333 1.35,3.2 0.9,0.933 2.034,1.4 3.4,1.4 h 40.2 v -9.55 z m 0,12.25 c -1.866,0 -3.45,-0.567 -4.75,-1.7 v 35.7 c 1.3,-1.067 2.884,-1.6 4.75,-1.6 H 0 v -32.4 z m -7.45,-7.3 v -0.15 -0.2 -139.65 h 160.7 v 139.65 0.2 0.15 141.55 0.25 0.2 97.1 H -11.15 V -7.2 -7.4 -7.55 Z m 2.7,47 v 0.35 c 0.067,1.267 0.517,2.35 1.35,3.25 0.9,0.9 2.034,1.35 3.4,1.35 h 40.2 v -9.55 H -3.7 c -1.3,0 -2.433,0.45 -3.4,1.35 -0.833,0.9 -1.283,1.983 -1.35,3.25 m 11.15,-7.3 h 38.8 v -32.4 H 2.7 Z m 52.65,0 h 27.7 v -32.4 h -27.7 z m 4.25,2.7 h -4.25 v 9.55 h 4.25 z m -18.1,0 h -4.1 v 9.55 h 4.1 z m 19,-37.8 h 17.4 v -9.55 H 60.5 Z m 86.35,-44.6 c -1.333,1.133 -2.916,1.7 -4.75,1.7 h -3.7 V -205 h 3.7 c 1.834,0 3.417,0.55 4.75,1.65 z m -1.25,36.4 h -0.1 c -0.967,-0.9 -2.1,-1.35 -3.4,-1.35 h -40.2 v 9.55 h 40.2 c 1.367,0 2.5,-0.467 3.4,-1.4 h 0.1 c 0.767,-0.867 1.183,-1.933 1.25,-3.2 v -0.35 c -0.067,-1.267 -0.483,-2.35 -1.25,-3.25 m -9.9,-34.7 H 96.9 V -205 h 38.8 z m -34.75,33.35 H 96.9 v 9.55 h 4.05 z m -17.9,0 H 78.8 v 9.55 h 4.25 z m -27.7,-80.85 h 4.25 v -9.55 H 55.35 Z M 2.7,-250.6 h 38.8 v -29.85 H 2.7 Z m -6.4,-29.85 c -1.866,0 -3.45,-0.567 -4.75,-1.7 V -249 c 1.3,-1.067 2.884,-1.6 4.75,-1.6 H 0 v -29.85 z m -4.75,-7.65 v 0.35 c 0.067,1.267 0.517,2.316 1.35,3.15 0.9,0.967 2.034,1.45 3.4,1.45 h 40.2 v -9.55 H -3.7 c -1.3,0 -2.433,0.45 -3.4,1.35 -0.833,0.9 -1.283,1.983 -1.35,3.25 m 0,-34.35 v 28.65 c 1.3,-1.067 2.884,-1.6 4.75,-1.6 H 0 v -27.05 z m 155.3,0 h -8.45 v 27.05 h 3.7 c 1.834,0 3.417,0.533 4.75,1.6 z m 0,-7.3 v -0.2 -4.75 H 101.9 v 9.55 h 44.95 z m -52.65,7.3 H 85.75 V 39.05 H 94.2 Z M 77.9,-334.7 H 60.5 v 9.55 h 17.4 z m 23.05,0 H 78.8 v 9.55 h 22.15 z m 0.95,42 v 9.55 h 40.2 c 1.367,0 2.5,-0.483 3.4,-1.45 h 0.1 c 0.767,-0.9 1.183,-1.95 1.25,-3.15 V -288 c -0.067,-1.333 -0.483,-2.45 -1.25,-3.35 h -0.1 c -0.967,-0.9 -2.1,-1.35 -3.4,-1.35 z m -0.95,0 H 96.9 v 9.55 h 4.05 z m -17.9,0 H 78.8 v 9.55 h 4.25 z m -5.15,0 H 60.5 v 9.55 h 17.4 z m 5.15,44.8 H 78.8 v 9.55 h 4.25 z m 17.9,0 H 96.9 v 9.55 h 4.05 z m -17.9,-32.55 h -27.7 v 29.85 h 27.7 z m 13.85,29.85 h 38.8 v -29.85 H 96.9 Z m 49.95,-31.55 c -1.333,1.133 -2.916,1.7 -4.75,1.7 h -3.7 v 29.85 h 3.7 c 1.834,0 3.417,0.533 4.75,1.6 z M 96.9,-295.4 h 38.8 v -27.05 H 96.9 Z m 45.2,47.5 h -40.2 v 9.55 h 40.2 c 1.367,0 2.5,-0.483 3.4,-1.45 h 0.1 c 0.767,-0.9 1.183,-1.95 1.25,-3.15 v -0.25 c -0.067,-1.333 -0.483,-2.45 -1.25,-3.35 h -0.1 c -0.967,-0.9 -2.1,-1.35 -3.4,-1.35 m -59.05,-74.55 h -27.7 v 27.05 h 27.7 z m -30.4,0 H 44.2 v 361.5 h 8.45 z M 36.5,-334.7 H -8.45 v 9.55 H 36.5 Z m 23.1,0 H 37.4 v 9.55 h 22.2 z"
               style="fill:#666666;fill-opacity:1;fill-rule:evenodd;stroke:none"
               id="path149"
               inkscape:connector-curvature="0" />
          </g>
        </g>
      </g>
    </g>
  </g>
</svg>
