<?xml version="1.0" encoding="UTF-8" standalone="no"?>
<!-- Created with Inkscape (http://www.inkscape.org/) -->

<svg
   xmlns:dc="http://purl.org/dc/elements/1.1/"
   xmlns:cc="http://creativecommons.org/ns#"
   xmlns:rdf="http://www.w3.org/1999/02/22-rdf-syntax-ns#"
   xmlns:svg="http://www.w3.org/2000/svg"
   xmlns="http://www.w3.org/2000/svg"
   xmlns:sodipodi="http://sodipodi.sourceforge.net/DTD/sodipodi-0.dtd"
   xmlns:inkscape="http://www.inkscape.org/namespaces/inkscape"
   width="128"
   height="256"
   viewBox="0 0 128 256"
   version="1.1"
   id="svg474"
   inkscape:version="0.92.4 (5da689c313, 2019-01-14)"
   sodipodi:docname="life_support.svg">
  <defs
     id="defs468">
    <clipPath
       clipPathUnits="userSpaceOnUse"
       id="clipPath122">
      <path
         d="M 0.0209961,375.05 H 187.223 V 0 H 0.0209961 Z"
         id="path120"
         inkscape:connector-curvature="0" />
    </clipPath>
  </defs>
  <sodipodi:namedview
     id="base"
     pagecolor="#ffffff"
     bordercolor="#666666"
     borderopacity="1.0"
     inkscape:pageopacity="0.0"
     inkscape:pageshadow="2"
     inkscape:zoom="1.979899"
     inkscape:cx="-14.011898"
     inkscape:cy="-136.07134"
     inkscape:document-units="px"
     inkscape:current-layer="layer1"
     showgrid="false"
     fit-margin-top="0"
     fit-margin-left="0"
     fit-margin-right="0"
     fit-margin-bottom="0"
     inkscape:window-width="2560"
     inkscape:window-height="1312"
     inkscape:window-x="0"
     inkscape:window-y="54"
     inkscape:window-maximized="1"
     units="px" />
  <metadata
     id="metadata471">
    <rdf:RDF>
      <cc:Work
         rdf:about="">
        <dc:format>image/svg+xml</dc:format>
        <dc:type
           rdf:resource="http://purl.org/dc/dcmitype/StillImage" />
        <dc:title></dc:title>
      </cc:Work>
    </rdf:RDF>
  </metadata>
  <g
     inkscape:label="Layer 1"
     inkscape:groupmode="layer"
     id="layer1"
     transform="translate(-56.842168,167.13976)">
    <g
       id="g114"
       transform="matrix(0.68375343,0,0,0.68257565,56.8278,-167.13976)">
      <g
         id="g116">
        <g
           id="g118"
           clip-path="url(#clipPath122)">
          <g
             id="g124"
             transform="translate(171.8999,23.3501)">
            <path
               d="m 0,0 c 0.133,-0.067 0.283,-0.1 0.45,-0.1 4.333,0 6.5,2.166 6.5,6.5 V 7.35 C 9.55,7.883 11.567,9 13,10.7 c 1.7,1.967 2.467,4.817 2.3,8.55 v 0.1 24.9 0.35 c -0.55,2.32 -1.349,4.136 -2.4,5.45 -0.099,0.121 -0.199,0.238 -0.3,0.35 v 55.5 c 1.6,2 2.5,5.067 2.7,9.2 v 23.75 c 0.2,4.733 -0.9,8.033 -3.3,9.9 v 0.05 c -1.267,1 -2.867,1.617 -4.8,1.85 v 27.05 c 1.933,0.233 3.533,0.85 4.8,1.85 v 0.05 c 2.4,1.867 3.5,5.167 3.3,9.9 v 23.75 c -0.104,2.157 -0.396,4.024 -0.875,5.6 -0.451,1.444 -1.06,2.644 -1.825,3.6 v 55.5 c 1.2,1.333 2.1,3.267 2.7,5.8 v 0.35 24.9 0.1 c 0.167,3.733 -0.6,6.583 -2.3,8.55 -1.433,1.7 -3.45,2.817 -6.05,3.35 v 0.95 c 0,4.333 -2.167,6.5 -6.5,6.5 -0.167,0 -0.317,-0.033 -0.45,-0.1 -3.033,5.433 -9.3,8.867 -18.8,10.3 -0.1,0.033 -0.183,0.05 -0.25,0.05 H -38.8 v 6.5 c 0,3.6 -1.516,5.7 -4.55,6.3 -0.367,0.1 -0.7,0.05 -1,-0.15 -0.267,0.233 -0.583,0.35 -0.95,0.35 h -65.95 c -0.333,0 -0.633,-0.117 -0.9,-0.35 -0.333,0.2 -0.666,0.25 -1,0.15 -3.067,-0.6 -4.6,-2.7 -4.6,-6.3 v -6.5 h -19.75 c -0.066,0 -0.15,-0.017 -0.25,-0.05 -8.867,-1.433 -15.1,-4.867 -18.7,-10.3 -0.167,0.067 -0.35,0.1 -0.55,0.1 -3.566,0 -5.65,-1.483 -6.25,-4.45 v 0.05 c -0.167,-0.633 -0.25,-1.333 -0.25,-2.1 V 321 c -4,-0.767 -6.55,-2.867 -7.65,-6.3 -0.567,-1.567 -0.8,-3.433 -0.7,-5.6 v -25 c 0,-0.1 0.017,-0.217 0.05,-0.35 0.567,-2.533 1.45,-4.467 2.65,-5.8 v -55.5 c -0.765,-0.956 -1.373,-2.156 -1.825,-3.6 -0.479,-1.576 -0.771,-3.443 -0.875,-5.6 V 189.5 c -0.267,-5.6 1.317,-9.2 4.75,-10.8 0.967,-0.5 2.083,-0.817 3.35,-0.95 V 150.6 c -1.267,-0.133 -2.383,-0.45 -3.35,-0.95 -3.433,-1.6 -5.017,-5.2 -4.75,-10.8 V 115.1 c 0.2,-4.133 1.1,-7.2 2.7,-9.2 V 50.4 c -0.101,-0.112 -0.201,-0.229 -0.3,-0.35 -1.048,-1.314 -1.831,-3.13 -2.35,-5.45 -0.033,-0.133 -0.05,-0.25 -0.05,-0.35 v -25 c -0.1,-2.167 0.133,-4.033 0.7,-5.6 1.1,-3.433 3.65,-5.533 7.65,-6.3 V 6.4 c 0,-0.767 0.083,-1.467 0.25,-2.1 v 0.05 c 0.6,-2.967 2.684,-4.45 6.25,-4.45 0.2,0 0.383,0.033 0.55,0.1 3.6,-5.434 9.833,-8.867 18.7,-10.3 0.1,-0.033 0.184,-0.05 0.25,-0.05 h 19.75 v -6.5 c 0,-3.6 1.533,-5.7 4.6,-6.3 0.334,-0.1 0.667,-0.05 1,0.15 0.267,-0.233 0.567,-0.35 0.9,-0.35 h 65.95 c 0.367,0 0.683,0.117 0.95,0.35 0.3,-0.2 0.633,-0.25 1,-0.15 3.034,0.6 4.55,2.7 4.55,6.3 v 6.5 h 19.75 c 0.067,0 0.15,0.017 0.25,0.05 C -9.3,-8.867 -3.033,-5.434 0,0"
               style="fill:#e2e2e2;fill-opacity:1;fill-rule:evenodd;stroke:none"
               id="path126"
               inkscape:connector-curvature="0" />
          </g>
          <path
             d="M 176.1,174.05 H 11.15 V 201 H 176.1 Z M 163.5,307.8 v 33.85 h 11.1 c 0.433,0 0.85,-0.017 1.25,-0.05 V 307.8 Z M 175.85,204 H 163.5 v 102.8 h 12.35 z m 8.35,8.75 c 0.167,-3.533 -0.55,-6.033 -2.15,-7.5 H 182 c -1.067,-0.8 -2.5,-1.217 -4.3,-1.25 h -0.85 v 137.55 h 0.3 0.05 c 2.367,-0.267 4.167,-1.083 5.4,-2.45 l 0.05,-0.05 c 1.167,-1.533 1.683,-3.717 1.55,-6.55 v -24.85 c -0.5,-2.1 -1.25,-3.667 -2.25,-4.7 -0.3,-0.267 -0.45,-0.617 -0.45,-1.05 v -56.65 c 0,-0.367 0.133,-0.7 0.4,-1 1.367,-1.633 2.133,-4.233 2.3,-7.8 v -23.6 z m -41.35,128.9 H 162.5 V 307.8 h -19.65 z m 0,-34.85 H 162.5 V 204 h -19.65 z m -1,1 h -29.5 v 33.85 h 29.5 z M 61.1,372.05 h 65.05 l -4.5,-4.5 H 65.6 Z m 4.3,-5.5 h 56.45 c 0.133,0 0.25,0.05 0.35,0.15 l 5.35,5.35 c 0.1,-0.067 0.217,-0.117 0.35,-0.15 1.467,-0.367 2.2,-1.483 2.2,-3.35 v -6.5 H 57.15 v 6.5 c 0,1.867 0.75,2.983 2.25,3.35 0.1,0.033 0.2,0.083 0.3,0.15 l 5.35,-5.35 c 0.1,-0.1 0.217,-0.15 0.35,-0.15 m -30.9,-7.5 h 118.3 c 7.267,-1.133 12.383,-3.55 15.35,-7.25 H 19.4 c 3.3,3.7 8.333,6.117 15.1,7.25 M 11.4,345.3 c 0,0.5 0.05,0.95 0.15,1.35 v 0.05 c 0.4,1.4 1.517,2.1 3.35,2.1 0.267,0 0.5,0.05 0.7,0.15 0.233,-0.1 0.483,-0.15 0.75,-0.15 H 170.9 c 0.267,0 0.517,0.05 0.75,0.15 0.2,-0.1 0.433,-0.15 0.7,-0.15 2.333,0 3.5,-1.167 3.5,-3.5 v -0.7 c -0.4,0.033 -0.817,0.05 -1.25,0.05 H 12.65 c -0.433,0 -0.85,-0.017 -1.25,-0.05 z m 1.25,-3.65 h 10.8 V 307.8 H 11.4 v 33.8 c 0.4,0.033 0.817,0.05 1.25,0.05 M 44.4,307.8 H 24.45 v 33.85 H 44.4 Z m 30.5,0 H 45.4 v 33.85 h 29.5 z m 1,33.85 h 35.45 V 307.8 H 75.9 Z M 24.45,306.8 H 44.4 V 204 H 24.45 Z m -13.05,0 H 23.45 V 204 H 11.4 Z M 6.15,204.75 c -2.267,1.267 -3.3,3.933 -3.1,8 v 0.1 23.7 c 0.2,3.533 0.983,6.1 2.35,7.7 0.233,0.3 0.35,0.633 0.35,1 v 56.65 c 0,0.433 -0.15,0.783 -0.45,1.05 -1,1.033 -1.75,2.6 -2.25,4.7 v 24.85 c -0.1,1.767 0.083,3.283 0.55,4.55 0.933,2.6 3.083,4.1 6.45,4.5 h 0.05 0.3 V 204 H 9.55 c -1.333,0.033 -2.467,0.283 -3.4,0.75 M 45.4,306.8 H 74.9 V 204 H 45.4 Z m 20,-70.5 h -9.25 v 63.25 h 9.35 c 0.967,0.067 1.7,-0.25 2.2,-0.95 0.5,-0.767 0.733,-1.967 0.7,-3.6 v -54.65 c 0.067,-1.6 -0.15,-2.75 -0.65,-3.45 -0.467,-0.6 -1.217,-0.8 -2.25,-0.6 z m 10.5,-7.8 v 46.9 c 2.133,-0.467 3.433,-1.8 3.9,-4 l 0.05,-0.05 c 0,-0.1 0.017,-0.233 0.05,-0.4 V 232.9 c -0.067,-0.133 -0.117,-0.283 -0.15,-0.45 -0.9,-1.933 -2.183,-3.25 -3.85,-3.95 m -23.75,71.05 h 3 V 236.3 h -3 z M 56.1,235.3 h 9.2 c 1.467,-0.267 2.55,0.067 3.25,1 0.667,0.833 0.95,2.2 0.85,4.1 V 295 c 0.067,1.9 -0.217,3.3 -0.85,4.2 -0.667,1 -1.7,1.45 -3.1,1.35 h -13.8 c -0.133,0 -0.25,-0.05 -0.35,-0.15 -0.1,-0.1 -0.15,-0.217 -0.15,-0.35 v -64.5 c 0,-0.133 0.05,-0.25 0.15,-0.35 0.1,-0.1 0.217,-0.15 0.35,-0.15 0.133,0 0.25,0.05 0.35,0.15 0.033,0.033 0.067,0.067 0.1,0.1 h 3.15 c 0,-0.033 0.017,-0.067 0.05,-0.1 0.1,-0.1 0.217,-0.15 0.35,-0.15 0.133,0 0.25,0.05 0.35,0.15 0.033,0.033 0.067,0.067 0.1,0.1 m 51.35,-2.8 c -0.033,0.067 -0.067,0.117 -0.1,0.15 v 0.15 38.15 c 0.033,0.167 0.067,0.3 0.1,0.4 v 0.05 c 0.467,2.2 1.767,3.533 3.9,4 v -46.9 c -1.7,0.733 -3,2.067 -3.9,4 m -0.9,-0.1 c -0.067,-0.1 -0.067,-0.2 0,-0.3 1.067,-2.367 2.683,-3.933 4.85,-4.7 -0.033,-0.033 -0.05,-0.067 -0.05,-0.1 V 204 H 75.9 v 23.45 c 2.133,0.733 3.733,2.3 4.8,4.7 0.033,0.033 0.05,0.067 0.05,0.1 0.033,0.133 0.067,0.233 0.1,0.3 0.033,0.1 0.05,0.183 0.05,0.25 v 38.45 c -0.067,0.133 -0.1,0.25 -0.1,0.35 -0.6,2.7 -2.233,4.317 -4.9,4.85 v 30.35 h 35.45 v -30.25 -0.1 c -2.667,-0.533 -4.3,-2.15 -4.9,-4.85 v 0.1 c -0.033,-0.2 -0.067,-0.383 -0.1,-0.55 v -0.1 -38.25 c 0,-0.133 0.05,-0.25 0.15,-0.35 z m 5.75,-4.4 v 0.05 c 0.033,0.067 0.05,0.15 0.05,0.25 v 47.6 c 0.033,0.067 0.033,0.133 0,0.2 v 30.7 h 29.5 V 204 h -29.5 v 23.3 c 0,0.1 -0.017,0.183 -0.05,0.25 0,0.033 0.017,0.067 0.05,0.1 0.033,0.133 0.017,0.25 -0.05,0.35 m 19.8,71.55 h 3 V 236.3 h -3 z M 121.85,236.3 h -0.1 c -1.033,-0.2 -1.783,0 -2.25,0.6 -0.5,0.7 -0.717,1.85 -0.65,3.45 V 295 c -0.033,1.633 0.2,2.833 0.7,3.6 0.5,0.7 1.25,1.017 2.25,0.95 h 9.3 V 236.3 Z m 9.35,-1 c 0,-0.033 0.017,-0.067 0.05,-0.1 0.1,-0.1 0.217,-0.15 0.35,-0.15 0.133,0 0.25,0.05 0.35,0.15 l 0.1,0.1 h 3.15 c 0,-0.033 0.017,-0.067 0.05,-0.1 0.1,-0.1 0.217,-0.15 0.35,-0.15 0.133,0 0.25,0.05 0.35,0.15 0.1,0.1 0.15,0.217 0.15,0.35 v 64.5 c 0,0.133 -0.05,0.25 -0.15,0.35 -0.1,0.1 -0.217,0.15 -0.35,0.15 h -13.8 c -1.4,0.1 -2.417,-0.35 -3.05,-1.35 -0.667,-0.9 -0.967,-2.3 -0.9,-4.2 v -54.6 c -0.1,-1.9 0.183,-3.267 0.85,-4.1 0.7,-0.933 1.783,-1.267 3.25,-1 z M 27.3,75.85 c 0.633,0.9 0.917,2.3 0.85,4.2 v 54.6 c 0.1,1.9 -0.183,3.267 -0.85,4.1 -0.633,0.833 -1.583,1.183 -2.85,1.05 v 31.25 H 44.4 V 68.25 H 24.45 v 6.25 c 1.267,-0.033 2.217,0.417 2.85,1.35 m -3.85,-7.6 H 11.4 v 102.8 h 12.05 z m 27.85,6.4 c 0.1,-0.1 0.217,-0.15 0.35,-0.15 h 13.8 c 1.4,-0.1 2.433,0.35 3.1,1.35 0.633,0.9 0.917,2.3 0.85,4.2 v 54.6 c 0.1,1.9 -0.183,3.267 -0.85,4.1 -0.7,0.933 -1.783,1.267 -3.25,1 h -9.2 l -0.1,0.1 c -0.1,0.1 -0.217,0.15 -0.35,0.15 -0.133,0 -0.25,-0.05 -0.35,-0.15 -0.033,-0.033 -0.05,-0.067 -0.05,-0.1 H 52.1 l -0.1,0.1 c -0.1,0.1 -0.217,0.15 -0.35,0.15 -0.133,0 -0.25,-0.05 -0.35,-0.15 -0.1,-0.1 -0.15,-0.217 -0.15,-0.35 V 75 c 0,-0.133 0.05,-0.25 0.15,-0.35 m 3.85,0.85 h -3 v 63.25 h 3 z m 12.55,0.95 c -0.5,-0.7 -1.233,-1.017 -2.2,-0.95 h -9.35 v 63.25 h 9.25 0.1 c 1.033,0.2 1.783,0 2.25,-0.6 0.5,-0.7 0.717,-1.85 0.65,-3.45 V 80.05 c 0.033,-1.633 -0.2,-2.833 -0.7,-3.6 m 7.2,-8.2 H 45.4 v 102.8 h 29.5 z m -50.45,-1 H 44.4 V 33.4 H 24.45 Z m 55.35,36.4 c -0.467,-2.2 -1.767,-3.533 -3.9,-4 v 46.9 c 1.667,-0.7 2.95,-2.017 3.85,-3.95 0.033,-0.167 0.083,-0.317 0.15,-0.45 V 104.1 c -0.033,-0.167 -0.05,-0.3 -0.05,-0.4 z m 27.65,0.05 c -0.033,0.1 -0.067,0.233 -0.1,0.4 v 38.15 0.15 c 0.033,0.033 0.067,0.083 0.1,0.15 0.9,1.933 2.2,3.267 3.9,4 v -46.9 c -2.133,0.467 -3.433,1.8 -3.9,4 z m -83,-28.2 v 63.3 c 0.933,0.133 1.617,-0.083 2.05,-0.65 0.5,-0.7 0.717,-1.85 0.65,-3.45 V 80.05 c 0.033,-1.633 -0.2,-2.833 -0.7,-3.6 -0.467,-0.667 -1.133,-0.983 -2,-0.95 M 127.9,3.15 C 127.767,3.117 127.65,3.067 127.55,3 l -5.35,5.35 c -0.1,0.1 -0.217,0.15 -0.35,0.15 H 65.4 C 65.267,8.5 65.15,8.45 65.05,8.35 L 59.7,3 C 59.6,3.067 59.5,3.117 59.4,3.15 57.9,3.517 57.15,4.633 57.15,6.5 V 13 H 130.1 V 6.5 c 0,-1.867 -0.733,-2.983 -2.2,-3.35 M 121.65,7.5 126.15,3 H 61.1 l 4.5,4.5 z m -3.8,72.55 c -0.067,-1.9 0.233,-3.3 0.9,-4.2 0.633,-1 1.65,-1.45 3.05,-1.35 h 13.8 c 0.133,0 0.25,0.05 0.35,0.15 0.1,0.1 0.15,0.217 0.15,0.35 v 64.5 c 0,0.133 -0.05,0.25 -0.15,0.35 -0.1,0.1 -0.217,0.15 -0.35,0.15 -0.133,0 -0.25,-0.05 -0.35,-0.15 -0.033,-0.033 -0.05,-0.067 -0.05,-0.1 h -3.15 c -0.033,0.033 -0.067,0.067 -0.1,0.1 -0.1,0.1 -0.217,0.15 -0.35,0.15 -0.133,0 -0.25,-0.05 -0.35,-0.15 -0.033,-0.033 -0.05,-0.067 -0.05,-0.1 h -9.25 c -1.467,0.267 -2.55,-0.067 -3.25,-1 -0.667,-0.833 -0.95,-2.2 -0.85,-4.1 z m 1.7,-3.6 c -0.5,0.767 -0.733,1.967 -0.7,3.6 v 54.65 c -0.067,1.6 0.15,2.75 0.65,3.45 0.467,0.6 1.217,0.8 2.25,0.6 h 0.1 9.25 V 75.5 h -9.3 c -1,-0.067 -1.75,0.25 -2.25,0.95 m -7.2,-8.2 V 98.5 c 0,0.1 -0.017,0.183 -0.05,0.25 0.033,0.033 0.05,0.1 0.05,0.2 0.033,0.1 0.017,0.217 -0.05,0.35 0.033,0.067 0.05,0.15 0.05,0.25 v 47.2 c 0,0.1 -0.017,0.183 -0.05,0.25 v 0.05 c 0.067,0.1 0.083,0.217 0.05,0.35 -0.033,0.033 -0.05,0.067 -0.05,0.1 0.033,0.067 0.05,0.15 0.05,0.25 v 23.3 h 29.5 V 68.25 Z m -1,30.35 V 98.5 68.25 H 75.9 V 98.6 c 2.667,0.533 4.3,2.15 4.9,4.85 0,0.1 0.033,0.217 0.1,0.35 0.033,0.567 0.033,0.867 0,0.9 v 37.55 c 0,0.067 -0.017,0.15 -0.05,0.25 -0.033,0.067 -0.067,0.167 -0.1,0.3 0,0.033 -0.017,0.067 -0.05,0.1 -1.067,2.4 -2.667,3.967 -4.8,4.7 v 23.45 h 35.45 v -23.3 c 0,-0.033 0.017,-0.067 0.05,-0.1 -2.167,-0.767 -3.783,-2.333 -4.85,-4.7 -0.067,-0.1 -0.067,-0.2 0,-0.3 l -0.05,-0.05 c -0.1,-0.1 -0.15,-0.217 -0.15,-0.35 V 104 103.9 c 0.033,-0.167 0.083,-0.317 0.15,-0.45 h -0.05 c 0.6,-2.7 2.233,-4.317 4.9,-4.85 M 135.1,75.5 h -3 v 63.25 h 3 z M 111.35,33.4 H 75.9 v 33.85 h 35.45 z m 1,33.85 h 29.5 V 33.4 h -29.5 z M 74.9,33.4 H 45.4 v 33.85 h 29.5 z m -62.25,0 c -0.433,0 -0.85,0.017 -1.25,0.05 v 33.8 H 23.45 V 33.4 Z M 10.1,33.5 H 10.05 C 6.683,33.9 4.533,35.4 3.6,38 3.133,39.267 2.95,40.783 3.05,42.55 V 67.4 c 0.5,2.1 1.25,3.667 2.25,4.7 0.3,0.267 0.45,0.617 0.45,1.05 v 56.65 c 0,0.367 -0.117,0.7 -0.35,1 -1.367,1.6 -2.15,4.167 -2.35,7.7 v 23.7 0.1 c -0.2,4.067 0.833,6.733 3.1,8 0.933,0.467 2.067,0.717 3.4,0.75 H 10.4 V 33.5 Z M 34.5,16 c -6.767,1.133 -11.8,3.55 -15.1,7.25 H 168.15 C 165.183,19.55 160.067,17.133 152.8,16 Z m 128,52.25 h -19.65 v 102.8 h 19.65 z m 0,-34.85 h -19.65 v 33.85 h 19.65 z m 1,137.65 h 12.35 V 68.25 H 163.5 Z m 8.4,-147.7 c 0.133,-0.067 0.283,-0.1 0.45,-0.1 4.333,0 6.5,2.167 6.5,6.5 v 0.95 c 2.6,0.533 4.617,1.65 6.05,3.35 1.7,1.967 2.467,4.817 2.3,8.55 v 0.1 24.9 0.35 c -0.6,2.533 -1.5,4.467 -2.7,5.8 v 55.5 c 1.6,2 2.5,5.067 2.7,9.2 v 23.75 c 0.2,4.733 -0.9,8.033 -3.3,9.9 v 0.05 c -1.267,1 -2.867,1.617 -4.8,1.85 v 27.05 c 1.933,0.233 3.533,0.85 4.8,1.85 v 0.05 c 2.4,1.867 3.5,5.167 3.3,9.9 v 23.75 c -0.2,4.133 -1.1,7.2 -2.7,9.2 v 55.5 c 1.2,1.333 2.1,3.267 2.7,5.8 v 0.35 24.9 0.1 c 0.167,3.733 -0.6,6.583 -2.3,8.55 -1.433,1.7 -3.45,2.817 -6.05,3.35 v 0.95 c 0,4.333 -2.167,6.5 -6.5,6.5 -0.167,0 -0.317,-0.033 -0.45,-0.1 -3.033,5.433 -9.3,8.867 -18.8,10.3 -0.1,0.033 -0.183,0.05 -0.25,0.05 H 133.1 v 6.5 c 0,3.6 -1.517,5.7 -4.55,6.3 -0.367,0.1 -0.7,0.05 -1,-0.15 -0.267,0.233 -0.583,0.35 -0.95,0.35 H 60.65 c -0.333,0 -0.633,-0.117 -0.9,-0.35 -0.333,0.2 -0.667,0.25 -1,0.15 -3.067,-0.6 -4.6,-2.7 -4.6,-6.3 v -6.5 H 34.4 c -0.067,0 -0.15,-0.017 -0.25,-0.05 -8.867,-1.433 -15.1,-4.867 -18.7,-10.3 -0.167,0.067 -0.35,0.1 -0.55,0.1 -3.567,0 -5.65,-1.483 -6.25,-4.45 v 0.05 C 8.483,346.767 8.4,346.067 8.4,345.3 v -0.95 c -4,-0.767 -6.55,-2.867 -7.65,-6.3 -0.567,-1.567 -0.8,-3.433 -0.7,-5.6 v -25 c 0,-0.1 0.017,-0.217 0.05,-0.35 0.567,-2.533 1.45,-4.467 2.65,-5.8 v -55.5 c -1.6,-2 -2.5,-5.067 -2.7,-9.2 v -23.75 c -0.267,-5.6 1.317,-9.2 4.75,-10.8 0.967,-0.5 2.083,-0.817 3.35,-0.95 V 173.95 C 6.883,173.817 5.767,173.5 4.8,173 1.367,171.4 -0.217,167.8 0.05,162.2 v -23.75 c 0.2,-4.133 1.1,-7.2 2.7,-9.2 V 73.75 C 1.55,72.417 0.667,70.483 0.1,67.95 0.067,67.817 0.05,67.7 0.05,67.6 v -25 C -0.05,40.433 0.183,38.567 0.75,37 1.85,33.567 4.4,31.467 8.4,30.7 v -0.95 c 0,-0.767 0.083,-1.467 0.25,-2.1 v 0.05 c 0.6,-2.967 2.683,-4.45 6.25,-4.45 0.2,0 0.383,0.033 0.55,0.1 3.6,-5.433 9.833,-8.867 18.7,-10.3 C 34.25,13.017 34.333,13 34.4,13 H 54.15 V 6.5 c 0,-3.6 1.533,-5.7 4.6,-6.3 0.333,-0.1 0.667,-0.05 1,0.15 C 60.017,0.117 60.317,0 60.65,0 h 65.95 c 0.367,0 0.683,0.117 0.95,0.35 0.3,-0.2 0.633,-0.25 1,-0.15 3.033,0.6 4.55,2.7 4.55,6.3 V 13 h 19.75 c 0.067,0 0.15,0.017 0.25,0.05 9.5,1.433 15.767,4.867 18.8,10.3 m 5.25,10.15 h -0.3 v 137.55 h 0.85 c 1.8,-0.033 3.233,-0.45 4.3,-1.25 h 0.05 c 1.6,-1.467 2.317,-3.967 2.15,-7.5 v -0.1 -23.6 c -0.167,-3.567 -0.933,-6.167 -2.3,-7.8 -0.267,-0.3 -0.4,-0.633 -0.4,-1 V 73.15 c 0,-0.433 0.15,-0.783 0.45,-1.05 1,-1.033 1.75,-2.6 2.25,-4.7 V 42.55 c 0.133,-2.833 -0.383,-5.017 -1.55,-6.55 l -0.05,-0.05 c -1.233,-1.367 -3.033,-2.183 -5.4,-2.45 z m -1.3,-0.05 c -0.4,-0.033 -0.817,-0.05 -1.25,-0.05 h -11.1 v 33.85 h 12.35 z m 0,-3.7 c 0,-2.333 -1.167,-3.5 -3.5,-3.5 -0.267,0 -0.5,-0.05 -0.7,-0.15 -0.233,0.1 -0.483,0.15 -0.75,0.15 H 16.35 c -0.267,0 -0.517,-0.05 -0.75,-0.15 -0.2,0.1 -0.433,0.15 -0.7,0.15 -1.833,0 -2.95,0.7 -3.35,2.1 v 0.05 c -0.1,0.4 -0.15,0.85 -0.15,1.35 v 0.7 c 0.4,-0.033 0.817,-0.05 1.25,-0.05 H 174.6 c 0.433,0 0.85,0.017 1.25,0.05 z"
             style="fill:#666666;fill-opacity:1;fill-rule:evenodd;stroke:none"
             id="path128"
             inkscape:connector-curvature="0" />
        </g>
      </g>
    </g>
  </g>
</svg>
