<?xml version="1.0" encoding="UTF-8" standalone="no"?>
<!-- Created with Inkscape (http://www.inkscape.org/) -->

<svg
   xmlns:dc="http://purl.org/dc/elements/1.1/"
   xmlns:cc="http://creativecommons.org/ns#"
   xmlns:rdf="http://www.w3.org/1999/02/22-rdf-syntax-ns#"
   xmlns:svg="http://www.w3.org/2000/svg"
   xmlns="http://www.w3.org/2000/svg"
   xmlns:sodipodi="http://sodipodi.sourceforge.net/DTD/sodipodi-0.dtd"
   xmlns:inkscape="http://www.inkscape.org/namespaces/inkscape"
   width="64"
   height="64"
   viewBox="0 0 64 64"
   version="1.1"
   id="svg537"
   inkscape:version="0.92.4 (5da689c313, 2019-01-14)"
   sodipodi:docname="thruster.svg">
  <defs
     id="defs531">
    <clipPath
       clipPathUnits="userSpaceOnUse"
       id="clipPath156">
      <path
         d="M 0,94.5498 H 92.25 V 0 H 0 Z"
         id="path154"
         inkscape:connector-curvature="0" />
    </clipPath>
  </defs>
  <sodipodi:namedview
     id="base"
     pagecolor="#ffffff"
     bordercolor="#666666"
     borderopacity="1.0"
     inkscape:pageopacity="0.0"
     inkscape:pageshadow="2"
     inkscape:zoom="2.8"
     inkscape:cx="25.558749"
     inkscape:cy="-124.14999"
     inkscape:document-units="px"
     inkscape:current-layer="layer1"
     showgrid="false"
     fit-margin-top="0"
     fit-margin-left="0"
     fit-margin-right="0"
     fit-margin-bottom="0"
     inkscape:window-width="2560"
     inkscape:window-height="1312"
     inkscape:window-x="0"
     inkscape:window-y="54"
     inkscape:window-maximized="1"
     units="px" />
  <metadata
     id="metadata534">
    <rdf:RDF>
      <cc:Work
         rdf:about="">
        <dc:format>image/svg+xml</dc:format>
        <dc:type
           rdf:resource="http://purl.org/dc/dcmitype/StillImage" />
        <dc:title></dc:title>
      </cc:Work>
    </rdf:RDF>
  </metadata>
  <g
     inkscape:label="Layer 1"
     inkscape:groupmode="layer"
     id="layer1"
     transform="translate(-40.597104,-31.522553)">
    <g
       id="g148"
       transform="matrix(0.69376694,0,0,0.67689197,40.597104,31.522553)">
      <g
         id="g150">
        <g
           id="g152"
           clip-path="url(#clipPath156)">
          <g
             id="g158"
             transform="translate(91.7002,8.7002)">
            <path
               d="m 0,0 c 0.3,0.3 0.45,0.65 0.45,1.05 v 0.2 0.15 c 0.067,0.267 0.1,0.55 0.1,0.85 v 73.2 c 0,0.2 -0.033,0.383 -0.1,0.55 0.033,0.1 0.05,0.216 0.05,0.35 0,0.4 -0.15,0.75 -0.45,1.05 -0.3,0.3 -0.65,0.45 -1.05,0.45 -0.167,0.667 -0.434,1.25 -0.8,1.75 -0.6,0.9 -1.433,1.55 -2.5,1.95 -0.5,1.1 -1.317,1.9 -2.45,2.4 v 0.4 c 0,0.4 -0.15,0.75 -0.45,1.05 -0.3,0.3 -0.65,0.45 -1.05,0.45 H -37.3 c -0.4,0 -0.75,-0.15 -1.05,-0.45 -0.3,-0.3 -0.45,-0.65 -0.45,-1.05 V 84.1 c -1.367,-0.467 -2.333,-1.317 -2.9,-2.55 -1,-0.4 -1.817,-1.033 -2.45,-1.9 0,-0.033 -0.017,-0.067 -0.05,-0.1 -0.3,-0.5 -0.533,-1.067 -0.7,-1.7 -0.233,0 -0.45,-0.05 -0.65,-0.15 -0.234,0.1 -0.467,0.15 -0.7,0.15 -0.167,0.633 -0.4,1.2 -0.7,1.7 -0.033,0.033 -0.05,0.067 -0.05,0.1 -0.633,0.867 -1.45,1.5 -2.45,1.9 -0.567,1.233 -1.533,2.083 -2.9,2.55 v 0.25 c 0,0.4 -0.15,0.75 -0.45,1.05 -0.3,0.3 -0.65,0.45 -1.05,0.45 H -82.9 c -0.4,0 -0.75,-0.15 -1.05,-0.45 -0.3,-0.3 -0.45,-0.65 -0.45,-1.05 v -0.4 c -1.134,-0.5 -1.95,-1.3 -2.45,-2.4 -1.067,-0.4 -1.9,-1.05 -2.5,-1.95 -0.367,-0.5 -0.633,-1.083 -0.8,-1.75 -0.4,0 -0.75,-0.15 -1.05,-0.45 -0.3,-0.3 -0.45,-0.65 -0.45,-1.05 0,-0.134 0.017,-0.25 0.05,-0.35 -0.067,-0.167 -0.1,-0.35 -0.1,-0.55 V 2.25 c 0,-0.3 0.033,-0.583 0.1,-0.85 V 1.25 1.05 c 0,-0.4 0.15,-0.75 0.45,-1.05 0.3,-0.3 0.65,-0.45 1.05,-0.45 h 0.35 c 0.066,-0.234 0.15,-0.433 0.25,-0.6 0.667,-1.6 1.9,-2.583 3.7,-2.95 l 0.95,-1.2 c 0.133,-0.167 0.3,-0.3 0.5,-0.4 0.033,-0.033 0.083,-0.05 0.15,-0.05 0.533,-1.867 1.817,-2.867 3.85,-3 0.233,-0.034 0.467,-0.05 0.7,-0.05 h 22.9 c 0.1,0 0.283,0.016 0.55,0.05 2.067,0.1 3.416,1.083 4.05,2.95 0.4,0.1 0.716,0.317 0.95,0.65 l 0.65,1.05 c 1.766,0.367 3,1.35 3.7,2.95 0.033,0 0.05,0.016 0.05,0.05 0.067,0.167 0.133,0.35 0.2,0.55 h 0.35 c 0.233,0 0.466,0.067 0.7,0.2 0.2,-0.133 0.417,-0.2 0.65,-0.2 h 0.35 c 0.067,-0.2 0.133,-0.383 0.2,-0.55 0,-0.034 0.017,-0.05 0.05,-0.05 0.7,-1.6 1.933,-2.583 3.7,-2.95 l 0.65,-1.05 c 0.233,-0.333 0.55,-0.55 0.95,-0.65 0.633,-1.867 1.983,-2.85 4.05,-2.95 0.266,-0.034 0.45,-0.05 0.55,-0.05 h 22.9 c 0.233,0 0.466,0.016 0.7,0.05 2.033,0.133 3.317,1.133 3.85,3 0.067,0 0.117,0.017 0.15,0.05 0.2,0.1 0.366,0.233 0.5,0.4 l 0.95,1.2 c 1.8,0.367 3.033,1.35 3.7,2.95 0.1,0.167 0.183,0.366 0.25,0.6 h 0.35 c 0.4,0 0.75,0.15 1.05,0.45"
               style="fill:#e2e2e2;fill-opacity:1;fill-rule:evenodd;stroke:none"
               id="path160"
               inkscape:connector-curvature="0" />
          </g>
          <path
             d="m 44,75.5 h -2.4 v 8.05 H 44 Z m 6.65,0 h -2.4 v 8.05 h 2.4 z m -2.4,-15.7 v 11.4 h 2.4 v -9.15 c -0.767,-0.133 -1.433,-0.617 -2,-1.45 -0.133,-0.267 -0.267,-0.533 -0.4,-0.8 m -4.25,0 c -0.133,0.267 -0.267,0.533 -0.4,0.8 -0.567,0.833 -1.233,1.317 -2,1.45 V 71.2 H 44 Z m 7.15,-6.5 c -0.633,0.033 -1.183,0.4 -1.65,1.1 -0.5,0.767 -0.75,1.7 -0.75,2.8 0,1.1 0.25,2.05 0.75,2.85 0.467,0.667 1.017,1.017 1.65,1.05 0.6,-0.033 1.117,-0.383 1.55,-1.05 0.533,-0.8 0.8,-1.75 0.8,-2.85 0,-1.1 -0.267,-2.033 -0.8,-2.8 -0.433,-0.7 -0.95,-1.067 -1.55,-1.1 m 21.35,3.9 c 0,-1.067 -0.383,-1.983 -1.15,-2.75 -0.767,-0.767 -1.683,-1.15 -2.75,-1.15 -1.067,0 -1.983,0.383 -2.75,1.15 -0.767,0.767 -1.15,1.683 -1.15,2.75 0,1.067 0.383,1.983 1.15,2.75 0.767,0.767 1.683,1.15 2.75,1.15 1.067,0 1.983,-0.383 2.75,-1.15 0.767,-0.767 1.15,-1.683 1.15,-2.75 m 1,0 c 0,1.333 -0.483,2.483 -1.45,3.45 -0.967,0.967 -2.117,1.45 -3.45,1.45 -1.333,0 -2.483,-0.483 -3.45,-1.45 -0.967,-0.967 -1.45,-2.117 -1.45,-3.45 0,-1.333 0.483,-2.483 1.45,-3.45 0.967,-0.967 2.117,-1.45 3.45,-1.45 1.333,0 2.483,0.483 3.45,1.45 0.967,0.967 1.45,2.117 1.45,3.45 M 37.25,5.45 C 37.083,5.317 36.983,5.15 36.95,4.95 H 10.2 c -0.067,0.2 -0.167,0.367 -0.3,0.5 z m -2,-2.4 L 35,3.05 34.95,3 H 12.05 C 11.917,3 11.8,3.017 11.7,3.05 h -0.1 c -0.6,0.067 -1,0.367 -1.2,0.9 H 36.65 C 36.383,3.417 35.917,3.117 35.25,3.05 m 4.85,4.5 C 39.867,7.517 39.65,7.45 39.45,7.35 39.25,7.217 39.1,7.05 39,6.85 L 38.7,6.45 H 8.35 L 7.9,7 C 7.633,7.3 7.3,7.483 6.9,7.55 6.233,7.617 5.717,7.85 5.35,8.25 H 41.7 C 41.3,7.85 40.767,7.617 40.1,7.55 m -28.4,4.1 h 8.1 v -0.4 h -8.1 z m -1,0.5 v -0.9 H 6.1 v 15.9 h 13.7 v -14.5 h -8.6 c -0.133,0 -0.25,-0.05 -0.35,-0.15 -0.1,-0.1 -0.15,-0.217 -0.15,-0.35 M 3.3,11.25 H 3 v 15.9 H 5.1 V 11.25 Z M 3.45,36.4 C 3.85,35.733 4.333,35.283 4.9,35.05 4.967,35.017 5.033,35 5.1,35 V 34.9 28.15 H 3 v 9 C 3.133,36.883 3.283,36.633 3.45,36.4 m 2,-0.5 c -0.033,0 -0.083,0.017 -0.15,0.05 -0.367,0.167 -0.7,0.5 -1,1 -0.533,0.767 -0.8,1.7 -0.8,2.8 0,0.967 0.217,1.817 0.65,2.55 0,0.033 0.017,0.067 0.05,0.1 0,0.067 0.033,0.133 0.1,0.2 0.267,0.433 0.617,0.75 1.05,0.95 0.067,0 0.117,0.033 0.15,0.1 H 5.6 5.85 C 6.483,43.617 7.033,43.267 7.5,42.6 7.567,42.5 7.633,42.4 7.7,42.3 H 7.65 c 0.4,-0.733 0.6,-1.583 0.6,-2.55 0,-1.1 -0.25,-2.033 -0.75,-2.8 -0.467,-0.7 -1.017,-1.067 -1.65,-1.1 -0.133,0.067 -0.267,0.083 -0.4,0.05 m -2.2,6.85 C 3.15,42.583 3.067,42.433 3,42.3 V 54.6 C 3.133,54.333 3.283,54.083 3.45,53.85 3.85,53.183 4.333,52.733 4.9,52.5 4.967,52.467 5.033,52.45 5.1,52.45 v -0.1 -7.7 c 0,-0.067 0.017,-0.117 0.05,-0.15 H 5 C 4.4,44.267 3.883,43.817 3.45,43.15 3.35,43.017 3.283,42.883 3.25,42.75 m 16.65,0.1 c -0.767,-0.9 -1.15,-1.933 -1.15,-3.1 0,-1.333 0.483,-2.483 1.45,-3.45 0.967,-0.967 2.117,-1.45 3.45,-1.45 1.333,0 2.483,0.483 3.45,1.45 0.967,0.967 1.45,2.117 1.45,3.45 0,1.2 -0.367,2.25 -1.1,3.15 H 27.4 c -0.1,0.1 -0.2,0.2 -0.3,0.3 -0.967,0.967 -2.117,1.45 -3.45,1.45 -1.333,0 -2.483,-0.483 -3.45,-1.45 -0.133,-0.133 -0.233,-0.25 -0.3,-0.35 m 3.75,-7 c -1.067,0 -1.983,0.383 -2.75,1.15 -0.767,0.767 -1.15,1.683 -1.15,2.75 0,0.933 0.317,1.767 0.95,2.5 l 0.05,0.05 c 0.033,0.067 0.083,0.133 0.15,0.2 0.767,0.767 1.683,1.15 2.75,1.15 1.067,0 1.983,-0.383 2.75,-1.15 0.1,-0.1 0.2,-0.183 0.3,-0.25 V 42.2 c 0.567,-0.7 0.85,-1.517 0.85,-2.45 0,-1.067 -0.383,-1.983 -1.15,-2.75 -0.767,-0.767 -1.683,-1.15 -2.75,-1.15 m 15.9,18.55 c -0.533,0.767 -0.8,1.7 -0.8,2.8 0,1.1 0.267,2.05 0.8,2.85 0.433,0.667 0.95,1.017 1.55,1.05 0.633,-0.033 1.183,-0.383 1.65,-1.05 0.5,-0.8 0.75,-1.75 0.75,-2.85 0,-1.1 -0.25,-2.033 -0.75,-2.8 -0.467,-0.7 -1.017,-1.067 -1.65,-1.1 -0.6,0.033 -1.117,0.4 -1.55,1.1 m -15.9,-1.1 c -1.067,0 -1.983,0.383 -2.75,1.15 -0.767,0.767 -1.15,1.683 -1.15,2.75 0,1.067 0.383,1.983 1.15,2.75 0.767,0.767 1.683,1.15 2.75,1.15 1.067,0 1.983,-0.383 2.75,-1.15 0.767,-0.767 1.15,-1.683 1.15,-2.75 0,-1.067 -0.383,-1.983 -1.15,-2.75 -0.767,-0.767 -1.683,-1.15 -2.75,-1.15 m 4.9,3.9 c 0,1.333 -0.483,2.483 -1.45,3.45 -0.967,0.967 -2.117,1.45 -3.45,1.45 -1.333,0 -2.483,-0.483 -3.45,-1.45 -0.967,-0.967 -1.45,-2.117 -1.45,-3.45 0,-1.333 0.483,-2.483 1.45,-3.45 0.967,-0.967 2.117,-1.45 3.45,-1.45 1.333,0 2.483,0.483 3.45,1.45 0.967,0.967 1.45,2.117 1.45,3.45 M 5.45,53.35 c -0.033,0 -0.083,0.017 -0.15,0.05 -0.367,0.167 -0.7,0.5 -1,1 -0.533,0.767 -0.8,1.7 -0.8,2.8 0,1.1 0.267,2.05 0.8,2.85 0.267,0.433 0.617,0.75 1.05,0.95 0.067,0 0.117,0.033 0.15,0.1 H 5.6 5.85 C 6.483,61.067 7.033,60.717 7.5,60.05 8,59.25 8.25,58.3 8.25,57.2 8.25,56.1 8,55.167 7.5,54.4 7.033,53.7 6.483,53.333 5.85,53.3 5.717,53.367 5.583,53.383 5.45,53.35 m -2,7.25 C 3.283,60.333 3.133,60.067 3,59.8 v 11.4 h 2.1 v -9.1 c 0,-0.067 0.017,-0.117 0.05,-0.15 H 5 C 4.4,61.717 3.883,61.267 3.45,60.6 M 4.4,85.55 c 0.1,0.4 0.25,0.75 0.45,1.05 v 0.05 c 0.333,0.433 0.833,0.733 1.5,0.9 0.267,0.033 0.5,0.15 0.7,0.35 0.2,0.2 0.333,0.433 0.4,0.7 0,0.033 0.017,0.05 0.05,0.05 H 39.6 V 88.6 c 0.067,-0.267 0.217,-0.5 0.45,-0.7 0.167,-0.2 0.4,-0.317 0.7,-0.35 0.6,-0.167 1.083,-0.467 1.45,-0.9 0,-0.033 0.017,-0.05 0.05,-0.05 0.133,-0.3 0.25,-0.65 0.35,-1.05 H 41.1 40.7 27.3 V 85.5 h -3.95 v 0.05 z M 3,83.55 H 5.1 V 75.5 H 3 Z m 3.1,0 H 40.6 V 75.5 H 6.1 Z m 2.05,6.1 c 0.233,0.2 0.55,0.333 0.95,0.4 0.333,0.067 0.617,0.233 0.85,0.5 0.133,0.167 0.233,0.333 0.3,0.5 h 26.2 c 0.033,-0.167 0.133,-0.333 0.3,-0.5 0.233,-0.3 0.55,-0.467 0.95,-0.5 0.433,-0.067 0.817,-0.2 1.15,-0.4 z M 3,74.5 H 44 V 72.2 H 3 Z M 68.6,34.85 c 1.333,0 2.483,0.483 3.45,1.45 0.967,0.967 1.45,2.117 1.45,3.45 0,1.167 -0.383,2.2 -1.15,3.1 -0.067,0.1 -0.167,0.217 -0.3,0.35 -0.967,0.967 -2.117,1.45 -3.45,1.45 -1.333,0 -2.483,-0.483 -3.45,-1.45 -0.1,-0.1 -0.2,-0.2 -0.3,-0.3 H 64.8 c -0.733,-0.9 -1.1,-1.95 -1.1,-3.15 0,-1.333 0.483,-2.483 1.45,-3.45 0.967,-0.967 2.117,-1.45 3.45,-1.45 M 65.85,37 c -0.767,0.767 -1.15,1.683 -1.15,2.75 0,0.933 0.283,1.75 0.85,2.45 v 0.05 c 0.1,0.067 0.2,0.15 0.3,0.25 0.767,0.767 1.683,1.15 2.75,1.15 1.067,0 1.983,-0.383 2.75,-1.15 0.067,-0.067 0.117,-0.133 0.15,-0.2 l 0.05,-0.05 c 0.633,-0.733 0.95,-1.567 0.95,-2.5 0,-1.067 -0.383,-1.983 -1.15,-2.75 -0.767,-0.767 -1.683,-1.15 -2.75,-1.15 -1.067,0 -1.983,0.383 -2.75,1.15 M 44,42.4 c -0.067,0.133 -0.133,0.267 -0.2,0.4 v 0.05 c -0.067,0.1 -0.133,0.2 -0.2,0.3 -0.533,0.767 -1.15,1.25 -1.85,1.45 H 41.6 v 7.75 c 0.767,0.133 1.433,0.633 2,1.5 0.133,0.233 0.267,0.483 0.4,0.75 z m 4.25,0 v 12.2 c 0.133,-0.267 0.267,-0.517 0.4,-0.75 0.567,-0.867 1.233,-1.367 2,-1.5 V 44.6 H 50.5 c -0.7,-0.2 -1.317,-0.683 -1.85,-1.45 -0.067,-0.1 -0.133,-0.2 -0.2,-0.3 V 42.8 c -0.067,-0.133 -0.133,-0.267 -0.2,-0.4 M 44,29.5 H 27.4 v 0.4 H 44 Z m 0,1.4 h -2.4 v 4 c 0.033,0 0.083,0.017 0.15,0.05 0.7,0.167 1.317,0.65 1.85,1.45 0.133,0.233 0.267,0.483 0.4,0.75 z m -2.7,4.9 c -0.067,0.033 -0.133,0.05 -0.2,0.05 -0.6,0.033 -1.117,0.4 -1.55,1.1 -0.533,0.767 -0.8,1.7 -0.8,2.8 0,0.967 0.217,1.817 0.65,2.55 0,0.033 0.017,0.067 0.05,0.1 0,0.067 0.033,0.133 0.1,0.2 0.433,0.667 0.95,1.017 1.55,1.05 0.067,0 0.133,0.017 0.2,0.05 0.067,-0.033 0.133,-0.05 0.2,-0.05 0.467,-0.167 0.883,-0.517 1.25,-1.05 0.067,-0.1 0.133,-0.2 0.2,-0.3 H 42.9 c 0.4,-0.733 0.6,-1.583 0.6,-2.55 0,-1.1 -0.25,-2.033 -0.75,-2.8 -0.367,-0.567 -0.783,-0.917 -1.25,-1.05 -0.067,-0.033 -0.133,-0.067 -0.2,-0.1 m -0.7,-0.9 v -4 H 26.9 c -0.133,0 -0.25,-0.05 -0.35,-0.15 -0.1,-0.1 -0.15,-0.217 -0.15,-0.35 v -2.25 h -5.6 c -0.1,0 -0.183,-0.017 -0.25,-0.05 -0.067,0.033 -0.15,0.05 -0.25,0.05 -0.1,0 -0.183,-0.017 -0.25,-0.05 -0.067,0.033 -0.15,0.05 -0.25,0.05 H 6.1 v 6.7 c 0.867,0.067 1.617,0.583 2.25,1.55 0.6,0.933 0.9,2.05 0.9,3.35 0,1.167 -0.233,2.183 -0.7,3.05 v 0.05 c -0.067,0.1 -0.133,0.2 -0.2,0.3 -0.633,0.933 -1.383,1.433 -2.25,1.5 v 7.65 c 0.867,0.067 1.617,0.583 2.25,1.55 0.6,0.933 0.9,2.05 0.9,3.35 0,1.3 -0.3,2.433 -0.9,3.4 -0.633,0.933 -1.383,1.433 -2.25,1.5 v 9.1 h 34.5 v -9.15 c -0.733,-0.133 -1.367,-0.617 -1.9,-1.45 -0.633,-0.967 -0.95,-2.1 -0.95,-3.4 0,-1.3 0.317,-2.417 0.95,-3.35 0.533,-0.867 1.167,-1.367 1.9,-1.5 V 44.6 c -0.733,-0.133 -1.367,-0.617 -1.9,-1.45 -0.1,-0.133 -0.167,-0.267 -0.2,-0.4 -0.5,-0.867 -0.75,-1.867 -0.75,-3 0,-1.3 0.317,-2.417 0.95,-3.35 0.533,-0.867 1.167,-1.367 1.9,-1.5 m 7.65,-5 h 16.6 v -0.4 h -16.6 z m 2.9,5.95 c -0.067,0 -0.133,-0.017 -0.2,-0.05 -0.067,0.033 -0.133,0.067 -0.2,0.1 -0.467,0.133 -0.883,0.483 -1.25,1.05 -0.5,0.767 -0.75,1.7 -0.75,2.8 0,0.967 0.2,1.817 0.6,2.55 H 49.3 c 0.067,0.1 0.133,0.2 0.2,0.3 0.367,0.533 0.783,0.883 1.25,1.05 0.067,0 0.133,0.017 0.2,0.05 0.067,-0.033 0.133,-0.05 0.2,-0.05 0.6,-0.033 1.117,-0.383 1.55,-1.05 0.067,-0.067 0.1,-0.133 0.1,-0.2 0.033,-0.033 0.05,-0.067 0.05,-0.1 0.433,-0.733 0.65,-1.583 0.65,-2.55 0,-1.1 -0.267,-2.033 -0.8,-2.8 -0.433,-0.7 -0.95,-1.067 -1.55,-1.1 m -0.5,-4.95 h -2.4 v 6.25 c 0.133,-0.267 0.267,-0.517 0.4,-0.75 0.533,-0.8 1.15,-1.283 1.85,-1.45 0.067,-0.033 0.117,-0.05 0.15,-0.05 z m -2.4,-11.65 h 2.5 v -8 h -2.5 z m -7.75,0 v -8 H 20.8 v 0.4 c 0,0.1 -0.017,0.183 -0.05,0.25 0.033,0.067 0.05,0.15 0.05,0.25 v 15 h 8.9 v -7.4 c 0,-0.133 0.05,-0.25 0.15,-0.35 0.1,-0.1 0.217,-0.15 0.35,-0.15 z m 10.25,1 h -2.5 v 8.25 h 16.6 v -0.35 h -2.8 C 61.917,28.15 61.8,28.1 61.7,28 61.6,27.9 61.55,27.783 61.55,27.65 v -7.4 h -10.3 c -0.1,0 -0.183,-0.017 -0.25,-0.05 -0.067,0.033 -0.15,0.05 -0.25,0.05 m -6.75,-9 h -2.5 v 8 H 44 Z M 41.25,20.2 C 41.183,20.233 41.1,20.25 41,20.25 H 30.7 v 7.4 c 0,0.133 -0.05,0.25 -0.15,0.35 -0.1,0.1 -0.217,0.15 -0.35,0.15 H 27.4 V 28.5 H 44 v -8.25 h -2.5 c -0.1,0 -0.183,-0.017 -0.25,-0.05 m 30.2,-8.55 v -0.4 h -19.7 v 8 h 10.3 c 0.133,0 0.25,0.05 0.35,0.15 0.1,0.1 0.15,0.217 0.15,0.35 v 7.4 h 8.9 v -15 c 0,-0.1 0.017,-0.183 0.05,-0.25 -0.033,-0.067 -0.05,-0.15 -0.05,-0.25 m 1,0 h 8.1 v -0.4 h -8.1 z M 80.2,3 H 57.3 L 57.25,3.05 H 57 c -0.667,0.067 -1.133,0.367 -1.4,0.9 h 26.25 c -0.2,-0.533 -0.6,-0.833 -1.2,-0.9 h -0.1 C 80.45,3.017 80.333,3 80.2,3 m 9.05,69.2 h -41 v 2.3 h 41 z M 84.1,89.65 H 53.4 c 0.333,0.2 0.717,0.333 1.15,0.4 0.4,0.033 0.717,0.2 0.95,0.5 0.167,0.167 0.267,0.333 0.3,0.5 H 82 c 0.067,-0.167 0.167,-0.333 0.3,-0.5 0.233,-0.267 0.517,-0.433 0.85,-0.5 0.4,-0.067 0.717,-0.2 0.95,-0.4 m 3.05,-6.1 h 2.1 V 75.5 h -2.1 z m -1,-8.05 h -34.5 v 8.05 h 34.5 z m 1.7,10.05 H 68.9 V 85.5 h -3.95 v 0.05 h -13.4 -0.4 -1.5 c 0.1,0.4 0.217,0.75 0.35,1.05 0.033,0 0.05,0.017 0.05,0.05 0.367,0.433 0.85,0.733 1.45,0.9 0.3,0.033 0.533,0.15 0.7,0.35 0.233,0.2 0.383,0.433 0.45,0.7 v 0.05 h 32.1 c 0.033,0 0.05,-0.017 0.05,-0.05 0.067,-0.267 0.2,-0.5 0.4,-0.7 0.2,-0.2 0.433,-0.317 0.7,-0.35 0.667,-0.167 1.167,-0.467 1.5,-0.9 V 86.6 c 0.2,-0.3 0.35,-0.65 0.45,-1.05 M 88.8,60.6 c -0.433,0.667 -0.95,1.117 -1.55,1.35 H 87.1 c 0.033,0.033 0.05,0.083 0.05,0.15 v 9.1 h 2.1 V 59.8 c -0.133,0.267 -0.283,0.533 -0.45,0.8 m -1.85,-7.2 c -0.067,-0.033 -0.117,-0.05 -0.15,-0.05 -0.133,0.033 -0.267,0.017 -0.4,-0.05 -0.633,0.033 -1.183,0.4 -1.65,1.1 -0.5,0.767 -0.75,1.7 -0.75,2.8 0,1.1 0.25,2.05 0.75,2.85 0.467,0.667 1.017,1.017 1.65,1.05 h 0.25 0.1 c 0.033,-0.067 0.083,-0.1 0.15,-0.1 0.433,-0.2 0.783,-0.517 1.05,-0.95 0.533,-0.8 0.8,-1.75 0.8,-2.85 0,-1.1 -0.267,-2.033 -0.8,-2.8 -0.3,-0.5 -0.633,-0.833 -1,-1 M 89,42.75 c -0.033,0.133 -0.1,0.267 -0.2,0.4 -0.433,0.667 -0.95,1.117 -1.55,1.35 H 87.1 c 0.033,0.033 0.05,0.083 0.05,0.15 v 7.7 0.1 c 0.067,0 0.133,0.017 0.2,0.05 0.567,0.233 1.05,0.683 1.45,1.35 0.167,0.233 0.317,0.483 0.45,0.75 V 42.3 C 89.183,42.433 89.1,42.583 89,42.75 m -2.85,-14.6 h -13.7 c -0.1,0 -0.183,-0.017 -0.25,-0.05 -0.067,0.033 -0.15,0.05 -0.25,0.05 -0.1,0 -0.183,-0.017 -0.25,-0.05 -0.067,0.033 -0.15,0.05 -0.25,0.05 h -5.6 v 2.25 c 0,0.133 -0.05,0.25 -0.15,0.35 -0.1,0.1 -0.217,0.15 -0.35,0.15 h -13.7 v 4 c 0.733,0.133 1.367,0.633 1.9,1.5 0.633,0.933 0.95,2.05 0.95,3.35 0,1.133 -0.25,2.133 -0.75,3 -0.033,0.133 -0.1,0.267 -0.2,0.4 -0.533,0.833 -1.167,1.317 -1.9,1.45 v 7.75 c 0.733,0.133 1.367,0.633 1.9,1.5 0.633,0.933 0.95,2.05 0.95,3.35 0,1.3 -0.317,2.433 -0.95,3.4 -0.533,0.833 -1.167,1.317 -1.9,1.45 v 9.15 h 34.5 V 62.1 C 85.283,62.033 84.533,61.533 83.9,60.6 83.3,59.633 83,58.5 83,57.2 c 0,-1.3 0.3,-2.417 0.9,-3.35 0.633,-0.967 1.383,-1.483 2.25,-1.55 v -7.65 c -0.867,-0.067 -1.617,-0.567 -2.25,-1.5 -0.067,-0.1 -0.133,-0.2 -0.2,-0.3 V 42.8 C 83.233,41.933 83,40.917 83,39.75 c 0,-1.3 0.3,-2.417 0.9,-3.35 0.633,-0.967 1.383,-1.483 2.25,-1.55 z m 0.25,7.7 c -0.633,0.033 -1.183,0.4 -1.65,1.1 -0.5,0.767 -0.75,1.7 -0.75,2.8 0,0.967 0.2,1.817 0.6,2.55 h -0.05 c 0.067,0.1 0.133,0.2 0.2,0.3 0.467,0.667 1.017,1.017 1.65,1.05 h 0.25 0.1 c 0.033,-0.067 0.083,-0.1 0.15,-0.1 0.433,-0.2 0.783,-0.517 1.05,-0.95 0.067,-0.067 0.1,-0.133 0.1,-0.2 0.033,-0.033 0.05,-0.067 0.05,-0.1 0.433,-0.733 0.65,-1.583 0.65,-2.55 0,-1.1 -0.267,-2.033 -0.8,-2.8 -0.3,-0.5 -0.633,-0.833 -1,-1 -0.067,-0.033 -0.117,-0.05 -0.15,-0.05 -0.133,0.033 -0.267,0.017 -0.4,-0.05 m 0.75,-7.7 V 34.9 35 c 0.067,0 0.133,0.017 0.2,0.05 0.567,0.233 1.05,0.683 1.45,1.35 0.167,0.233 0.317,0.483 0.45,0.75 v -9 z m 1.8,-16.9 h -1.8 v 15.9 h 2.1 V 11.25 Z M 83.9,6.45 H 53.55 l -0.3,0.4 c -0.1,0.2 -0.25,0.367 -0.45,0.5 -0.2,0.1 -0.417,0.167 -0.65,0.2 -0.667,0.067 -1.2,0.3 -1.6,0.7 H 86.9 C 86.533,7.85 86.017,7.617 85.35,7.55 84.95,7.483 84.617,7.3 84.35,7 Z m -2.35,5.7 c 0,0.133 -0.05,0.25 -0.15,0.35 -0.1,0.1 -0.217,0.15 -0.35,0.15 h -8.6 v 14.5 h 13.7 v -15.9 h -4.6 z m 0.5,-7.2 H 55.3 C 55.267,5.15 55.167,5.317 55,5.45 H 82.35 C 82.217,5.317 82.117,5.15 82.05,4.95 M 91.7,8.7 C 92,9 92.15,9.35 92.15,9.75 v 0.2 0.15 c 0.067,0.267 0.1,0.55 0.1,0.85 v 73.2 c 0,0.2 -0.033,0.383 -0.1,0.55 0.033,0.1 0.05,0.217 0.05,0.35 0,0.4 -0.15,0.75 -0.45,1.05 -0.3,0.3 -0.65,0.45 -1.05,0.45 -0.167,0.667 -0.433,1.25 -0.8,1.75 -0.6,0.9 -1.433,1.55 -2.5,1.95 -0.5,1.1 -1.317,1.9 -2.45,2.4 v 0.4 c 0,0.4 -0.15,0.75 -0.45,1.05 -0.3,0.3 -0.65,0.45 -1.05,0.45 H 54.4 C 54,94.55 53.65,94.4 53.35,94.1 53.05,93.8 52.9,93.45 52.9,93.05 V 92.8 c -1.367,-0.467 -2.333,-1.317 -2.9,-2.55 -1,-0.4 -1.817,-1.033 -2.45,-1.9 0,-0.033 -0.017,-0.067 -0.05,-0.1 -0.3,-0.5 -0.533,-1.067 -0.7,-1.7 -0.233,0 -0.45,-0.05 -0.65,-0.15 -0.233,0.1 -0.467,0.15 -0.7,0.15 -0.167,0.633 -0.4,1.2 -0.7,1.7 -0.033,0.033 -0.05,0.067 -0.05,0.1 -0.633,0.867 -1.45,1.5 -2.45,1.9 -0.567,1.233 -1.533,2.083 -2.9,2.55 v 0.25 c 0,0.4 -0.15,0.75 -0.45,1.05 -0.3,0.3 -0.65,0.45 -1.05,0.45 H 8.8 C 8.4,94.55 8.05,94.4 7.75,94.1 7.45,93.8 7.3,93.45 7.3,93.05 v -0.4 C 6.167,92.15 5.35,91.35 4.85,90.25 3.783,89.85 2.95,89.2 2.35,88.3 1.983,87.8 1.717,87.217 1.55,86.55 1.15,86.55 0.8,86.4 0.5,86.1 0.2,85.8 0.05,85.45 0.05,85.05 0.05,84.917 0.067,84.8 0.1,84.7 0.033,84.533 0,84.35 0,84.15 V 10.95 C 0,10.65 0.033,10.367 0.1,10.1 V 9.95 9.75 C 0.1,9.35 0.25,9 0.55,8.7 0.85,8.4 1.2,8.25 1.6,8.25 H 1.95 C 2.017,8.017 2.1,7.817 2.2,7.65 2.867,6.05 4.1,5.067 5.9,4.7 L 6.85,3.5 C 6.983,3.333 7.15,3.2 7.35,3.1 7.383,3.067 7.433,3.05 7.5,3.05 8.033,1.183 9.317,0.183 11.35,0.05 11.583,0.017 11.817,0 12.05,0 h 22.9 c 0.1,0 0.283,0.017 0.55,0.05 2.067,0.1 3.417,1.083 4.05,2.95 0.4,0.1 0.717,0.317 0.95,0.65 l 0.65,1.05 c 1.767,0.367 3,1.35 3.7,2.95 0.033,0 0.05,0.017 0.05,0.05 0.067,0.167 0.133,0.35 0.2,0.55 h 0.35 c 0.233,0 0.467,0.067 0.7,0.2 0.2,-0.133 0.417,-0.2 0.65,-0.2 h 0.35 c 0.067,-0.2 0.133,-0.383 0.2,-0.55 0,-0.033 0.017,-0.05 0.05,-0.05 0.7,-1.6 1.933,-2.583 3.7,-2.95 L 51.75,3.65 C 51.983,3.317 52.3,3.1 52.7,3 53.333,1.133 54.683,0.15 56.75,0.05 57.017,0.017 57.2,0 57.3,0 h 22.9 c 0.233,0 0.467,0.017 0.7,0.05 2.033,0.133 3.317,1.133 3.85,3 0.067,0 0.117,0.017 0.15,0.05 0.2,0.1 0.367,0.233 0.5,0.4 l 0.95,1.2 c 1.8,0.367 3.033,1.35 3.7,2.95 0.1,0.167 0.183,0.367 0.25,0.6 h 0.35 c 0.4,0 0.75,0.15 1.05,0.45"
             style="fill:#666666;fill-opacity:1;fill-rule:evenodd;stroke:none"
             id="path162"
             inkscape:connector-curvature="0" />
        </g>
      </g>
    </g>
  </g>
</svg>
